<mxfile host="app.diagrams.net" modified="2023-01-16T11:41:39.664Z" agent="5.0 (Windows NT 10.0; Win64; x64) AppleWebKit/537.36 (KHTML, like Gecko) Chrome/108.0.0.0 Safari/537.36" etag="EPtef6hbcQ45HQe-P73D" version="20.8.0" type="github">
  <diagram id="-1bJbAK5GgNlzDzoAg7J" name="Page-1">
    <mxGraphModel dx="19" dy="432" grid="0" gridSize="10" guides="1" tooltips="1" connect="1" arrows="1" fold="1" page="0" pageScale="1" pageWidth="827" pageHeight="1169" math="0" shadow="0">
      <root>
        <mxCell id="0" />
        <mxCell id="1" parent="0" />
        <mxCell id="BDm3REAGpp8tmRv-bOrY-5" value="User" style="shape=umlActor;verticalLabelPosition=bottom;verticalAlign=top;html=1;outlineConnect=0;" parent="1" vertex="1">
          <mxGeometry x="899.9300000000001" y="20" width="30" height="60" as="geometry" />
        </mxCell>
        <mxCell id="BDm3REAGpp8tmRv-bOrY-6" style="edgeStyle=orthogonalEdgeStyle;rounded=0;orthogonalLoop=1;jettySize=auto;html=1;exitX=0.25;exitY=1;exitDx=0;exitDy=0;startArrow=none;startFill=0;endArrow=block;endFill=1;entryX=0.836;entryY=0.001;entryDx=0;entryDy=0;entryPerimeter=0;" parent="1" source="BDm3REAGpp8tmRv-bOrY-8" target="BDm3REAGpp8tmRv-bOrY-11" edge="1">
          <mxGeometry relative="1" as="geometry">
            <Array as="points">
              <mxPoint x="1157.73" y="109" />
              <mxPoint x="1111.73" y="109" />
            </Array>
            <mxPoint x="1111.73" y="124" as="targetPoint" />
          </mxGeometry>
        </mxCell>
        <mxCell id="BDm3REAGpp8tmRv-bOrY-7" value="&lt;span style=&quot;font-size: 8px;&quot;&gt;2.1. submitLogin(username,&amp;nbsp;&lt;/span&gt;&lt;span style=&quot;font-size: 8px;&quot;&gt;password): isLoggedIn&lt;/span&gt;" style="edgeLabel;html=1;align=center;verticalAlign=middle;resizable=0;points=[];" parent="BDm3REAGpp8tmRv-bOrY-6" vertex="1" connectable="0">
          <mxGeometry x="0.1401" y="1" relative="1" as="geometry">
            <mxPoint x="25" y="-13" as="offset" />
          </mxGeometry>
        </mxCell>
        <mxCell id="BDm3REAGpp8tmRv-bOrY-8" value="&amp;lt;&amp;lt;boundary&amp;gt;&amp;gt;&lt;br&gt;&lt;u&gt;ui1: AppGUI&lt;/u&gt;" style="rounded=0;whiteSpace=wrap;html=1;" parent="1" vertex="1">
          <mxGeometry x="1127.43" y="37" width="120" height="40" as="geometry" />
        </mxCell>
        <mxCell id="BDm3REAGpp8tmRv-bOrY-11" value="&amp;lt;&amp;lt;control&amp;gt;&amp;gt;&lt;br&gt;&lt;u&gt;lm1: LoginManager&lt;/u&gt;" style="rounded=0;whiteSpace=wrap;html=1;" parent="1" vertex="1">
          <mxGeometry x="1011.4300000000001" y="131" width="120" height="40" as="geometry" />
        </mxCell>
        <mxCell id="BDm3REAGpp8tmRv-bOrY-12" value="&lt;span style=&quot;color: rgb(0, 0, 0); font-family: Helvetica; font-size: 8px; font-style: normal; font-variant-ligatures: normal; font-variant-caps: normal; font-weight: 400; letter-spacing: normal; orphans: 2; text-align: center; text-indent: 0px; text-transform: none; widows: 2; word-spacing: 0px; -webkit-text-stroke-width: 0px; background-color: rgb(255, 255, 255); text-decoration-thickness: initial; text-decoration-style: initial; text-decoration-color: initial; float: none; display: inline !important;&quot;&gt;2.1.2.1. create currentUser: currentUser&lt;/span&gt;" style="edgeStyle=orthogonalEdgeStyle;rounded=0;orthogonalLoop=1;jettySize=auto;html=1;entryX=0.995;entryY=0.383;entryDx=0;entryDy=0;startArrow=none;startFill=0;endArrow=block;endFill=1;exitX=0.5;exitY=1;exitDx=0;exitDy=0;entryPerimeter=0;" parent="1" source="BDm3REAGpp8tmRv-bOrY-13" target="BDm3REAGpp8tmRv-bOrY-16" edge="1">
          <mxGeometry x="-0.527" relative="1" as="geometry">
            <mxPoint as="offset" />
          </mxGeometry>
        </mxCell>
        <mxCell id="BDm3REAGpp8tmRv-bOrY-13" value="&amp;lt;&amp;lt;control&amp;gt;&amp;gt;&lt;br&gt;&lt;u&gt;um1: UserManager&lt;/u&gt;" style="rounded=0;whiteSpace=wrap;html=1;" parent="1" vertex="1">
          <mxGeometry x="1294.43" y="97" width="120" height="40" as="geometry" />
        </mxCell>
        <mxCell id="BDm3REAGpp8tmRv-bOrY-16" value="&amp;lt;&amp;lt;entity&amp;gt;&amp;gt;&lt;br&gt;&lt;u&gt;u1: User&lt;/u&gt;" style="rounded=0;whiteSpace=wrap;html=1;" parent="1" vertex="1">
          <mxGeometry x="1155.43" y="169" width="120" height="40" as="geometry" />
        </mxCell>
        <mxCell id="BDm3REAGpp8tmRv-bOrY-17" value="" style="endArrow=block;html=1;rounded=0;endFill=1;entryX=0;entryY=0.5;entryDx=0;entryDy=0;" parent="1" edge="1">
          <mxGeometry width="50" height="50" relative="1" as="geometry">
            <mxPoint x="935.4299999999998" y="53" as="sourcePoint" />
            <mxPoint x="1127.4299999999998" y="53" as="targetPoint" />
          </mxGeometry>
        </mxCell>
        <mxCell id="BDm3REAGpp8tmRv-bOrY-18" value="1. clickLogin()" style="edgeLabel;html=1;align=center;verticalAlign=middle;resizable=0;points=[];fontSize=8;" parent="BDm3REAGpp8tmRv-bOrY-17" vertex="1" connectable="0">
          <mxGeometry x="-0.3022" y="-1" relative="1" as="geometry">
            <mxPoint x="26" y="-2" as="offset" />
          </mxGeometry>
        </mxCell>
        <mxCell id="BDm3REAGpp8tmRv-bOrY-19" style="edgeStyle=orthogonalEdgeStyle;rounded=0;orthogonalLoop=1;jettySize=auto;html=1;entryX=1;entryY=0.5;entryDx=0;entryDy=0;fontSize=8;startArrow=none;startFill=0;endArrow=block;endFill=1;exitX=0.821;exitY=0.002;exitDx=0;exitDy=0;exitPerimeter=0;" parent="1" source="BDm3REAGpp8tmRv-bOrY-8" edge="1">
          <mxGeometry relative="1" as="geometry">
            <mxPoint x="1247.4310000000003" y="20.003000000000043" as="sourcePoint" />
            <mxPoint x="1248.1899999999991" y="43.840000000000146" as="targetPoint" />
            <Array as="points">
              <mxPoint x="1226.43" y="26" />
              <mxPoint x="1267.43" y="26" />
              <mxPoint x="1267.43" y="44" />
              <mxPoint x="1248.43" y="44" />
            </Array>
          </mxGeometry>
        </mxCell>
        <mxCell id="BDm3REAGpp8tmRv-bOrY-20" value="1.1. displayLogin()" style="edgeLabel;html=1;align=center;verticalAlign=middle;resizable=0;points=[];fontSize=8;" parent="BDm3REAGpp8tmRv-bOrY-19" vertex="1" connectable="0">
          <mxGeometry x="-0.0543" relative="1" as="geometry">
            <mxPoint x="37" y="8" as="offset" />
          </mxGeometry>
        </mxCell>
        <mxCell id="BDm3REAGpp8tmRv-bOrY-21" value="" style="endArrow=block;html=1;rounded=0;endFill=1;entryX=0;entryY=0.5;entryDx=0;entryDy=0;" parent="1" edge="1">
          <mxGeometry width="50" height="50" relative="1" as="geometry">
            <mxPoint x="934.4299999999998" y="66" as="sourcePoint" />
            <mxPoint x="1127.4299999999998" y="66" as="targetPoint" />
          </mxGeometry>
        </mxCell>
        <mxCell id="BDm3REAGpp8tmRv-bOrY-22" value="2. login (username, password)*[User not valid]" style="edgeLabel;html=1;align=center;verticalAlign=middle;resizable=0;points=[];fontSize=8;" parent="BDm3REAGpp8tmRv-bOrY-21" vertex="1" connectable="0">
          <mxGeometry x="-0.3022" y="-1" relative="1" as="geometry">
            <mxPoint x="27" as="offset" />
          </mxGeometry>
        </mxCell>
        <mxCell id="BDm3REAGpp8tmRv-bOrY-23" style="edgeStyle=orthogonalEdgeStyle;rounded=0;orthogonalLoop=1;jettySize=auto;html=1;exitX=0.25;exitY=1;exitDx=0;exitDy=0;startArrow=none;startFill=0;endArrow=block;endFill=1;entryX=0.5;entryY=1;entryDx=0;entryDy=0;" parent="1" source="BDm3REAGpp8tmRv-bOrY-11" target="BDm3REAGpp8tmRv-bOrY-11" edge="1">
          <mxGeometry relative="1" as="geometry">
            <mxPoint x="1026.4299999999998" y="171" as="targetPoint" />
            <Array as="points">
              <mxPoint x="1041" y="184" />
              <mxPoint x="1041" y="184" />
              <mxPoint x="1041" y="200" />
              <mxPoint x="1071" y="200" />
            </Array>
          </mxGeometry>
        </mxCell>
        <mxCell id="BDm3REAGpp8tmRv-bOrY-24" value="&lt;span style=&quot;font-size: 8px;&quot;&gt;2.1.1. validateUser(): isValid&lt;/span&gt;" style="edgeLabel;html=1;align=center;verticalAlign=middle;resizable=0;points=[];" parent="BDm3REAGpp8tmRv-bOrY-23" vertex="1" connectable="0">
          <mxGeometry x="-0.1892" y="1" relative="1" as="geometry">
            <mxPoint x="9" y="-10" as="offset" />
          </mxGeometry>
        </mxCell>
        <mxCell id="BDm3REAGpp8tmRv-bOrY-25" style="edgeStyle=orthogonalEdgeStyle;rounded=0;orthogonalLoop=1;jettySize=auto;html=1;entryX=1;entryY=0.5;entryDx=0;entryDy=0;fontSize=8;startArrow=none;startFill=0;endArrow=block;endFill=1;exitX=1.001;exitY=0.454;exitDx=0;exitDy=0;exitPerimeter=0;" parent="1" source="BDm3REAGpp8tmRv-bOrY-8" edge="1">
          <mxGeometry relative="1" as="geometry">
            <mxPoint x="1248.67" y="53.16" as="sourcePoint" />
            <mxPoint x="1248.4299999999998" y="77" as="targetPoint" />
            <Array as="points">
              <mxPoint x="1267.43" y="55" />
              <mxPoint x="1267.43" y="77" />
            </Array>
          </mxGeometry>
        </mxCell>
        <mxCell id="BDm3REAGpp8tmRv-bOrY-26" value="2.2. displayHome()" style="edgeLabel;html=1;align=center;verticalAlign=middle;resizable=0;points=[];fontSize=8;" parent="BDm3REAGpp8tmRv-bOrY-25" vertex="1" connectable="0">
          <mxGeometry x="-0.0543" relative="1" as="geometry">
            <mxPoint x="27" y="3" as="offset" />
          </mxGeometry>
        </mxCell>
        <mxCell id="BDm3REAGpp8tmRv-bOrY-27" value="" style="endArrow=block;html=1;rounded=0;endFill=1;entryX=0;entryY=0.5;entryDx=0;entryDy=0;exitX=1;exitY=0.5;exitDx=0;exitDy=0;edgeStyle=orthogonalEdgeStyle;" parent="1" edge="1">
          <mxGeometry width="50" height="50" relative="1" as="geometry">
            <mxPoint x="1131.4299999999998" y="159" as="sourcePoint" />
            <mxPoint x="1294.4300000000007" y="125" as="targetPoint" />
            <Array as="points">
              <mxPoint x="1247.73" y="159" />
              <mxPoint x="1247.73" y="125" />
            </Array>
          </mxGeometry>
        </mxCell>
        <mxCell id="BDm3REAGpp8tmRv-bOrY-28" value="2.1.2. login(username, password): currentUser" style="edgeLabel;html=1;align=center;verticalAlign=middle;resizable=0;points=[];fontSize=8;" parent="BDm3REAGpp8tmRv-bOrY-27" vertex="1" connectable="0">
          <mxGeometry x="-0.3022" y="-1" relative="1" as="geometry">
            <mxPoint x="34" y="-13" as="offset" />
          </mxGeometry>
        </mxCell>
        <mxCell id="BDm3REAGpp8tmRv-bOrY-29" value="User2" style="shape=umlActor;verticalLabelPosition=bottom;verticalAlign=top;html=1;outlineConnect=0;" parent="1" vertex="1">
          <mxGeometry x="988.41" y="335" width="30" height="60" as="geometry" />
        </mxCell>
        <mxCell id="BDm3REAGpp8tmRv-bOrY-30" value="&amp;lt;&amp;lt;boundary&amp;gt;&amp;gt;&lt;br&gt;&lt;u&gt;ui1: AppGUI&lt;/u&gt;" style="rounded=0;whiteSpace=wrap;html=1;" parent="1" vertex="1">
          <mxGeometry x="1330.41" y="300" width="120" height="96" as="geometry" />
        </mxCell>
        <mxCell id="BDm3REAGpp8tmRv-bOrY-31" style="edgeStyle=orthogonalEdgeStyle;rounded=0;orthogonalLoop=1;jettySize=auto;html=1;exitX=1;exitY=0.5;exitDx=0;exitDy=0;startArrow=none;startFill=0;endArrow=block;endFill=1;entryX=1;entryY=1;entryDx=0;entryDy=0;" parent="1" edge="1">
          <mxGeometry relative="1" as="geometry">
            <mxPoint x="1466.5500000000002" y="503" as="targetPoint" />
            <mxPoint x="1466.5500000000002" y="483" as="sourcePoint" />
            <Array as="points">
              <mxPoint x="1495.0500000000002" y="483" />
              <mxPoint x="1495.0500000000002" y="503" />
            </Array>
          </mxGeometry>
        </mxCell>
        <mxCell id="BDm3REAGpp8tmRv-bOrY-32" value="&lt;span style=&quot;font-size: 8px;&quot;&gt;1.2.1.1 validateDetails():&amp;nbsp;&lt;/span&gt;&lt;span style=&quot;font-size: 8px;&quot;&gt;isValidUser&lt;/span&gt;" style="edgeLabel;html=1;align=center;verticalAlign=middle;resizable=0;points=[];" parent="BDm3REAGpp8tmRv-bOrY-31" vertex="1" connectable="0">
          <mxGeometry x="-0.1447" y="-1" relative="1" as="geometry">
            <mxPoint x="46" y="5" as="offset" />
          </mxGeometry>
        </mxCell>
        <mxCell id="BDm3REAGpp8tmRv-bOrY-33" value="&amp;lt;&amp;lt;control&amp;gt;&amp;gt;&lt;br&gt;&lt;u&gt;rm1: RegistrationManager&lt;/u&gt;" style="rounded=0;whiteSpace=wrap;html=1;" parent="1" vertex="1">
          <mxGeometry x="1311.5500000000002" y="480" width="155" height="94" as="geometry" />
        </mxCell>
        <mxCell id="BDm3REAGpp8tmRv-bOrY-34" value="&amp;lt;&amp;lt;entity&amp;gt;&amp;gt;&lt;br&gt;&lt;u&gt;u1: User&lt;/u&gt;" style="rounded=0;whiteSpace=wrap;html=1;" parent="1" vertex="1">
          <mxGeometry x="1040.0000000000002" y="491" width="120" height="40" as="geometry" />
        </mxCell>
        <mxCell id="BDm3REAGpp8tmRv-bOrY-35" value="" style="edgeStyle=orthogonalEdgeStyle;rounded=0;orthogonalLoop=1;jettySize=auto;html=1;startArrow=none;startFill=0;endArrow=block;endFill=1;" parent="1" source="BDm3REAGpp8tmRv-bOrY-37" target="BDm3REAGpp8tmRv-bOrY-29" edge="1">
          <mxGeometry relative="1" as="geometry">
            <mxPoint x="983.41" y="365" as="targetPoint" />
          </mxGeometry>
        </mxCell>
        <mxCell id="BDm3REAGpp8tmRv-bOrY-36" value="&lt;span style=&quot;font-size: 8px;&quot;&gt;1. give referral code&lt;/span&gt;" style="edgeLabel;html=1;align=center;verticalAlign=middle;resizable=0;points=[];" parent="BDm3REAGpp8tmRv-bOrY-35" vertex="1" connectable="0">
          <mxGeometry x="-0.1508" relative="1" as="geometry">
            <mxPoint x="3" y="-2" as="offset" />
          </mxGeometry>
        </mxCell>
        <mxCell id="BDm3REAGpp8tmRv-bOrY-37" value="User" style="shape=umlActor;verticalLabelPosition=bottom;verticalAlign=top;html=1;outlineConnect=0;" parent="1" vertex="1">
          <mxGeometry x="855.41" y="336" width="30" height="60" as="geometry" />
        </mxCell>
        <mxCell id="BDm3REAGpp8tmRv-bOrY-40" style="edgeStyle=orthogonalEdgeStyle;rounded=0;orthogonalLoop=1;jettySize=auto;html=1;exitX=0.125;exitY=0;exitDx=0;exitDy=0;startArrow=none;startFill=0;endArrow=blockThin;endFill=1;entryX=0.291;entryY=-0.01;entryDx=0;entryDy=0;exitPerimeter=0;entryPerimeter=0;" parent="1" edge="1">
          <mxGeometry relative="1" as="geometry">
            <mxPoint x="1366.0499999999995" y="299.3699999999999" as="targetPoint" />
            <mxPoint x="1346.1299999999994" y="300" as="sourcePoint" />
            <Array as="points">
              <mxPoint x="1346.13" y="270" />
              <mxPoint x="1366.13" y="270" />
            </Array>
          </mxGeometry>
        </mxCell>
        <mxCell id="BDm3REAGpp8tmRv-bOrY-41" value="&lt;span style=&quot;font-size: 8px;&quot;&gt;1.2.2. displayPayment()&lt;/span&gt;" style="edgeLabel;html=1;align=center;verticalAlign=middle;resizable=0;points=[];" parent="BDm3REAGpp8tmRv-bOrY-40" vertex="1" connectable="0">
          <mxGeometry x="-0.1447" y="-1" relative="1" as="geometry">
            <mxPoint x="-33" y="9" as="offset" />
          </mxGeometry>
        </mxCell>
        <mxCell id="BDm3REAGpp8tmRv-bOrY-42" style="edgeStyle=orthogonalEdgeStyle;rounded=0;orthogonalLoop=1;jettySize=auto;html=1;exitX=0.125;exitY=0;exitDx=0;exitDy=0;startArrow=none;startFill=0;endArrow=blockThin;endFill=1;entryX=0.291;entryY=-0.01;entryDx=0;entryDy=0;exitPerimeter=0;entryPerimeter=0;" parent="1" edge="1">
          <mxGeometry relative="1" as="geometry">
            <mxPoint x="1415.1299999999985" y="299.3699999999999" as="targetPoint" />
            <mxPoint x="1395.2100000000003" y="300" as="sourcePoint" />
            <Array as="points">
              <mxPoint x="1395.21" y="270" />
              <mxPoint x="1415.21" y="270" />
            </Array>
          </mxGeometry>
        </mxCell>
        <mxCell id="BDm3REAGpp8tmRv-bOrY-43" value="&lt;span style=&quot;font-size: 8px;&quot;&gt;1.3.2. displayHome()&lt;/span&gt;" style="edgeLabel;html=1;align=center;verticalAlign=middle;resizable=0;points=[];" parent="BDm3REAGpp8tmRv-bOrY-42" vertex="1" connectable="0">
          <mxGeometry x="-0.1447" y="-1" relative="1" as="geometry">
            <mxPoint x="16" y="8" as="offset" />
          </mxGeometry>
        </mxCell>
        <mxCell id="BDm3REAGpp8tmRv-bOrY-44" style="edgeStyle=orthogonalEdgeStyle;rounded=0;orthogonalLoop=1;jettySize=auto;html=1;exitX=0.125;exitY=0;exitDx=0;exitDy=0;startArrow=none;startFill=0;endArrow=blockThin;endFill=1;entryX=0.993;entryY=0.19;entryDx=0;entryDy=0;exitPerimeter=0;entryPerimeter=0;" parent="1" edge="1">
          <mxGeometry relative="1" as="geometry">
            <mxPoint x="1450.2899999999993" y="311.97000000000025" as="targetPoint" />
            <mxPoint x="1443.1300000000003" y="300" as="sourcePoint" />
            <Array as="points">
              <mxPoint x="1443.13" y="286" />
              <mxPoint x="1463.13" y="286" />
              <mxPoint x="1463.13" y="312" />
            </Array>
          </mxGeometry>
        </mxCell>
        <mxCell id="BDm3REAGpp8tmRv-bOrY-45" value="&lt;span style=&quot;font-size: 8px;&quot;&gt;1.4.2.&amp;nbsp;&lt;/span&gt;&lt;span style=&quot;font-size: 8px;&quot;&gt;displayError(paymentError)&lt;/span&gt;" style="edgeLabel;html=1;align=center;verticalAlign=middle;resizable=0;points=[];" parent="BDm3REAGpp8tmRv-bOrY-44" vertex="1" connectable="0">
          <mxGeometry x="-0.1447" y="-1" relative="1" as="geometry">
            <mxPoint x="52" y="9" as="offset" />
          </mxGeometry>
        </mxCell>
        <mxCell id="BDm3REAGpp8tmRv-bOrY-46" style="edgeStyle=orthogonalEdgeStyle;rounded=0;orthogonalLoop=1;jettySize=auto;html=1;startArrow=none;startFill=0;endArrow=blockThin;endFill=1;entryX=1.01;entryY=0.577;entryDx=0;entryDy=0;entryPerimeter=0;exitX=1;exitY=0.25;exitDx=0;exitDy=0;" parent="1" edge="1">
          <mxGeometry relative="1" as="geometry">
            <mxPoint x="1451.61" y="346.60099999999966" as="targetPoint" />
            <mxPoint x="1450.41" y="326" as="sourcePoint" />
            <Array as="points">
              <mxPoint x="1470.41" y="326.25" />
              <mxPoint x="1470.41" y="346.25" />
              <mxPoint x="1451.41" y="346.25" />
            </Array>
          </mxGeometry>
        </mxCell>
        <mxCell id="BDm3REAGpp8tmRv-bOrY-47" value="&lt;span style=&quot;font-size: 8px;&quot;&gt;1.4.3.&amp;nbsp;&lt;/span&gt;&lt;span style=&quot;font-size: 8px;&quot;&gt;displayPayment()&lt;/span&gt;" style="edgeLabel;html=1;align=center;verticalAlign=middle;resizable=0;points=[];" parent="BDm3REAGpp8tmRv-bOrY-46" vertex="1" connectable="0">
          <mxGeometry x="-0.1447" y="-1" relative="1" as="geometry">
            <mxPoint x="33" y="4" as="offset" />
          </mxGeometry>
        </mxCell>
        <mxCell id="BDm3REAGpp8tmRv-bOrY-48" style="edgeStyle=orthogonalEdgeStyle;rounded=0;orthogonalLoop=1;jettySize=auto;html=1;startArrow=none;startFill=0;endArrow=blockThin;endFill=1;entryX=1.01;entryY=0.577;entryDx=0;entryDy=0;entryPerimeter=0;exitX=1;exitY=0.25;exitDx=0;exitDy=0;" parent="1" edge="1">
          <mxGeometry relative="1" as="geometry">
            <mxPoint x="1451.61" y="375.3010000000004" as="targetPoint" />
            <mxPoint x="1450.41" y="354.69999999999936" as="sourcePoint" />
            <Array as="points">
              <mxPoint x="1470.41" y="354.94999999999993" />
              <mxPoint x="1470.41" y="374.94999999999993" />
              <mxPoint x="1451.41" y="374.94999999999993" />
            </Array>
          </mxGeometry>
        </mxCell>
        <mxCell id="BDm3REAGpp8tmRv-bOrY-49" value="&lt;span style=&quot;font-size: 8px;&quot;&gt;1.5.1. displayHome()&lt;/span&gt;" style="edgeLabel;html=1;align=center;verticalAlign=middle;resizable=0;points=[];" parent="BDm3REAGpp8tmRv-bOrY-48" vertex="1" connectable="0">
          <mxGeometry x="-0.1447" y="-1" relative="1" as="geometry">
            <mxPoint x="33" y="4" as="offset" />
          </mxGeometry>
        </mxCell>
        <mxCell id="BDm3REAGpp8tmRv-bOrY-50" style="edgeStyle=orthogonalEdgeStyle;rounded=0;orthogonalLoop=1;jettySize=auto;html=1;startArrow=none;startFill=0;endArrow=blockThin;endFill=1;entryX=1.01;entryY=0.577;entryDx=0;entryDy=0;entryPerimeter=0;exitX=1;exitY=0.25;exitDx=0;exitDy=0;" parent="1" edge="1">
          <mxGeometry relative="1" as="geometry">
            <mxPoint x="1329.2079365079364" y="308" as="targetPoint" />
            <mxPoint x="1330.4079365079353" y="328.60099999999966" as="sourcePoint" />
            <Array as="points">
              <mxPoint x="1310.4079365079365" y="328.3509999999999" />
              <mxPoint x="1310.4079365079365" y="308.3509999999999" />
              <mxPoint x="1329.4079365079365" y="308.3509999999999" />
            </Array>
          </mxGeometry>
        </mxCell>
        <mxCell id="BDm3REAGpp8tmRv-bOrY-51" value="&lt;span style=&quot;font-size: 8px;&quot;&gt;1.1.1. displayRegistration()&lt;/span&gt;" style="edgeLabel;html=1;align=center;verticalAlign=middle;resizable=0;points=[];" parent="BDm3REAGpp8tmRv-bOrY-50" vertex="1" connectable="0">
          <mxGeometry x="-0.1447" y="-1" relative="1" as="geometry">
            <mxPoint x="-34" y="-4" as="offset" />
          </mxGeometry>
        </mxCell>
        <mxCell id="BDm3REAGpp8tmRv-bOrY-56" value="" style="endArrow=block;html=1;rounded=0;endFill=1;entryX=0;entryY=0.25;entryDx=0;entryDy=0;" parent="1" edge="1">
          <mxGeometry width="50" height="50" relative="1" as="geometry">
            <mxPoint x="1025.565230596176" y="341.99999999999955" as="sourcePoint" />
            <mxPoint x="1330.41" y="341" as="targetPoint" />
          </mxGeometry>
        </mxCell>
        <mxCell id="BDm3REAGpp8tmRv-bOrY-57" value="1.1. clickRegister()" style="edgeLabel;html=1;align=center;verticalAlign=middle;resizable=0;points=[];fontSize=8;" parent="BDm3REAGpp8tmRv-bOrY-56" vertex="1" connectable="0">
          <mxGeometry x="-0.3022" y="-1" relative="1" as="geometry">
            <mxPoint x="43" y="-2" as="offset" />
          </mxGeometry>
        </mxCell>
        <mxCell id="BDm3REAGpp8tmRv-bOrY-58" value="" style="endArrow=block;html=1;rounded=0;endFill=1;entryX=0;entryY=0.575;entryDx=0;entryDy=0;entryPerimeter=0;" parent="1" edge="1">
          <mxGeometry width="50" height="50" relative="1" as="geometry">
            <mxPoint x="1025.565230596176" y="355" as="sourcePoint" />
            <mxPoint x="1330.41" y="354" as="targetPoint" />
          </mxGeometry>
        </mxCell>
        <mxCell id="BDm3REAGpp8tmRv-bOrY-59" value="1.2. register(details)*[User details are valid]" style="edgeLabel;html=1;align=center;verticalAlign=middle;resizable=0;points=[];fontSize=8;" parent="BDm3REAGpp8tmRv-bOrY-58" vertex="1" connectable="0">
          <mxGeometry x="-0.3022" y="-1" relative="1" as="geometry">
            <mxPoint x="43" y="-2" as="offset" />
          </mxGeometry>
        </mxCell>
        <mxCell id="BDm3REAGpp8tmRv-bOrY-60" value="" style="endArrow=block;html=1;rounded=0;endFill=1;" parent="1" edge="1">
          <mxGeometry width="50" height="50" relative="1" as="geometry">
            <mxPoint x="1025.0500000000004" y="368" as="sourcePoint" />
            <mxPoint x="1328.9788038995123" y="366.99999999999955" as="targetPoint" />
          </mxGeometry>
        </mxCell>
        <mxCell id="BDm3REAGpp8tmRv-bOrY-61" value="1.3. clickPay(details)*[Payment is valid or cancelled][Payment is valid]" style="edgeLabel;html=1;align=center;verticalAlign=middle;resizable=0;points=[];fontSize=8;" parent="BDm3REAGpp8tmRv-bOrY-60" vertex="1" connectable="0">
          <mxGeometry x="-0.3022" y="-1" relative="1" as="geometry">
            <mxPoint x="44" y="-2" as="offset" />
          </mxGeometry>
        </mxCell>
        <mxCell id="BDm3REAGpp8tmRv-bOrY-62" value="" style="endArrow=block;html=1;rounded=0;endFill=1;entryX=0;entryY=0.575;entryDx=0;entryDy=0;entryPerimeter=0;" parent="1" edge="1">
          <mxGeometry width="50" height="50" relative="1" as="geometry">
            <mxPoint x="1025.565230596176" y="380" as="sourcePoint" />
            <mxPoint x="1330.41" y="379" as="targetPoint" />
          </mxGeometry>
        </mxCell>
        <mxCell id="BDm3REAGpp8tmRv-bOrY-63" value="1.4. clickPay(details)*[Payment is valid or cancelled][Payment is invalid]" style="edgeLabel;html=1;align=center;verticalAlign=middle;resizable=0;points=[];fontSize=8;" parent="BDm3REAGpp8tmRv-bOrY-62" vertex="1" connectable="0">
          <mxGeometry x="-0.3022" y="-1" relative="1" as="geometry">
            <mxPoint x="43" y="-2" as="offset" />
          </mxGeometry>
        </mxCell>
        <mxCell id="BDm3REAGpp8tmRv-bOrY-64" value="" style="endArrow=block;html=1;rounded=0;endFill=1;" parent="1" edge="1">
          <mxGeometry width="50" height="50" relative="1" as="geometry">
            <mxPoint x="1025.0499999999995" y="393" as="sourcePoint" />
            <mxPoint x="1328.9788038995123" y="391.99999999999955" as="targetPoint" />
          </mxGeometry>
        </mxCell>
        <mxCell id="BDm3REAGpp8tmRv-bOrY-65" value="1.5. clickPay(details)*[Payment is valid or cancelled][Payment is cancelled]" style="edgeLabel;html=1;align=center;verticalAlign=middle;resizable=0;points=[];fontSize=8;" parent="BDm3REAGpp8tmRv-bOrY-64" vertex="1" connectable="0">
          <mxGeometry x="-0.3022" y="-1" relative="1" as="geometry">
            <mxPoint x="44" y="-2" as="offset" />
          </mxGeometry>
        </mxCell>
        <mxCell id="BDm3REAGpp8tmRv-bOrY-66" style="edgeStyle=orthogonalEdgeStyle;rounded=0;orthogonalLoop=1;jettySize=auto;html=1;exitX=1;exitY=0.5;exitDx=0;exitDy=0;startArrow=none;startFill=0;endArrow=block;endFill=1;entryX=1;entryY=1;entryDx=0;entryDy=0;" parent="1" edge="1">
          <mxGeometry relative="1" as="geometry">
            <mxPoint x="1466.5500000000002" y="532" as="targetPoint" />
            <mxPoint x="1466.5500000000002" y="512" as="sourcePoint" />
            <Array as="points">
              <mxPoint x="1495.0500000000002" y="512" />
              <mxPoint x="1495.0500000000002" y="532" />
            </Array>
          </mxGeometry>
        </mxCell>
        <mxCell id="BDm3REAGpp8tmRv-bOrY-67" value="&lt;span style=&quot;font-size: 8px;&quot;&gt;1.2.1.2.&amp;nbsp;&lt;/span&gt;&lt;span style=&quot;font-size: 8px;&quot;&gt;calculateCost()&lt;/span&gt;" style="edgeLabel;html=1;align=center;verticalAlign=middle;resizable=0;points=[];" parent="BDm3REAGpp8tmRv-bOrY-66" vertex="1" connectable="0">
          <mxGeometry x="-0.1447" y="-1" relative="1" as="geometry">
            <mxPoint x="24" y="5" as="offset" />
          </mxGeometry>
        </mxCell>
        <mxCell id="BDm3REAGpp8tmRv-bOrY-70" style="edgeStyle=orthogonalEdgeStyle;rounded=0;orthogonalLoop=1;jettySize=auto;html=1;exitX=1;exitY=0.5;exitDx=0;exitDy=0;startArrow=none;startFill=0;endArrow=block;endFill=1;entryX=1;entryY=1;entryDx=0;entryDy=0;" parent="1" edge="1">
          <mxGeometry x="0.6418" y="21" relative="1" as="geometry">
            <mxPoint x="1466.5499999999997" y="563.9999999999995" as="targetPoint" />
            <mxPoint x="1466.5499999999997" y="543.9999999999995" as="sourcePoint" />
            <Array as="points">
              <mxPoint x="1495.0500000000002" y="544" />
              <mxPoint x="1495.0500000000002" y="564" />
            </Array>
            <mxPoint as="offset" />
          </mxGeometry>
        </mxCell>
        <mxCell id="BDm3REAGpp8tmRv-bOrY-71" value="&lt;span style=&quot;font-size: 8px;&quot;&gt;1.3.1.1. validatePayment():&amp;nbsp;&lt;/span&gt;&lt;span style=&quot;font-size: 8px;&quot;&gt;isValidPayment&lt;/span&gt;" style="edgeLabel;html=1;align=center;verticalAlign=middle;resizable=0;points=[];" parent="BDm3REAGpp8tmRv-bOrY-70" vertex="1" connectable="0">
          <mxGeometry x="-0.1447" y="-1" relative="1" as="geometry">
            <mxPoint x="57" y="5" as="offset" />
          </mxGeometry>
        </mxCell>
        <mxCell id="BDm3REAGpp8tmRv-bOrY-72" style="edgeStyle=orthogonalEdgeStyle;rounded=0;orthogonalLoop=1;jettySize=auto;html=1;startArrow=none;startFill=0;endArrow=block;endFill=1;entryX=0.661;entryY=0.992;entryDx=0;entryDy=0;entryPerimeter=0;" parent="1" edge="1">
          <mxGeometry x="0.6494" y="-2" relative="1" as="geometry">
            <mxPoint x="1432.5349999999999" y="574" as="targetPoint" />
            <mxPoint x="1460.58" y="574.3199999999997" as="sourcePoint" />
            <Array as="points">
              <mxPoint x="1460.5800000000002" y="607.3199999999999" />
              <mxPoint x="1432.5800000000002" y="607.3199999999999" />
            </Array>
            <mxPoint as="offset" />
          </mxGeometry>
        </mxCell>
        <mxCell id="BDm3REAGpp8tmRv-bOrY-73" value="&lt;span style=&quot;font-size: 8px;&quot;&gt;1.3.1.4. registerUser()&lt;/span&gt;" style="edgeLabel;html=1;align=center;verticalAlign=middle;resizable=0;points=[];" parent="BDm3REAGpp8tmRv-bOrY-72" vertex="1" connectable="0">
          <mxGeometry x="-0.1447" y="-1" relative="1" as="geometry">
            <mxPoint x="-3" y="-13" as="offset" />
          </mxGeometry>
        </mxCell>
        <mxCell id="BDm3REAGpp8tmRv-bOrY-74" style="edgeStyle=orthogonalEdgeStyle;rounded=0;orthogonalLoop=1;jettySize=auto;html=1;startArrow=none;startFill=0;endArrow=block;endFill=1;entryX=0.661;entryY=0.992;entryDx=0;entryDy=0;entryPerimeter=0;" parent="1" edge="1">
          <mxGeometry x="0.6494" y="-2" relative="1" as="geometry">
            <mxPoint x="1329.8649999999986" y="574" as="targetPoint" />
            <mxPoint x="1357.9100000000005" y="574.3199999999997" as="sourcePoint" />
            <Array as="points">
              <mxPoint x="1357.9100000000003" y="607.3199999999999" />
              <mxPoint x="1329.9100000000003" y="607.3199999999999" />
            </Array>
            <mxPoint as="offset" />
          </mxGeometry>
        </mxCell>
        <mxCell id="BDm3REAGpp8tmRv-bOrY-75" value="&lt;span style=&quot;font-size: 8px;&quot;&gt;1.4.1.1. validatePayment():&amp;nbsp;&lt;/span&gt;&lt;span style=&quot;font-size: 8px;&quot;&gt;isInvalidPayment&lt;/span&gt;" style="edgeLabel;html=1;align=center;verticalAlign=middle;resizable=0;points=[];" parent="BDm3REAGpp8tmRv-bOrY-74" vertex="1" connectable="0">
          <mxGeometry x="-0.1447" y="-1" relative="1" as="geometry">
            <mxPoint x="-31" y="-12" as="offset" />
          </mxGeometry>
        </mxCell>
        <mxCell id="BDm3REAGpp8tmRv-bOrY-78" style="edgeStyle=orthogonalEdgeStyle;rounded=0;orthogonalLoop=1;jettySize=auto;html=1;entryX=1;entryY=0.5;entryDx=0;entryDy=0;startArrow=none;startFill=0;endArrow=block;endFill=1;exitX=0;exitY=0.25;exitDx=0;exitDy=0;" parent="1" source="BDm3REAGpp8tmRv-bOrY-33" target="BDm3REAGpp8tmRv-bOrY-34" edge="1">
          <mxGeometry relative="1" as="geometry">
            <mxPoint x="1311.3949999999995" y="539.0519999999997" as="sourcePoint" />
            <mxPoint x="1173.3499999999995" y="539" as="targetPoint" />
            <Array as="points">
              <mxPoint x="1160.64" y="511" />
            </Array>
          </mxGeometry>
        </mxCell>
        <mxCell id="BDm3REAGpp8tmRv-bOrY-79" value="&lt;span style=&quot;font-size: 8px;&quot;&gt;1.3.1.3. create newUser: newUser&lt;/span&gt;" style="edgeLabel;html=1;align=center;verticalAlign=middle;resizable=0;points=[];" parent="BDm3REAGpp8tmRv-bOrY-78" vertex="1" connectable="0">
          <mxGeometry x="0.2233" y="-1" relative="1" as="geometry">
            <mxPoint x="17" as="offset" />
          </mxGeometry>
        </mxCell>
        <mxCell id="BDm3REAGpp8tmRv-bOrY-91" style="edgeStyle=orthogonalEdgeStyle;rounded=0;orthogonalLoop=1;jettySize=auto;html=1;entryX=0.011;entryY=0.433;entryDx=0;entryDy=0;startArrow=none;startFill=0;endArrow=block;endFill=1;entryPerimeter=0;" parent="1" target="BDm3REAGpp8tmRv-bOrY-96" edge="1">
          <mxGeometry relative="1" as="geometry">
            <mxPoint x="1064.9999999999998" y="817" as="sourcePoint" />
            <mxPoint x="1174" y="817" as="targetPoint" />
          </mxGeometry>
        </mxCell>
        <mxCell id="BDm3REAGpp8tmRv-bOrY-92" value="&lt;span style=&quot;font-size: 8px;&quot;&gt;1. clickViewProfile()&lt;/span&gt;" style="edgeLabel;html=1;align=center;verticalAlign=middle;resizable=0;points=[];" parent="BDm3REAGpp8tmRv-bOrY-91" vertex="1" connectable="0">
          <mxGeometry x="-0.3263" y="-1" relative="1" as="geometry">
            <mxPoint x="38" y="-3" as="offset" />
          </mxGeometry>
        </mxCell>
        <mxCell id="BDm3REAGpp8tmRv-bOrY-93" value="User" style="shape=umlActor;verticalLabelPosition=bottom;verticalAlign=top;html=1;outlineConnect=0;" parent="1" vertex="1">
          <mxGeometry x="1035" y="790" width="30" height="60" as="geometry" />
        </mxCell>
        <mxCell id="BDm3REAGpp8tmRv-bOrY-94" style="edgeStyle=orthogonalEdgeStyle;rounded=0;orthogonalLoop=1;jettySize=auto;html=1;entryX=0.5;entryY=0;entryDx=0;entryDy=0;startArrow=none;startFill=0;endArrow=block;endFill=1;exitX=0.5;exitY=1;exitDx=0;exitDy=0;" parent="1" source="BDm3REAGpp8tmRv-bOrY-96" target="BDm3REAGpp8tmRv-bOrY-99" edge="1">
          <mxGeometry x="0.2688" y="16" relative="1" as="geometry">
            <mxPoint x="1391.4014492753624" y="851" as="sourcePoint" />
            <mxPoint x="1391.3999999999999" y="890" as="targetPoint" />
            <mxPoint as="offset" />
          </mxGeometry>
        </mxCell>
        <mxCell id="BDm3REAGpp8tmRv-bOrY-95" value="&lt;span style=&quot;font-size: 8px;&quot;&gt;2.1. saveChanges(details):&amp;nbsp;&lt;/span&gt;&lt;span style=&quot;font-size: 8px;&quot;&gt;isUpdated&lt;/span&gt;" style="edgeLabel;html=1;align=center;verticalAlign=middle;resizable=0;points=[];" parent="BDm3REAGpp8tmRv-bOrY-94" vertex="1" connectable="0">
          <mxGeometry x="-0.2407" y="1" relative="1" as="geometry">
            <mxPoint x="-2" y="6" as="offset" />
          </mxGeometry>
        </mxCell>
        <mxCell id="BDm3REAGpp8tmRv-bOrY-96" value="&amp;lt;&amp;lt;boundary&amp;gt;&amp;gt;&lt;br&gt;&lt;u&gt;ui1: AppGUI&lt;/u&gt;" style="rounded=0;whiteSpace=wrap;html=1;" parent="1" vertex="1">
          <mxGeometry x="1304.5" y="800" width="120" height="40" as="geometry" />
        </mxCell>
        <mxCell id="BDm3REAGpp8tmRv-bOrY-97" style="edgeStyle=orthogonalEdgeStyle;rounded=0;orthogonalLoop=1;jettySize=auto;html=1;startArrow=none;startFill=0;endArrow=block;endFill=1;entryX=1;entryY=0.5;entryDx=0;entryDy=0;exitX=0;exitY=0.5;exitDx=0;exitDy=0;" parent="1" source="BDm3REAGpp8tmRv-bOrY-99" target="BDm3REAGpp8tmRv-bOrY-100" edge="1">
          <mxGeometry relative="1" as="geometry">
            <mxPoint x="1304.4999999999998" y="917" as="sourcePoint" />
            <mxPoint x="1195.4999999999998" y="917" as="targetPoint" />
          </mxGeometry>
        </mxCell>
        <mxCell id="BDm3REAGpp8tmRv-bOrY-98" value="&lt;span style=&quot;font-size: 8px;&quot;&gt;2.1.1. editUser(details):&amp;nbsp;&lt;/span&gt;&lt;span style=&quot;font-size: 8px;&quot;&gt;currentUser&lt;/span&gt;" style="edgeLabel;html=1;align=center;verticalAlign=middle;resizable=0;points=[];" parent="BDm3REAGpp8tmRv-bOrY-97" vertex="1" connectable="0">
          <mxGeometry x="0.2778" relative="1" as="geometry">
            <mxPoint x="22" y="-1" as="offset" />
          </mxGeometry>
        </mxCell>
        <mxCell id="BDm3REAGpp8tmRv-bOrY-99" value="&amp;lt;&amp;lt;control&amp;gt;&amp;gt;&lt;br&gt;&lt;u&gt;um1: UserManager&lt;/u&gt;" style="rounded=0;whiteSpace=wrap;html=1;" parent="1" vertex="1">
          <mxGeometry x="1304.5" y="890" width="120" height="40" as="geometry" />
        </mxCell>
        <mxCell id="BDm3REAGpp8tmRv-bOrY-100" value="&amp;lt;&amp;lt;entity&amp;gt;&amp;gt;&lt;br&gt;&lt;u&gt;u1: User&lt;/u&gt;" style="rounded=0;whiteSpace=wrap;html=1;" parent="1" vertex="1">
          <mxGeometry x="1027" y="890" width="120" height="40" as="geometry" />
        </mxCell>
        <mxCell id="BDm3REAGpp8tmRv-bOrY-101" style="edgeStyle=orthogonalEdgeStyle;rounded=0;orthogonalLoop=1;jettySize=auto;html=1;startArrow=none;startFill=0;endArrow=block;endFill=1;entryX=-0.005;entryY=0.818;entryDx=0;entryDy=0;entryPerimeter=0;" parent="1" target="BDm3REAGpp8tmRv-bOrY-96" edge="1">
          <mxGeometry relative="1" as="geometry">
            <mxPoint x="1066.0000000000002" y="832" as="sourcePoint" />
            <mxPoint x="1211" y="841" as="targetPoint" />
          </mxGeometry>
        </mxCell>
        <mxCell id="BDm3REAGpp8tmRv-bOrY-102" value="&lt;span style=&quot;font-size: 8px;&quot;&gt;2. changeDetails(details)[User changes profile info]&lt;/span&gt;" style="edgeLabel;html=1;align=center;verticalAlign=middle;resizable=0;points=[];" parent="BDm3REAGpp8tmRv-bOrY-101" vertex="1" connectable="0">
          <mxGeometry x="-0.3263" y="-1" relative="1" as="geometry">
            <mxPoint x="38" y="-2" as="offset" />
          </mxGeometry>
        </mxCell>
        <mxCell id="BDm3REAGpp8tmRv-bOrY-103" style="edgeStyle=orthogonalEdgeStyle;rounded=0;orthogonalLoop=1;jettySize=auto;html=1;entryX=1;entryY=0.5;entryDx=0;entryDy=0;fontSize=8;startArrow=none;startFill=0;endArrow=block;endFill=1;exitX=0.913;exitY=0;exitDx=0;exitDy=0;exitPerimeter=0;" parent="1" source="BDm3REAGpp8tmRv-bOrY-96" edge="1">
          <mxGeometry x="0.3656" y="429" relative="1" as="geometry">
            <mxPoint x="1424.501" y="787.0030000000002" as="sourcePoint" />
            <mxPoint x="1425.2599999999995" y="810.8400000000001" as="targetPoint" />
            <Array as="points">
              <mxPoint x="1413.9999999999998" y="792" />
              <mxPoint x="1444.9999999999998" y="792" />
              <mxPoint x="1444.9999999999998" y="811" />
              <mxPoint x="1424.9999999999998" y="811" />
            </Array>
            <mxPoint as="offset" />
          </mxGeometry>
        </mxCell>
        <mxCell id="BDm3REAGpp8tmRv-bOrY-104" value="1.1. displayProfile()" style="edgeLabel;html=1;align=center;verticalAlign=middle;resizable=0;points=[];fontSize=8;" parent="BDm3REAGpp8tmRv-bOrY-103" vertex="1" connectable="0">
          <mxGeometry x="-0.0543" relative="1" as="geometry">
            <mxPoint x="19" y="8" as="offset" />
          </mxGeometry>
        </mxCell>
        <mxCell id="BDm3REAGpp8tmRv-bOrY-105" style="edgeStyle=orthogonalEdgeStyle;rounded=0;orthogonalLoop=1;jettySize=auto;html=1;fontSize=8;startArrow=none;startFill=0;endArrow=block;endFill=1;exitX=0.967;exitY=0.379;exitDx=0;exitDy=0;exitPerimeter=0;entryX=0.959;entryY=1.004;entryDx=0;entryDy=0;entryPerimeter=0;" parent="1" target="BDm3REAGpp8tmRv-bOrY-96" edge="1">
          <mxGeometry relative="1" as="geometry">
            <mxPoint x="1424.501" y="829.6930000000002" as="sourcePoint" />
            <mxPoint x="1427.9999999999998" y="843" as="targetPoint" />
            <Array as="points">
              <mxPoint x="1436.9999999999998" y="830" />
              <mxPoint x="1436.9999999999998" y="853" />
              <mxPoint x="1419.9999999999998" y="853" />
            </Array>
          </mxGeometry>
        </mxCell>
        <mxCell id="BDm3REAGpp8tmRv-bOrY-106" value="2.2. displayHome()" style="edgeLabel;html=1;align=center;verticalAlign=middle;resizable=0;points=[];fontSize=8;" parent="BDm3REAGpp8tmRv-bOrY-105" vertex="1" connectable="0">
          <mxGeometry x="-0.0543" relative="1" as="geometry">
            <mxPoint x="25" y="-7" as="offset" />
          </mxGeometry>
        </mxCell>
        <mxCell id="BDm3REAGpp8tmRv-bOrY-111" value="User" style="shape=umlActor;verticalLabelPosition=bottom;verticalAlign=top;html=1;outlineConnect=0;" parent="1" vertex="1">
          <mxGeometry x="982.94" y="1044.1000000000001" width="30" height="60" as="geometry" />
        </mxCell>
        <mxCell id="BDm3REAGpp8tmRv-bOrY-112" value="&amp;lt;&amp;lt;boundary&amp;gt;&amp;gt;&lt;br&gt;&lt;u&gt;ui1: AppGUI&lt;/u&gt;" style="rounded=0;whiteSpace=wrap;html=1;" parent="1" vertex="1">
          <mxGeometry x="1260.94" y="1067.1000000000001" width="120" height="39" as="geometry" />
        </mxCell>
        <mxCell id="BDm3REAGpp8tmRv-bOrY-113" style="edgeStyle=orthogonalEdgeStyle;rounded=0;orthogonalLoop=1;jettySize=auto;html=1;entryX=0.5;entryY=0;entryDx=0;entryDy=0;startArrow=none;startFill=0;endArrow=block;endFill=1;" parent="1" source="BDm3REAGpp8tmRv-bOrY-119" target="BDm3REAGpp8tmRv-bOrY-124" edge="1">
          <mxGeometry relative="1" as="geometry" />
        </mxCell>
        <mxCell id="BDm3REAGpp8tmRv-bOrY-114" value="&lt;span style=&quot;font-size: 8px;&quot;&gt;1.1.1. getQuizzes():&amp;nbsp;&lt;/span&gt;&lt;span style=&quot;font-size: 8px;&quot;&gt;quizzes&lt;/span&gt;" style="edgeLabel;html=1;align=center;verticalAlign=middle;resizable=0;points=[];" parent="BDm3REAGpp8tmRv-bOrY-113" vertex="1" connectable="0">
          <mxGeometry x="-0.2244" y="-2" relative="1" as="geometry">
            <mxPoint x="2" y="1" as="offset" />
          </mxGeometry>
        </mxCell>
        <mxCell id="BDm3REAGpp8tmRv-bOrY-117" style="edgeStyle=orthogonalEdgeStyle;rounded=0;orthogonalLoop=1;jettySize=auto;html=1;exitX=0.25;exitY=1;exitDx=0;exitDy=0;entryX=1;entryY=0.5;entryDx=0;entryDy=0;startArrow=none;startFill=0;endArrow=block;endFill=1;" parent="1" source="BDm3REAGpp8tmRv-bOrY-119" target="BDm3REAGpp8tmRv-bOrY-133" edge="1">
          <mxGeometry relative="1" as="geometry">
            <Array as="points">
              <mxPoint x="1291" y="1225" />
              <mxPoint x="1229" y="1225" />
              <mxPoint x="1229" y="1267" />
            </Array>
          </mxGeometry>
        </mxCell>
        <mxCell id="BDm3REAGpp8tmRv-bOrY-118" value="&lt;span style=&quot;font-size: 8px;&quot;&gt;4.1.1. markQuiz(answers): results&lt;/span&gt;" style="edgeLabel;html=1;align=center;verticalAlign=middle;resizable=0;points=[];" parent="BDm3REAGpp8tmRv-bOrY-117" vertex="1" connectable="0">
          <mxGeometry x="-0.204" relative="1" as="geometry">
            <mxPoint x="1" y="3" as="offset" />
          </mxGeometry>
        </mxCell>
        <mxCell id="pK_a_7zJMjS60tyyFLj3-26" style="edgeStyle=orthogonalEdgeStyle;rounded=0;orthogonalLoop=1;jettySize=auto;html=1;exitX=0;exitY=0.5;exitDx=0;exitDy=0;entryX=1;entryY=0.25;entryDx=0;entryDy=0;endArrow=block;endFill=1;" parent="1" source="BDm3REAGpp8tmRv-bOrY-119" target="BDm3REAGpp8tmRv-bOrY-133" edge="1">
          <mxGeometry relative="1" as="geometry">
            <Array as="points">
              <mxPoint x="1200" y="1195" />
              <mxPoint x="1200" y="1231" />
              <mxPoint x="1162" y="1231" />
              <mxPoint x="1162" y="1257" />
            </Array>
          </mxGeometry>
        </mxCell>
        <mxCell id="pK_a_7zJMjS60tyyFLj3-27" value="&lt;span style=&quot;border-color: var(--border-color); font-size: 8px;&quot;&gt;2.1.1. generateQuiz():&amp;nbsp;&lt;/span&gt;&lt;span style=&quot;border-color: var(--border-color); font-size: 8px;&quot;&gt;quiz&lt;/span&gt;" style="edgeLabel;html=1;align=center;verticalAlign=middle;resizable=0;points=[];" parent="pK_a_7zJMjS60tyyFLj3-26" vertex="1" connectable="0">
          <mxGeometry x="0.1315" y="-1" relative="1" as="geometry">
            <mxPoint x="21" y="-21" as="offset" />
          </mxGeometry>
        </mxCell>
        <mxCell id="BDm3REAGpp8tmRv-bOrY-119" value="&amp;lt;&amp;lt;control&amp;gt;&amp;gt;&lt;br&gt;&lt;u&gt;um1: UserManager&lt;/u&gt;" style="rounded=0;whiteSpace=wrap;html=1;" parent="1" vertex="1">
          <mxGeometry x="1260.94" y="1175.1000000000004" width="120" height="40" as="geometry" />
        </mxCell>
        <mxCell id="BDm3REAGpp8tmRv-bOrY-120" style="edgeStyle=orthogonalEdgeStyle;rounded=0;orthogonalLoop=1;jettySize=auto;html=1;exitX=0;exitY=0.5;exitDx=0;exitDy=0;entryX=1;entryY=0.75;entryDx=0;entryDy=0;startArrow=none;startFill=0;endArrow=block;endFill=1;" parent="1" source="BDm3REAGpp8tmRv-bOrY-124" target="BDm3REAGpp8tmRv-bOrY-133" edge="1">
          <mxGeometry relative="1" as="geometry" />
        </mxCell>
        <mxCell id="BDm3REAGpp8tmRv-bOrY-121" value="&lt;span style=&quot;font-size: 8px;&quot;&gt;1.1.1.1. getQuizzes(): quizzes&lt;/span&gt;" style="edgeLabel;html=1;align=center;verticalAlign=middle;resizable=0;points=[];" parent="BDm3REAGpp8tmRv-bOrY-120" vertex="1" connectable="0">
          <mxGeometry x="0.1661" relative="1" as="geometry">
            <mxPoint x="10" y="-1" as="offset" />
          </mxGeometry>
        </mxCell>
        <mxCell id="BDm3REAGpp8tmRv-bOrY-124" value="&amp;lt;&amp;lt;entity&amp;gt;&amp;gt;&lt;br&gt;&lt;u&gt;u1: User&lt;/u&gt;" style="rounded=0;whiteSpace=wrap;html=1;" parent="1" vertex="1">
          <mxGeometry x="1260.94" y="1258.1000000000004" width="120" height="40" as="geometry" />
        </mxCell>
        <mxCell id="BDm3REAGpp8tmRv-bOrY-125" style="edgeStyle=orthogonalEdgeStyle;rounded=0;orthogonalLoop=1;jettySize=auto;html=1;entryX=0.5;entryY=1;entryDx=0;entryDy=0;startArrow=none;startFill=0;endArrow=block;endFill=1;" parent="1" source="BDm3REAGpp8tmRv-bOrY-133" target="BDm3REAGpp8tmRv-bOrY-136" edge="1">
          <mxGeometry relative="1" as="geometry" />
        </mxCell>
        <mxCell id="BDm3REAGpp8tmRv-bOrY-126" value="&lt;span style=&quot;font-size: 8px;&quot;&gt;2.1.1.1. generateQuiz(): quiz&lt;/span&gt;" style="edgeLabel;html=1;align=center;verticalAlign=middle;resizable=0;points=[];" parent="BDm3REAGpp8tmRv-bOrY-125" vertex="1" connectable="0">
          <mxGeometry x="-0.2489" relative="1" as="geometry">
            <mxPoint y="-4" as="offset" />
          </mxGeometry>
        </mxCell>
        <mxCell id="BDm3REAGpp8tmRv-bOrY-133" value="&amp;lt;&amp;lt;entity&amp;gt;&amp;gt;&lt;br&gt;&lt;u&gt;q1: Quizzes&lt;/u&gt;" style="rounded=0;whiteSpace=wrap;html=1;" parent="1" vertex="1">
          <mxGeometry x="994" y="1247.0000000000005" width="120" height="40" as="geometry" />
        </mxCell>
        <mxCell id="BDm3REAGpp8tmRv-bOrY-136" value="&amp;lt;&amp;lt;control&amp;gt;&amp;gt;&lt;br&gt;&lt;u&gt;qm1: QuizManager&lt;/u&gt;" style="rounded=0;whiteSpace=wrap;html=1;" parent="1" vertex="1">
          <mxGeometry x="994" y="1161.0000000000005" width="120" height="40" as="geometry" />
        </mxCell>
        <mxCell id="BDm3REAGpp8tmRv-bOrY-137" style="edgeStyle=orthogonalEdgeStyle;rounded=0;orthogonalLoop=1;jettySize=auto;html=1;startArrow=none;startFill=0;endArrow=block;endFill=1;entryX=-0.005;entryY=0.818;entryDx=0;entryDy=0;entryPerimeter=0;" parent="1" edge="1">
          <mxGeometry relative="1" as="geometry">
            <mxPoint x="1023.0100000000006" y="1069.37" as="sourcePoint" />
            <mxPoint x="1260.9100000000003" y="1070.0900000000006" as="targetPoint" />
            <Array as="points">
              <mxPoint x="1141.94" y="1069.1000000000001" />
              <mxPoint x="1260.94" y="1070.1000000000001" />
            </Array>
          </mxGeometry>
        </mxCell>
        <mxCell id="BDm3REAGpp8tmRv-bOrY-138" value="&lt;span style=&quot;font-size: 8px;&quot;&gt;1. clickViewQuizzes()&lt;/span&gt;" style="edgeLabel;html=1;align=center;verticalAlign=middle;resizable=0;points=[];" parent="BDm3REAGpp8tmRv-bOrY-137" vertex="1" connectable="0">
          <mxGeometry x="-0.3263" y="-1" relative="1" as="geometry">
            <mxPoint x="45" y="-4" as="offset" />
          </mxGeometry>
        </mxCell>
        <mxCell id="BDm3REAGpp8tmRv-bOrY-139" style="edgeStyle=orthogonalEdgeStyle;rounded=0;orthogonalLoop=1;jettySize=auto;html=1;startArrow=none;startFill=0;endArrow=block;endFill=1;entryX=-0.005;entryY=0.818;entryDx=0;entryDy=0;entryPerimeter=0;" parent="1" edge="1">
          <mxGeometry relative="1" as="geometry">
            <mxPoint x="1023.0399999999994" y="1080.37" as="sourcePoint" />
            <mxPoint x="1260.9400000000005" y="1081.0899999999997" as="targetPoint" />
            <Array as="points">
              <mxPoint x="1141.97" y="1080.1000000000004" />
              <mxPoint x="1260.97" y="1081.1000000000004" />
            </Array>
          </mxGeometry>
        </mxCell>
        <mxCell id="BDm3REAGpp8tmRv-bOrY-140" value="&lt;span style=&quot;font-size: 8px;&quot;&gt;2. clickTakeQuiz()[User takes quiz]&lt;/span&gt;" style="edgeLabel;html=1;align=center;verticalAlign=middle;resizable=0;points=[];" parent="BDm3REAGpp8tmRv-bOrY-139" vertex="1" connectable="0">
          <mxGeometry x="-0.3263" y="-1" relative="1" as="geometry">
            <mxPoint x="45" y="-3" as="offset" />
          </mxGeometry>
        </mxCell>
        <mxCell id="BDm3REAGpp8tmRv-bOrY-141" style="edgeStyle=orthogonalEdgeStyle;rounded=0;orthogonalLoop=1;jettySize=auto;html=1;startArrow=none;startFill=0;endArrow=block;endFill=1;entryX=-0.005;entryY=0.818;entryDx=0;entryDy=0;entryPerimeter=0;" parent="1" edge="1">
          <mxGeometry relative="1" as="geometry">
            <mxPoint x="1023.0399999999994" y="1091.1000000000004" as="sourcePoint" />
            <mxPoint x="1260.94" y="1091.8199999999997" as="targetPoint" />
            <Array as="points">
              <mxPoint x="1141.97" y="1090.83" />
              <mxPoint x="1260.97" y="1091.83" />
            </Array>
          </mxGeometry>
        </mxCell>
        <mxCell id="BDm3REAGpp8tmRv-bOrY-142" value="&lt;span style=&quot;font-size: 8px;&quot;&gt;3. clickAnswer(answer)*[for each question]&lt;/span&gt;" style="edgeLabel;html=1;align=center;verticalAlign=middle;resizable=0;points=[];" parent="BDm3REAGpp8tmRv-bOrY-141" vertex="1" connectable="0">
          <mxGeometry x="-0.3263" y="-1" relative="1" as="geometry">
            <mxPoint x="45" y="-2" as="offset" />
          </mxGeometry>
        </mxCell>
        <mxCell id="BDm3REAGpp8tmRv-bOrY-143" style="edgeStyle=orthogonalEdgeStyle;rounded=0;orthogonalLoop=1;jettySize=auto;html=1;startArrow=none;startFill=0;endArrow=block;endFill=1;entryX=-0.005;entryY=0.818;entryDx=0;entryDy=0;entryPerimeter=0;" parent="1" edge="1">
          <mxGeometry relative="1" as="geometry">
            <mxPoint x="1023.0399999999994" y="1102.1000000000008" as="sourcePoint" />
            <mxPoint x="1260.94" y="1102.8199999999997" as="targetPoint" />
            <Array as="points">
              <mxPoint x="1141.97" y="1101.83" />
              <mxPoint x="1260.97" y="1102.83" />
            </Array>
          </mxGeometry>
        </mxCell>
        <mxCell id="BDm3REAGpp8tmRv-bOrY-144" value="&lt;span style=&quot;font-size: 8px;&quot;&gt;4. clickMarkQuiz(answers)[User takes quiz]&lt;/span&gt;" style="edgeLabel;html=1;align=center;verticalAlign=middle;resizable=0;points=[];" parent="BDm3REAGpp8tmRv-bOrY-143" vertex="1" connectable="0">
          <mxGeometry x="-0.3263" y="-1" relative="1" as="geometry">
            <mxPoint x="45" y="-1" as="offset" />
          </mxGeometry>
        </mxCell>
        <mxCell id="BDm3REAGpp8tmRv-bOrY-145" style="edgeStyle=orthogonalEdgeStyle;rounded=0;orthogonalLoop=1;jettySize=auto;html=1;entryX=1;entryY=0.5;entryDx=0;entryDy=0;fontSize=8;startArrow=none;startFill=0;endArrow=block;endFill=1;exitX=0.913;exitY=0;exitDx=0;exitDy=0;exitPerimeter=0;" parent="1" edge="1">
          <mxGeometry x="0.3656" y="429" relative="1" as="geometry">
            <mxPoint x="1370.69" y="1067.1000000000008" as="sourcePoint" />
            <mxPoint x="1381.8899999999999" y="1077.9400000000005" as="targetPoint" />
            <Array as="points">
              <mxPoint x="1370.63" y="1059.1000000000001" />
              <mxPoint x="1401.63" y="1059.1000000000001" />
              <mxPoint x="1401.63" y="1078.1000000000004" />
              <mxPoint x="1381.63" y="1078.1000000000004" />
            </Array>
            <mxPoint as="offset" />
          </mxGeometry>
        </mxCell>
        <mxCell id="BDm3REAGpp8tmRv-bOrY-146" value="3.1. addToAnswers(answer)" style="edgeLabel;html=1;align=center;verticalAlign=middle;resizable=0;points=[];fontSize=8;" parent="BDm3REAGpp8tmRv-bOrY-145" vertex="1" connectable="0">
          <mxGeometry x="-0.0543" relative="1" as="geometry">
            <mxPoint x="42" y="8" as="offset" />
          </mxGeometry>
        </mxCell>
        <mxCell id="BDm3REAGpp8tmRv-bOrY-147" style="edgeStyle=orthogonalEdgeStyle;rounded=0;orthogonalLoop=1;jettySize=auto;html=1;fontSize=8;startArrow=none;startFill=0;endArrow=block;endFill=1;exitX=0.967;exitY=0.379;exitDx=0;exitDy=0;exitPerimeter=0;entryX=1.005;entryY=0.919;entryDx=0;entryDy=0;entryPerimeter=0;" parent="1" target="BDm3REAGpp8tmRv-bOrY-112" edge="1">
          <mxGeometry relative="1" as="geometry">
            <mxPoint x="1380.1410000000005" y="1084.5430000000006" as="sourcePoint" />
            <mxPoint x="1389.92" y="1106.54" as="targetPoint" />
            <Array as="points">
              <mxPoint x="1403.92" y="1084.54" />
              <mxPoint x="1403.92" y="1102.54" />
              <mxPoint x="1389.92" y="1102.54" />
            </Array>
          </mxGeometry>
        </mxCell>
        <mxCell id="BDm3REAGpp8tmRv-bOrY-148" value="4.2. displayQuizResults()" style="edgeLabel;html=1;align=center;verticalAlign=middle;resizable=0;points=[];fontSize=8;" parent="BDm3REAGpp8tmRv-bOrY-147" vertex="1" connectable="0">
          <mxGeometry x="-0.0543" relative="1" as="geometry">
            <mxPoint x="32" y="1" as="offset" />
          </mxGeometry>
        </mxCell>
        <mxCell id="BDm3REAGpp8tmRv-bOrY-149" style="edgeStyle=orthogonalEdgeStyle;rounded=0;orthogonalLoop=1;jettySize=auto;html=1;entryX=0.642;entryY=0.028;entryDx=0;entryDy=0;fontSize=8;startArrow=none;startFill=0;endArrow=block;endFill=1;entryPerimeter=0;" parent="1" edge="1">
          <mxGeometry x="0.3656" y="429" relative="1" as="geometry">
            <mxPoint x="1326.94" y="1067.1000000000008" as="sourcePoint" />
            <mxPoint x="1347.96" y="1067.192" as="targetPoint" />
            <Array as="points">
              <mxPoint x="1326.94" y="1067.1000000000001" />
              <mxPoint x="1326.94" y="1042.1000000000001" />
              <mxPoint x="1347.94" y="1042.1000000000001" />
            </Array>
            <mxPoint as="offset" />
          </mxGeometry>
        </mxCell>
        <mxCell id="BDm3REAGpp8tmRv-bOrY-150" value="2.2. displayQuestion()" style="edgeLabel;html=1;align=center;verticalAlign=middle;resizable=0;points=[];fontSize=8;" parent="BDm3REAGpp8tmRv-bOrY-149" vertex="1" connectable="0">
          <mxGeometry x="-0.0543" relative="1" as="geometry">
            <mxPoint x="34" y="7" as="offset" />
          </mxGeometry>
        </mxCell>
        <mxCell id="BDm3REAGpp8tmRv-bOrY-151" style="edgeStyle=orthogonalEdgeStyle;rounded=0;orthogonalLoop=1;jettySize=auto;html=1;entryX=0.642;entryY=0.028;entryDx=0;entryDy=0;fontSize=8;startArrow=none;startFill=0;endArrow=block;endFill=1;entryPerimeter=0;" parent="1" edge="1">
          <mxGeometry x="0.3656" y="429" relative="1" as="geometry">
            <mxPoint x="1281.4400000000005" y="1067.0100000000007" as="sourcePoint" />
            <mxPoint x="1302.4599999999996" y="1067.1019999999999" as="targetPoint" />
            <Array as="points">
              <mxPoint x="1281.44" y="1067.0100000000002" />
              <mxPoint x="1281.44" y="1042.0100000000002" />
              <mxPoint x="1302.44" y="1042.0100000000002" />
            </Array>
            <mxPoint as="offset" />
          </mxGeometry>
        </mxCell>
        <mxCell id="BDm3REAGpp8tmRv-bOrY-152" value="1.2. displayQuizzes()" style="edgeLabel;html=1;align=center;verticalAlign=middle;resizable=0;points=[];fontSize=8;" parent="BDm3REAGpp8tmRv-bOrY-151" vertex="1" connectable="0">
          <mxGeometry x="-0.0543" relative="1" as="geometry">
            <mxPoint x="-10" y="6" as="offset" />
          </mxGeometry>
        </mxCell>
        <mxCell id="BDm3REAGpp8tmRv-bOrY-153" value="User" style="shape=umlActor;verticalLabelPosition=bottom;verticalAlign=top;html=1;outlineConnect=0;" parent="1" vertex="1">
          <mxGeometry x="1034.42" y="1426.79" width="30" height="60" as="geometry" />
        </mxCell>
        <mxCell id="BDm3REAGpp8tmRv-bOrY-154" value="&amp;lt;&amp;lt;boundary&amp;gt;&amp;gt;&lt;br&gt;&lt;u&gt;ui1: AppGUI&lt;/u&gt;" style="rounded=0;whiteSpace=wrap;html=1;" parent="1" vertex="1">
          <mxGeometry x="1312.42" y="1424.79" width="120" height="80" as="geometry" />
        </mxCell>
        <mxCell id="BDm3REAGpp8tmRv-bOrY-156" value="&amp;lt;&amp;lt;control&amp;gt;&amp;gt;&lt;br&gt;&lt;u&gt;um1: UserManager&lt;/u&gt;" style="rounded=0;whiteSpace=wrap;html=1;" parent="1" vertex="1">
          <mxGeometry x="1312.42" y="1577.54" width="120" height="69.46" as="geometry" />
        </mxCell>
        <mxCell id="BDm3REAGpp8tmRv-bOrY-157" value="&amp;lt;&amp;lt;entity&amp;gt;&amp;gt;&lt;br&gt;&lt;u&gt;u1: User&lt;/u&gt;" style="rounded=0;whiteSpace=wrap;html=1;" parent="1" vertex="1">
          <mxGeometry x="981.38" y="1580" width="120" height="58" as="geometry" />
        </mxCell>
        <mxCell id="BDm3REAGpp8tmRv-bOrY-158" style="edgeStyle=orthogonalEdgeStyle;rounded=0;orthogonalLoop=1;jettySize=auto;html=1;entryX=0;entryY=0.5;entryDx=0;entryDy=0;endArrow=block;endFill=1;" parent="1" source="BDm3REAGpp8tmRv-bOrY-169" target="BDm3REAGpp8tmRv-bOrY-176" edge="1">
          <mxGeometry relative="1" as="geometry" />
        </mxCell>
        <mxCell id="BDm3REAGpp8tmRv-bOrY-159" value="&lt;span style=&quot;font-size: 8px;&quot;&gt;3.1.1.1.1. edit&lt;/span&gt;&lt;span style=&quot;font-size: 8px;&quot;&gt;Exercise&lt;/span&gt;&lt;span style=&quot;font-size: 8px;&quot;&gt;Item(details): updatedItem&lt;/span&gt;" style="edgeLabel;html=1;align=center;verticalAlign=middle;resizable=0;points=[];" parent="BDm3REAGpp8tmRv-bOrY-158" vertex="1" connectable="0">
          <mxGeometry x="-0.0495" y="-1" relative="1" as="geometry">
            <mxPoint x="4" y="-1" as="offset" />
          </mxGeometry>
        </mxCell>
        <mxCell id="BDm3REAGpp8tmRv-bOrY-160" style="edgeStyle=orthogonalEdgeStyle;rounded=0;orthogonalLoop=1;jettySize=auto;html=1;entryX=0;entryY=0.75;entryDx=0;entryDy=0;exitX=1;exitY=0.75;exitDx=0;exitDy=0;endArrow=block;endFill=1;" parent="1" source="BDm3REAGpp8tmRv-bOrY-169" target="BDm3REAGpp8tmRv-bOrY-176" edge="1">
          <mxGeometry relative="1" as="geometry" />
        </mxCell>
        <mxCell id="BDm3REAGpp8tmRv-bOrY-161" value="&lt;span style=&quot;font-size: 8px;&quot;&gt;4.1.1.1.1. remove&lt;/span&gt;&lt;span style=&quot;font-size: 8px;&quot;&gt;Exercise&lt;/span&gt;&lt;span style=&quot;font-size: 8px;&quot;&gt;Item(details): isRemoved&lt;/span&gt;" style="edgeLabel;html=1;align=center;verticalAlign=middle;resizable=0;points=[];" parent="BDm3REAGpp8tmRv-bOrY-160" vertex="1" connectable="0">
          <mxGeometry x="-0.137" relative="1" as="geometry">
            <mxPoint x="9" y="1" as="offset" />
          </mxGeometry>
        </mxCell>
        <mxCell id="BDm3REAGpp8tmRv-bOrY-162" style="edgeStyle=orthogonalEdgeStyle;rounded=0;orthogonalLoop=1;jettySize=auto;html=1;entryX=0;entryY=0.25;entryDx=0;entryDy=0;exitX=1;exitY=0.25;exitDx=0;exitDy=0;endArrow=block;endFill=1;" parent="1" source="BDm3REAGpp8tmRv-bOrY-169" target="BDm3REAGpp8tmRv-bOrY-176" edge="1">
          <mxGeometry relative="1" as="geometry" />
        </mxCell>
        <mxCell id="BDm3REAGpp8tmRv-bOrY-163" value="&lt;span style=&quot;font-size: 8px;&quot;&gt;2.1.1.1.1.&amp;nbsp;&lt;/span&gt;&lt;span style=&quot;font-size: 8px;&quot;&gt;create newItem: newItem&lt;/span&gt;" style="edgeLabel;html=1;align=center;verticalAlign=middle;resizable=0;points=[];" parent="BDm3REAGpp8tmRv-bOrY-162" vertex="1" connectable="0">
          <mxGeometry x="-0.099" relative="1" as="geometry">
            <mxPoint x="9" y="-1" as="offset" />
          </mxGeometry>
        </mxCell>
        <mxCell id="BDm3REAGpp8tmRv-bOrY-169" value="&amp;lt;&amp;lt;entity&amp;gt;&amp;gt;&lt;br&gt;&lt;u&gt;t1: Tracker&lt;/u&gt;" style="rounded=0;whiteSpace=wrap;html=1;" parent="1" vertex="1">
          <mxGeometry x="984.0400000000001" y="1707.17" width="120" height="40" as="geometry" />
        </mxCell>
        <mxCell id="BDm3REAGpp8tmRv-bOrY-176" value="&amp;lt;&amp;lt;entity&amp;gt;&amp;gt;&lt;br&gt;&lt;u&gt;e1: Exercise&lt;/u&gt;" style="rounded=0;whiteSpace=wrap;html=1;" parent="1" vertex="1">
          <mxGeometry x="1312.5400000000002" y="1707" width="120" height="40" as="geometry" />
        </mxCell>
        <mxCell id="BDm3REAGpp8tmRv-bOrY-177" style="edgeStyle=orthogonalEdgeStyle;rounded=0;orthogonalLoop=1;jettySize=auto;html=1;startArrow=none;startFill=0;endArrow=block;endFill=1;entryX=-0.005;entryY=0.818;entryDx=0;entryDy=0;entryPerimeter=0;" parent="1" edge="1">
          <mxGeometry relative="1" as="geometry">
            <mxPoint x="1074.4899999999998" y="1453.0600000000004" as="sourcePoint" />
            <mxPoint x="1312.3900000000003" y="1453.7800000000002" as="targetPoint" />
            <Array as="points">
              <mxPoint x="1193.42" y="1452.79" />
              <mxPoint x="1312.42" y="1453.79" />
            </Array>
          </mxGeometry>
        </mxCell>
        <mxCell id="BDm3REAGpp8tmRv-bOrY-178" value="&lt;span style=&quot;font-size: 8px;&quot;&gt;2.&amp;nbsp;&lt;/span&gt;&lt;span style=&quot;font-size: 8px;&quot;&gt;addExerciseItem(details)[User adds e&lt;/span&gt;&lt;span style=&quot;font-size: 8px;&quot;&gt;xercise&amp;nbsp;&lt;/span&gt;&lt;span style=&quot;font-size: 8px;&quot;&gt;item]&lt;/span&gt;" style="edgeLabel;html=1;align=center;verticalAlign=middle;resizable=0;points=[];" parent="BDm3REAGpp8tmRv-bOrY-177" vertex="1" connectable="0">
          <mxGeometry x="-0.3263" y="-1" relative="1" as="geometry">
            <mxPoint x="34" y="-3" as="offset" />
          </mxGeometry>
        </mxCell>
        <mxCell id="BDm3REAGpp8tmRv-bOrY-179" style="edgeStyle=orthogonalEdgeStyle;rounded=0;orthogonalLoop=1;jettySize=auto;html=1;startArrow=none;startFill=0;endArrow=block;endFill=1;entryX=-0.005;entryY=0.818;entryDx=0;entryDy=0;entryPerimeter=0;" parent="1" edge="1">
          <mxGeometry relative="1" as="geometry">
            <mxPoint x="1074.5199999999995" y="1470.7900000000004" as="sourcePoint" />
            <mxPoint x="1312.42" y="1471.5099999999984" as="targetPoint" />
            <Array as="points">
              <mxPoint x="1193.4499999999998" y="1470.52" />
              <mxPoint x="1312.4499999999998" y="1471.52" />
            </Array>
          </mxGeometry>
        </mxCell>
        <mxCell id="BDm3REAGpp8tmRv-bOrY-180" value="&lt;span style=&quot;font-size: 8px;&quot;&gt;3.&amp;nbsp;&lt;/span&gt;&lt;span style=&quot;font-size: 8px;&quot;&gt;edit&lt;/span&gt;&lt;span style=&quot;font-size: 8px;&quot;&gt;Exercise&lt;/span&gt;&lt;span style=&quot;font-size: 8px;&quot;&gt;Item(details)[User edits e&lt;/span&gt;&lt;span style=&quot;font-size: 8px;&quot;&gt;xercise&amp;nbsp;&lt;/span&gt;&lt;span style=&quot;font-size: 8px;&quot;&gt;item]&lt;/span&gt;" style="edgeLabel;html=1;align=center;verticalAlign=middle;resizable=0;points=[];" parent="BDm3REAGpp8tmRv-bOrY-179" vertex="1" connectable="0">
          <mxGeometry x="-0.3263" y="-1" relative="1" as="geometry">
            <mxPoint x="34" y="-3" as="offset" />
          </mxGeometry>
        </mxCell>
        <mxCell id="BDm3REAGpp8tmRv-bOrY-181" style="edgeStyle=orthogonalEdgeStyle;rounded=0;orthogonalLoop=1;jettySize=auto;html=1;entryX=0.868;entryY=0;entryDx=0;entryDy=0;fontSize=8;startArrow=none;startFill=0;endArrow=block;endFill=1;exitX=0.913;exitY=0;exitDx=0;exitDy=0;exitPerimeter=0;entryPerimeter=0;" parent="1" edge="1">
          <mxGeometry x="0.3656" y="429" relative="1" as="geometry">
            <mxPoint x="1387.3899999999999" y="1424.6800000000003" as="sourcePoint" />
            <mxPoint x="1410.18" y="1424.79" as="targetPoint" />
            <Array as="points">
              <mxPoint x="1387.6" y="1402" />
              <mxPoint x="1410.6" y="1402" />
              <mxPoint x="1410.6" y="1417" />
              <mxPoint x="1410.6" y="1417" />
            </Array>
            <mxPoint as="offset" />
          </mxGeometry>
        </mxCell>
        <mxCell id="BDm3REAGpp8tmRv-bOrY-182" value="2.2. displayTracker()" style="edgeLabel;html=1;align=center;verticalAlign=middle;resizable=0;points=[];fontSize=8;" parent="BDm3REAGpp8tmRv-bOrY-181" vertex="1" connectable="0">
          <mxGeometry x="-0.0543" relative="1" as="geometry">
            <mxPoint x="29" y="8" as="offset" />
          </mxGeometry>
        </mxCell>
        <mxCell id="BDm3REAGpp8tmRv-bOrY-183" style="edgeStyle=orthogonalEdgeStyle;rounded=0;orthogonalLoop=1;jettySize=auto;html=1;startArrow=none;startFill=0;endArrow=block;endFill=1;entryX=-0.005;entryY=0.818;entryDx=0;entryDy=0;entryPerimeter=0;" parent="1" edge="1">
          <mxGeometry relative="1" as="geometry">
            <mxPoint x="1074.5199999999995" y="1490.7900000000004" as="sourcePoint" />
            <mxPoint x="1312.42" y="1491.5099999999984" as="targetPoint" />
            <Array as="points">
              <mxPoint x="1193.4499999999998" y="1490.52" />
              <mxPoint x="1312.4499999999998" y="1491.52" />
            </Array>
          </mxGeometry>
        </mxCell>
        <mxCell id="BDm3REAGpp8tmRv-bOrY-184" value="&lt;span style=&quot;font-size: 8px;&quot;&gt;4.&amp;nbsp;&lt;/span&gt;&lt;span style=&quot;font-size: 8px;&quot;&gt;remove&lt;/span&gt;&lt;span style=&quot;font-size: 8px;&quot;&gt;Exercise&lt;/span&gt;&lt;span style=&quot;font-size: 8px;&quot;&gt;Item(details)[User removes e&lt;/span&gt;&lt;span style=&quot;font-size: 8px;&quot;&gt;xercise&amp;nbsp;&lt;/span&gt;&lt;span style=&quot;font-size: 8px;&quot;&gt;item]&lt;/span&gt;" style="edgeLabel;html=1;align=center;verticalAlign=middle;resizable=0;points=[];" parent="BDm3REAGpp8tmRv-bOrY-183" vertex="1" connectable="0">
          <mxGeometry x="-0.3263" y="-1" relative="1" as="geometry">
            <mxPoint x="34" y="-2" as="offset" />
          </mxGeometry>
        </mxCell>
        <mxCell id="BDm3REAGpp8tmRv-bOrY-185" style="edgeStyle=orthogonalEdgeStyle;rounded=0;orthogonalLoop=1;jettySize=auto;html=1;startArrow=none;startFill=0;endArrow=block;endFill=1;entryX=-0.005;entryY=0.818;entryDx=0;entryDy=0;entryPerimeter=0;" parent="1" edge="1">
          <mxGeometry relative="1" as="geometry">
            <mxPoint x="1074.5199999999995" y="1437.79" as="sourcePoint" />
            <mxPoint x="1312.42" y="1438.5099999999989" as="targetPoint" />
            <Array as="points">
              <mxPoint x="1193.4499999999998" y="1437.52" />
              <mxPoint x="1312.4499999999998" y="1438.52" />
            </Array>
          </mxGeometry>
        </mxCell>
        <mxCell id="BDm3REAGpp8tmRv-bOrY-186" value="&lt;span style=&quot;font-size: 8px;&quot;&gt;1.&amp;nbsp;&lt;/span&gt;&lt;span style=&quot;font-size: 8px;&quot;&gt;clickViewTracker()&lt;/span&gt;" style="edgeLabel;html=1;align=center;verticalAlign=middle;resizable=0;points=[];" parent="BDm3REAGpp8tmRv-bOrY-185" vertex="1" connectable="0">
          <mxGeometry x="-0.3263" y="-1" relative="1" as="geometry">
            <mxPoint x="34" y="-2" as="offset" />
          </mxGeometry>
        </mxCell>
        <mxCell id="BDm3REAGpp8tmRv-bOrY-187" style="edgeStyle=orthogonalEdgeStyle;rounded=0;orthogonalLoop=1;jettySize=auto;html=1;fontSize=8;startArrow=none;startFill=0;endArrow=block;endFill=1;entryX=1.013;entryY=0.176;entryDx=0;entryDy=0;entryPerimeter=0;" parent="1" edge="1">
          <mxGeometry relative="1" as="geometry">
            <mxPoint x="1433.39" y="1459" as="sourcePoint" />
            <mxPoint x="1434.2800000000002" y="1475.5099999999998" as="targetPoint" />
            <Array as="points">
              <mxPoint x="1433.39" y="1459" />
              <mxPoint x="1450.39" y="1459" />
              <mxPoint x="1450.39" y="1476" />
            </Array>
          </mxGeometry>
        </mxCell>
        <mxCell id="BDm3REAGpp8tmRv-bOrY-188" value="4.2. displayTracker()" style="edgeLabel;html=1;align=center;verticalAlign=middle;resizable=0;points=[];fontSize=8;" parent="BDm3REAGpp8tmRv-bOrY-187" vertex="1" connectable="0">
          <mxGeometry x="-0.0543" relative="1" as="geometry">
            <mxPoint x="26" y="1" as="offset" />
          </mxGeometry>
        </mxCell>
        <mxCell id="BDm3REAGpp8tmRv-bOrY-191" style="edgeStyle=orthogonalEdgeStyle;rounded=0;orthogonalLoop=1;jettySize=auto;html=1;entryX=0.642;entryY=0.028;entryDx=0;entryDy=0;fontSize=8;startArrow=none;startFill=0;endArrow=block;endFill=1;entryPerimeter=0;" parent="1" edge="1">
          <mxGeometry x="0.3656" y="429" relative="1" as="geometry">
            <mxPoint x="1343.8999999999996" y="1424.6999999999998" as="sourcePoint" />
            <mxPoint x="1364.9200000000005" y="1424.7920000000008" as="targetPoint" />
            <Array as="points">
              <mxPoint x="1343.97" y="1401" />
              <mxPoint x="1364.97" y="1401" />
            </Array>
            <mxPoint as="offset" />
          </mxGeometry>
        </mxCell>
        <mxCell id="BDm3REAGpp8tmRv-bOrY-192" value="1.2. displayTracker()" style="edgeLabel;html=1;align=center;verticalAlign=middle;resizable=0;points=[];fontSize=8;" parent="BDm3REAGpp8tmRv-bOrY-191" vertex="1" connectable="0">
          <mxGeometry x="-0.0543" relative="1" as="geometry">
            <mxPoint x="-31" y="8" as="offset" />
          </mxGeometry>
        </mxCell>
        <mxCell id="BDm3REAGpp8tmRv-bOrY-193" value="" style="group" parent="1" vertex="1" connectable="0">
          <mxGeometry x="1207" y="1571" width="105.45" height="69" as="geometry" />
        </mxCell>
        <mxCell id="BDm3REAGpp8tmRv-bOrY-194" style="edgeStyle=orthogonalEdgeStyle;rounded=0;orthogonalLoop=1;jettySize=auto;html=1;startArrow=block;startFill=1;endArrow=none;endFill=0;entryX=-0.005;entryY=0.818;entryDx=0;entryDy=0;entryPerimeter=0;endSize=6;fontSize=11;startSize=6;" parent="BDm3REAGpp8tmRv-bOrY-193" edge="1">
          <mxGeometry relative="1" as="geometry">
            <mxPoint x="-105.36140888851578" y="32.539999999999964" as="sourcePoint" />
            <mxPoint x="105.39684533311004" y="33.26000000000022" as="targetPoint" />
            <Array as="points">
              <mxPoint y="32.26999999999998" />
              <mxPoint x="105.42342266655487" y="33.26999999999998" />
            </Array>
          </mxGeometry>
        </mxCell>
        <mxCell id="BDm3REAGpp8tmRv-bOrY-195" value="&lt;span style=&quot;font-size: 8px;&quot;&gt;2.1.1. add&lt;/span&gt;&lt;span style=&quot;font-size: 8px;&quot;&gt;Exercise&lt;/span&gt;&lt;span style=&quot;font-size: 8px;&quot;&gt;Item(details):&amp;nbsp;&lt;/span&gt;&lt;span style=&quot;font-size: 8px;&quot;&gt;newItem&lt;/span&gt;" style="edgeLabel;html=1;align=center;verticalAlign=middle;resizable=0;points=[];" parent="BDm3REAGpp8tmRv-bOrY-194" vertex="1" connectable="0">
          <mxGeometry x="-0.3263" y="-1" relative="1" as="geometry">
            <mxPoint x="25" y="-2" as="offset" />
          </mxGeometry>
        </mxCell>
        <mxCell id="BDm3REAGpp8tmRv-bOrY-196" style="edgeStyle=orthogonalEdgeStyle;rounded=0;orthogonalLoop=1;jettySize=auto;html=1;startArrow=block;startFill=1;endArrow=none;endFill=0;entryX=-0.005;entryY=0.818;entryDx=0;entryDy=0;entryPerimeter=0;endSize=6;fontSize=11;startSize=6;" parent="BDm3REAGpp8tmRv-bOrY-193" edge="1">
          <mxGeometry relative="1" as="geometry">
            <mxPoint x="-105.33483155507062" y="49.26999999999998" as="sourcePoint" />
            <mxPoint x="105.42342266655487" y="49.98999999999978" as="targetPoint" />
            <Array as="points">
              <mxPoint x="0.026577333445452836" y="49" />
              <mxPoint x="105.45000000000002" y="50" />
            </Array>
          </mxGeometry>
        </mxCell>
        <mxCell id="BDm3REAGpp8tmRv-bOrY-197" value="&lt;span style=&quot;font-size: 8px;&quot;&gt;3.1.1. edit&lt;/span&gt;&lt;span style=&quot;font-size: 8px;&quot;&gt;Exercise&lt;/span&gt;&lt;span style=&quot;font-size: 8px;&quot;&gt;Item(details):&amp;nbsp;&lt;/span&gt;&lt;span style=&quot;font-size: 8px;&quot;&gt;updatedItem&lt;/span&gt;" style="edgeLabel;html=1;align=center;verticalAlign=middle;resizable=0;points=[];" parent="BDm3REAGpp8tmRv-bOrY-196" vertex="1" connectable="0">
          <mxGeometry x="-0.3263" y="-1" relative="1" as="geometry">
            <mxPoint x="25" y="-3" as="offset" />
          </mxGeometry>
        </mxCell>
        <mxCell id="BDm3REAGpp8tmRv-bOrY-198" style="edgeStyle=orthogonalEdgeStyle;rounded=0;orthogonalLoop=1;jettySize=auto;html=1;startArrow=block;startFill=1;endArrow=none;endFill=0;entryX=-0.005;entryY=0.818;entryDx=0;entryDy=0;entryPerimeter=0;endSize=6;fontSize=11;startSize=6;" parent="BDm3REAGpp8tmRv-bOrY-193" edge="1">
          <mxGeometry relative="1" as="geometry">
            <mxPoint x="-105.33483155507062" y="63.26999999999998" as="sourcePoint" />
            <mxPoint x="105.42342266655487" y="63.98999999999978" as="targetPoint" />
            <Array as="points">
              <mxPoint x="0.026577333445452836" y="63" />
              <mxPoint x="105.45000000000002" y="64" />
            </Array>
          </mxGeometry>
        </mxCell>
        <mxCell id="BDm3REAGpp8tmRv-bOrY-199" value="&lt;span style=&quot;font-size: 8px;&quot;&gt;4.1.1. remove&lt;/span&gt;&lt;span style=&quot;font-size: 8px;&quot;&gt;Exercise&lt;/span&gt;&lt;span style=&quot;font-size: 8px;&quot;&gt;Item(details):&amp;nbsp;&lt;/span&gt;&lt;span style=&quot;font-size: 8px;&quot;&gt;isRemoved&lt;/span&gt;" style="edgeLabel;html=1;align=center;verticalAlign=middle;resizable=0;points=[];" parent="BDm3REAGpp8tmRv-bOrY-198" vertex="1" connectable="0">
          <mxGeometry x="-0.3263" y="-1" relative="1" as="geometry">
            <mxPoint x="25" y="-2" as="offset" />
          </mxGeometry>
        </mxCell>
        <mxCell id="BDm3REAGpp8tmRv-bOrY-200" style="edgeStyle=orthogonalEdgeStyle;rounded=0;orthogonalLoop=1;jettySize=auto;html=1;startArrow=block;startFill=1;endArrow=none;endFill=0;entryX=-0.005;entryY=0.818;entryDx=0;entryDy=0;entryPerimeter=0;endSize=6;fontSize=11;startSize=6;" parent="BDm3REAGpp8tmRv-bOrY-193" edge="1">
          <mxGeometry relative="1" as="geometry">
            <mxPoint x="-105.33483155507062" y="16.269999999999982" as="sourcePoint" />
            <mxPoint x="105.42342266655487" y="16.98999999999978" as="targetPoint" />
            <Array as="points">
              <mxPoint x="0.026577333445452836" y="16" />
              <mxPoint x="105.45000000000002" y="17" />
            </Array>
          </mxGeometry>
        </mxCell>
        <mxCell id="BDm3REAGpp8tmRv-bOrY-201" value="&lt;span style=&quot;font-size: 8px;&quot;&gt;1.1.1. getTracker():&amp;nbsp;&lt;/span&gt;&lt;span style=&quot;font-size: 8px;&quot;&gt;tracker&lt;/span&gt;" style="edgeLabel;html=1;align=center;verticalAlign=middle;resizable=0;points=[];" parent="BDm3REAGpp8tmRv-bOrY-200" vertex="1" connectable="0">
          <mxGeometry x="-0.3263" y="-1" relative="1" as="geometry">
            <mxPoint x="25" y="-2" as="offset" />
          </mxGeometry>
        </mxCell>
        <mxCell id="BDm3REAGpp8tmRv-bOrY-210" value="" style="group" parent="1" vertex="1" connectable="0">
          <mxGeometry x="1006.98" y="1638.48" width="75.79" height="68.69" as="geometry" />
        </mxCell>
        <mxCell id="BDm3REAGpp8tmRv-bOrY-211" style="edgeStyle=orthogonalEdgeStyle;rounded=0;orthogonalLoop=1;jettySize=auto;html=1;entryX=0.5;entryY=0;entryDx=0;entryDy=0;startArrow=none;startFill=0;endArrow=block;endFill=1;" parent="BDm3REAGpp8tmRv-bOrY-210" edge="1">
          <mxGeometry relative="1" as="geometry">
            <mxPoint x="50.84000000000018" as="sourcePoint" />
            <mxPoint x="50.84000000000018" y="68.69" as="targetPoint" />
          </mxGeometry>
        </mxCell>
        <mxCell id="BDm3REAGpp8tmRv-bOrY-212" style="edgeStyle=orthogonalEdgeStyle;rounded=0;orthogonalLoop=1;jettySize=auto;html=1;entryX=0.772;entryY=0.002;entryDx=0;entryDy=0;entryPerimeter=0;startArrow=none;startFill=0;endArrow=block;endFill=1;exitX=0.77;exitY=0.99;exitDx=0;exitDy=0;exitPerimeter=0;" parent="BDm3REAGpp8tmRv-bOrY-210" edge="1">
          <mxGeometry relative="1" as="geometry">
            <mxPoint x="76.0299999999998" y="-0.4778434782604349" as="sourcePoint" />
            <mxPoint x="76.2700000000005" y="68.78317947826137" as="targetPoint" />
            <Array as="points">
              <mxPoint x="75.79000000000002" y="16.53935739130465" />
              <mxPoint x="75.79000000000002" y="16.53935739130465" />
            </Array>
          </mxGeometry>
        </mxCell>
        <mxCell id="BDm3REAGpp8tmRv-bOrY-213" style="edgeStyle=orthogonalEdgeStyle;rounded=0;orthogonalLoop=1;jettySize=auto;html=1;startArrow=none;startFill=0;endArrow=block;endFill=1;exitX=0.213;exitY=1.006;exitDx=0;exitDy=0;exitPerimeter=0;entryX=0.217;entryY=0;entryDx=0;entryDy=0;entryPerimeter=0;" parent="BDm3REAGpp8tmRv-bOrY-210" edge="1">
          <mxGeometry relative="1" as="geometry">
            <mxPoint x="25.999999999999563" y="0.4121399999997609" as="sourcePoint" />
            <mxPoint x="26.480000000000036" y="68.81543391304349" as="targetPoint" />
            <Array as="points">
              <mxPoint x="25.599999999999927" y="34.58392173913076" />
            </Array>
          </mxGeometry>
        </mxCell>
        <mxCell id="BDm3REAGpp8tmRv-bOrY-214" style="edgeStyle=orthogonalEdgeStyle;rounded=0;orthogonalLoop=1;jettySize=auto;html=1;entryX=0.076;entryY=0.004;entryDx=0;entryDy=0;entryPerimeter=0;startArrow=none;startFill=0;endArrow=block;endFill=1;exitX=0.068;exitY=1.006;exitDx=0;exitDy=0;exitPerimeter=0;" parent="BDm3REAGpp8tmRv-bOrY-210" edge="1">
          <mxGeometry relative="1" as="geometry">
            <mxPoint x="-1.0000000000000007" y="0.286706086956261" as="sourcePoint" />
            <mxPoint x="-0.03999999999996365" y="68.87635895652167" as="targetPoint" />
            <Array as="points">
              <mxPoint y="0.41214000000030415" />
            </Array>
          </mxGeometry>
        </mxCell>
        <mxCell id="BDm3REAGpp8tmRv-bOrY-215" value="&lt;span style=&quot;font-size: 8px;&quot;&gt;4.1.1.1. remove&lt;/span&gt;&lt;span style=&quot;font-size: 8px;&quot;&gt;Exercise&lt;/span&gt;&lt;span style=&quot;font-size: 8px;&quot;&gt;Item(details): isRemoved&lt;/span&gt;" style="edgeLabel;html=1;align=center;verticalAlign=middle;resizable=0;points=[];" parent="1" vertex="1" connectable="0">
          <mxGeometry x="1082.774167809387" y="1686.7158314821445" as="geometry" />
        </mxCell>
        <mxCell id="BDm3REAGpp8tmRv-bOrY-216" value="&lt;span style=&quot;font-size: 8px;&quot;&gt;3.1.1.1. edit&lt;/span&gt;&lt;span style=&quot;font-size: 8px;&quot;&gt;Exercise&lt;/span&gt;&lt;span style=&quot;font-size: 8px;&quot;&gt;Item(details): updatedItem&lt;/span&gt;" style="edgeLabel;html=1;align=center;verticalAlign=middle;resizable=0;points=[];" parent="1" vertex="1" connectable="0">
          <mxGeometry x="1057.98" y="1675.1711111111113" as="geometry">
            <mxPoint x="3" y="-2" as="offset" />
          </mxGeometry>
        </mxCell>
        <mxCell id="BDm3REAGpp8tmRv-bOrY-217" value="&lt;span style=&quot;font-size: 8px;&quot;&gt;2.1.1.1. add&lt;/span&gt;&lt;span style=&quot;font-size: 8px;&quot;&gt;Exercise&lt;/span&gt;&lt;span style=&quot;font-size: 8px;&quot;&gt;Item(details): newItem&lt;/span&gt;" style="edgeLabel;html=1;align=center;verticalAlign=middle;resizable=0;points=[];" parent="1" vertex="1" connectable="0">
          <mxGeometry x="1032.9813681831401" y="1659.165791644401" as="geometry" />
        </mxCell>
        <mxCell id="BDm3REAGpp8tmRv-bOrY-218" value="&lt;span style=&quot;font-size: 8px;&quot;&gt;1.1.1.1. getTracker():&amp;nbsp;&lt;/span&gt;&lt;span style=&quot;font-size: 8px;&quot;&gt;tracker&lt;/span&gt;" style="edgeLabel;html=1;align=center;verticalAlign=middle;resizable=0;points=[];" parent="1" vertex="1" connectable="0">
          <mxGeometry x="1005.9839429551998" y="1646.1666789355395" as="geometry" />
        </mxCell>
        <mxCell id="BDm3REAGpp8tmRv-bOrY-228" value="" style="group" parent="1" vertex="1" connectable="0">
          <mxGeometry x="1303.39" y="1106.1000000000004" width="31" height="69" as="geometry" />
        </mxCell>
        <mxCell id="BDm3REAGpp8tmRv-bOrY-229" style="edgeStyle=orthogonalEdgeStyle;rounded=0;orthogonalLoop=1;jettySize=auto;html=1;entryX=0.5;entryY=0;entryDx=0;entryDy=0;startArrow=none;startFill=0;endArrow=block;endFill=1;" parent="BDm3REAGpp8tmRv-bOrY-228" edge="1">
          <mxGeometry relative="1" as="geometry">
            <mxPoint x="30.519999999999982" as="sourcePoint" />
            <mxPoint x="30.519999999999982" y="69" as="targetPoint" />
          </mxGeometry>
        </mxCell>
        <mxCell id="BDm3REAGpp8tmRv-bOrY-230" style="edgeStyle=orthogonalEdgeStyle;rounded=0;orthogonalLoop=1;jettySize=auto;html=1;startArrow=none;startFill=0;endArrow=block;endFill=1;" parent="BDm3REAGpp8tmRv-bOrY-228" edge="1">
          <mxGeometry relative="1" as="geometry">
            <mxPoint x="15" as="sourcePoint" />
            <mxPoint x="15" y="69" as="targetPoint" />
          </mxGeometry>
        </mxCell>
        <mxCell id="BDm3REAGpp8tmRv-bOrY-231" style="edgeStyle=orthogonalEdgeStyle;rounded=0;orthogonalLoop=1;jettySize=auto;html=1;exitX=0.25;exitY=1;exitDx=0;exitDy=0;entryX=0.25;entryY=0;entryDx=0;entryDy=0;startArrow=none;startFill=0;endArrow=block;endFill=1;" parent="BDm3REAGpp8tmRv-bOrY-228" edge="1">
          <mxGeometry relative="1" as="geometry">
            <mxPoint as="sourcePoint" />
            <mxPoint y="69" as="targetPoint" />
          </mxGeometry>
        </mxCell>
        <mxCell id="BDm3REAGpp8tmRv-bOrY-232" value="&lt;span style=&quot;font-size: 8px;&quot;&gt;1.1. getQuizzes():&amp;nbsp;&lt;/span&gt;&lt;span style=&quot;font-size: 8px;&quot;&gt;quizzes&lt;/span&gt;" style="edgeLabel;html=1;align=center;verticalAlign=middle;resizable=0;points=[];" parent="BDm3REAGpp8tmRv-bOrY-231" vertex="1" connectable="0">
          <mxGeometry x="-0.7101" y="-1" relative="1" as="geometry">
            <mxPoint x="1" y="2" as="offset" />
          </mxGeometry>
        </mxCell>
        <mxCell id="BDm3REAGpp8tmRv-bOrY-233" value="&lt;span style=&quot;font-size: 8px;&quot;&gt;2.1. generateQuiz():&amp;nbsp;&lt;/span&gt;&lt;span style=&quot;font-size: 8px;&quot;&gt;quiz&lt;/span&gt;" style="edgeLabel;html=1;align=center;verticalAlign=middle;resizable=0;points=[];" parent="BDm3REAGpp8tmRv-bOrY-228" vertex="1" connectable="0">
          <mxGeometry x="15" y="28.307692307691468" as="geometry" />
        </mxCell>
        <mxCell id="BDm3REAGpp8tmRv-bOrY-234" value="&lt;span style=&quot;font-size: 8px;&quot;&gt;4.1. markQuiz(answers):&amp;nbsp;&lt;/span&gt;&lt;span style=&quot;font-size: 8px;&quot;&gt;results&lt;/span&gt;" style="edgeLabel;html=1;align=center;verticalAlign=middle;resizable=0;points=[];" parent="BDm3REAGpp8tmRv-bOrY-228" vertex="1" connectable="0">
          <mxGeometry x="31" y="45.615384615384755" as="geometry" />
        </mxCell>
        <mxCell id="BDm3REAGpp8tmRv-bOrY-336" value="User" style="shape=umlActor;verticalLabelPosition=bottom;verticalAlign=top;html=1;outlineConnect=0;" parent="1" vertex="1">
          <mxGeometry x="1076.8899999999999" y="2454.0499999999997" width="30" height="60" as="geometry" />
        </mxCell>
        <mxCell id="BDm3REAGpp8tmRv-bOrY-338" style="edgeStyle=orthogonalEdgeStyle;rounded=0;orthogonalLoop=1;jettySize=auto;html=1;exitX=0.25;exitY=1;exitDx=0;exitDy=0;entryX=0.25;entryY=0;entryDx=0;entryDy=0;startArrow=none;startFill=0;endArrow=block;endFill=1;" parent="1" edge="1">
          <mxGeometry relative="1" as="geometry">
            <mxPoint x="1320.6900000000003" y="2516.0499999999993" as="sourcePoint" />
            <mxPoint x="1320.6900000000003" y="2585.0499999999993" as="targetPoint" />
          </mxGeometry>
        </mxCell>
        <mxCell id="BDm3REAGpp8tmRv-bOrY-341" value="&amp;lt;&amp;lt;boundary&amp;gt;&amp;gt;&lt;br&gt;&lt;u&gt;ui1: AppGUI&lt;/u&gt;" style="rounded=0;whiteSpace=wrap;html=1;" parent="1" vertex="1">
          <mxGeometry x="1297.8899999999999" y="2477.0499999999997" width="120" height="39" as="geometry" />
        </mxCell>
        <mxCell id="BDm3REAGpp8tmRv-bOrY-342" value="&amp;lt;&amp;lt;control&amp;gt;&amp;gt;&lt;br&gt;&lt;u&gt;um1: UserManager&lt;/u&gt;" style="rounded=0;whiteSpace=wrap;html=1;" parent="1" vertex="1">
          <mxGeometry x="1297.8899999999999" y="2585.0499999999997" width="120" height="40" as="geometry" />
        </mxCell>
        <mxCell id="BDm3REAGpp8tmRv-bOrY-343" value="" style="edgeStyle=orthogonalEdgeStyle;rounded=0;orthogonalLoop=1;jettySize=auto;html=1;fontSize=11;startArrow=none;startFill=0;endArrow=block;endFill=1;startSize=6;endSize=6;exitX=0.5;exitY=1;exitDx=0;exitDy=0;entryX=0.5;entryY=0;entryDx=0;entryDy=0;" parent="1" source="BDm3REAGpp8tmRv-bOrY-378" target="BDm3REAGpp8tmRv-bOrY-362" edge="1">
          <mxGeometry relative="1" as="geometry">
            <mxPoint x="1322.4200000000003" y="2772" as="sourcePoint" />
            <mxPoint x="1322.424736842105" y="2810.0499999999993" as="targetPoint" />
          </mxGeometry>
        </mxCell>
        <mxCell id="BDm3REAGpp8tmRv-bOrY-345" style="edgeStyle=orthogonalEdgeStyle;rounded=0;orthogonalLoop=1;jettySize=auto;html=1;entryX=0.642;entryY=0.028;entryDx=0;entryDy=0;fontSize=8;startArrow=none;startFill=0;endArrow=block;endFill=1;entryPerimeter=0;" parent="1" edge="1">
          <mxGeometry x="0.3656" y="429" relative="1" as="geometry">
            <mxPoint x="1302.0100000000002" y="2476.959999999999" as="sourcePoint" />
            <mxPoint x="1323.0299999999997" y="2477.0519999999997" as="targetPoint" />
            <Array as="points">
              <mxPoint x="1302.0099999999998" y="2476.9599999999996" />
              <mxPoint x="1302.0099999999998" y="2451.9599999999996" />
              <mxPoint x="1323.0099999999998" y="2451.9599999999996" />
            </Array>
            <mxPoint as="offset" />
          </mxGeometry>
        </mxCell>
        <mxCell id="BDm3REAGpp8tmRv-bOrY-346" value="1.2. displayGoals()" style="edgeLabel;html=1;align=center;verticalAlign=middle;resizable=0;points=[];fontSize=8;" parent="BDm3REAGpp8tmRv-bOrY-345" vertex="1" connectable="0">
          <mxGeometry x="-0.0543" relative="1" as="geometry">
            <mxPoint x="-25" y="7" as="offset" />
          </mxGeometry>
        </mxCell>
        <mxCell id="BDm3REAGpp8tmRv-bOrY-347" style="edgeStyle=orthogonalEdgeStyle;rounded=0;orthogonalLoop=1;jettySize=auto;html=1;entryX=0.5;entryY=1;entryDx=0;entryDy=0;endArrow=block;endFill=1;exitX=0.5;exitY=0;exitDx=0;exitDy=0;" parent="1" source="BDm3REAGpp8tmRv-bOrY-352" target="BDm3REAGpp8tmRv-bOrY-379" edge="1">
          <mxGeometry relative="1" as="geometry">
            <mxPoint x="1073.7500000000005" y="2690" as="sourcePoint" />
            <mxPoint x="1073.7500000000005" y="2640.5" as="targetPoint" />
          </mxGeometry>
        </mxCell>
        <mxCell id="BDm3REAGpp8tmRv-bOrY-352" value="&amp;lt;&amp;lt;entity&amp;gt;&amp;gt;&lt;br&gt;&lt;u&gt;g1: Goals&lt;/u&gt;" style="rounded=0;whiteSpace=wrap;html=1;" parent="1" vertex="1">
          <mxGeometry x="981.41" y="2690" width="120" height="35" as="geometry" />
        </mxCell>
        <mxCell id="pK_a_7zJMjS60tyyFLj3-101" style="edgeStyle=orthogonalEdgeStyle;rounded=0;orthogonalLoop=1;jettySize=auto;html=1;exitX=0;exitY=0.5;exitDx=0;exitDy=0;entryX=1;entryY=0.5;entryDx=0;entryDy=0;endArrow=block;endFill=1;" parent="1" source="BDm3REAGpp8tmRv-bOrY-362" target="BDm3REAGpp8tmRv-bOrY-369" edge="1">
          <mxGeometry relative="1" as="geometry" />
        </mxCell>
        <mxCell id="pK_a_7zJMjS60tyyFLj3-102" value="&lt;span style=&quot;border-color: var(--border-color); font-size: 8px;&quot;&gt;2.1.1.1.1.&amp;nbsp;&lt;/span&gt;&lt;span style=&quot;font-size: 8px;&quot;&gt;generateNewGoal(tracker): newGoal&lt;/span&gt;" style="edgeLabel;html=1;align=center;verticalAlign=middle;resizable=0;points=[];" parent="pK_a_7zJMjS60tyyFLj3-101" vertex="1" connectable="0">
          <mxGeometry x="0.3956" relative="1" as="geometry">
            <mxPoint x="43" y="-1" as="offset" />
          </mxGeometry>
        </mxCell>
        <mxCell id="BDm3REAGpp8tmRv-bOrY-362" value="&amp;lt;&amp;lt;entity&amp;gt;&amp;gt;&lt;br&gt;&lt;u&gt;t1: Tracker&lt;/u&gt;" style="rounded=0;whiteSpace=wrap;html=1;" parent="1" vertex="1">
          <mxGeometry x="1294.4199999999998" y="2760.58" width="120" height="40" as="geometry" />
        </mxCell>
        <mxCell id="BDm3REAGpp8tmRv-bOrY-365" style="edgeStyle=orthogonalEdgeStyle;rounded=0;orthogonalLoop=1;jettySize=auto;html=1;entryX=0.5;entryY=1;entryDx=0;entryDy=0;startArrow=none;startFill=0;endArrow=block;endFill=1;exitX=0.5;exitY=0;exitDx=0;exitDy=0;" parent="1" source="BDm3REAGpp8tmRv-bOrY-369" target="BDm3REAGpp8tmRv-bOrY-352" edge="1">
          <mxGeometry relative="1" as="geometry">
            <mxPoint x="1529.1599999999999" y="2832.91" as="sourcePoint" />
            <mxPoint x="1072.91" y="2759.0499999999997" as="targetPoint" />
          </mxGeometry>
        </mxCell>
        <mxCell id="BDm3REAGpp8tmRv-bOrY-366" value="&lt;span style=&quot;border-color: var(--border-color); font-size: 8px;&quot;&gt;2.1.1.1.1.1.&amp;nbsp;&lt;/span&gt;&lt;span style=&quot;font-size: 8px;&quot;&gt;create newGoal:&amp;nbsp;&lt;/span&gt;&lt;span style=&quot;font-size: 8px;&quot;&gt;newGoal&lt;/span&gt;" style="edgeLabel;html=1;align=center;verticalAlign=middle;resizable=0;points=[];fontSize=11;" parent="BDm3REAGpp8tmRv-bOrY-365" vertex="1" connectable="0">
          <mxGeometry x="-0.3552" y="1" relative="1" as="geometry">
            <mxPoint x="1" y="-6" as="offset" />
          </mxGeometry>
        </mxCell>
        <mxCell id="BDm3REAGpp8tmRv-bOrY-369" value="&amp;lt;&amp;lt;control&amp;gt;&amp;gt;&lt;br&gt;&lt;u&gt;gm1: GoalManager&lt;/u&gt;" style="rounded=0;whiteSpace=wrap;html=1;" parent="1" vertex="1">
          <mxGeometry x="983.4199999999997" y="2760.58" width="120" height="40" as="geometry" />
        </mxCell>
        <mxCell id="BDm3REAGpp8tmRv-bOrY-370" style="edgeStyle=orthogonalEdgeStyle;rounded=0;orthogonalLoop=1;jettySize=auto;html=1;entryX=0.006;entryY=0.173;entryDx=0;entryDy=0;fontSize=11;startArrow=block;startFill=1;endArrow=none;endFill=0;startSize=6;endSize=6;entryPerimeter=0;exitX=1.001;exitY=0.143;exitDx=0;exitDy=0;exitPerimeter=0;" parent="1" source="BDm3REAGpp8tmRv-bOrY-352" edge="1">
          <mxGeometry relative="1" as="geometry">
            <mxPoint x="1131.53" y="2695" as="sourcePoint" />
            <mxPoint x="1294.4200000000003" y="2694.8199999999997" as="targetPoint" />
            <Array as="points" />
          </mxGeometry>
        </mxCell>
        <mxCell id="BDm3REAGpp8tmRv-bOrY-371" value="&lt;span style=&quot;border-color: var(--border-color); font-size: 8px;&quot;&gt;1.1.1.1.&amp;nbsp;&lt;/span&gt;&lt;span style=&quot;border-color: var(--border-color); font-size: 8px;&quot;&gt;getGoals():&amp;nbsp;&lt;/span&gt;&lt;span style=&quot;font-size: 8px;&quot;&gt;goals&lt;/span&gt;" style="edgeLabel;html=1;align=center;verticalAlign=middle;resizable=0;points=[];fontSize=11;" parent="BDm3REAGpp8tmRv-bOrY-370" vertex="1" connectable="0">
          <mxGeometry x="-0.3859" relative="1" as="geometry">
            <mxPoint x="30" y="-2" as="offset" />
          </mxGeometry>
        </mxCell>
        <mxCell id="BDm3REAGpp8tmRv-bOrY-372" style="edgeStyle=orthogonalEdgeStyle;rounded=0;orthogonalLoop=1;jettySize=auto;html=1;entryX=0;entryY=0.75;entryDx=0;entryDy=0;fontSize=11;startArrow=block;startFill=1;endArrow=none;endFill=0;startSize=6;endSize=6;" parent="1" target="BDm3REAGpp8tmRv-bOrY-378" edge="1">
          <mxGeometry relative="1" as="geometry">
            <mxPoint x="1101.41" y="2719.02" as="sourcePoint" />
            <mxPoint x="1265.0500000000004" y="2718.9999999999995" as="targetPoint" />
            <Array as="points">
              <mxPoint x="1148.53" y="2719" />
            </Array>
          </mxGeometry>
        </mxCell>
        <mxCell id="BDm3REAGpp8tmRv-bOrY-373" value="&lt;span style=&quot;border-color: var(--border-color); font-size: 8px;&quot;&gt;3.1.1.1.&amp;nbsp;&lt;/span&gt;&lt;span style=&quot;border-color: var(--border-color); font-size: 8px;&quot;&gt;removeGoal(goal):&amp;nbsp;&lt;/span&gt;&lt;span style=&quot;font-size: 8px;&quot;&gt;isDeleted&lt;/span&gt;" style="edgeLabel;html=1;align=center;verticalAlign=middle;resizable=0;points=[];fontSize=11;" parent="BDm3REAGpp8tmRv-bOrY-372" vertex="1" connectable="0">
          <mxGeometry x="-0.3859" relative="1" as="geometry">
            <mxPoint x="37" y="-1" as="offset" />
          </mxGeometry>
        </mxCell>
        <mxCell id="BDm3REAGpp8tmRv-bOrY-378" value="&amp;lt;&amp;lt;entity&amp;gt;&amp;gt;&lt;br&gt;&lt;u&gt;u1: User&lt;/u&gt;" style="rounded=0;whiteSpace=wrap;html=1;" parent="1" vertex="1">
          <mxGeometry x="1294.42" y="2693" width="120" height="34" as="geometry" />
        </mxCell>
        <mxCell id="BDm3REAGpp8tmRv-bOrY-379" value="&amp;lt;&amp;lt;entity&amp;gt;&amp;gt;&lt;br&gt;&lt;u&gt;go1: Goal&lt;/u&gt;" style="rounded=0;whiteSpace=wrap;html=1;" parent="1" vertex="1">
          <mxGeometry x="981" y="2606" width="120" height="40" as="geometry" />
        </mxCell>
        <mxCell id="BDm3REAGpp8tmRv-bOrY-380" style="edgeStyle=orthogonalEdgeStyle;rounded=0;orthogonalLoop=1;jettySize=auto;html=1;entryX=0.642;entryY=0.028;entryDx=0;entryDy=0;fontSize=8;startArrow=none;startFill=0;endArrow=block;endFill=1;entryPerimeter=0;" parent="1" edge="1">
          <mxGeometry x="0.3656" y="429" relative="1" as="geometry">
            <mxPoint x="1347.3899999999994" y="2476.959999999999" as="sourcePoint" />
            <mxPoint x="1368.4099999999999" y="2477.0519999999988" as="targetPoint" />
            <Array as="points">
              <mxPoint x="1347.3899999999999" y="2476.9599999999996" />
              <mxPoint x="1347.3899999999999" y="2451.9599999999996" />
              <mxPoint x="1368.3899999999999" y="2451.9599999999996" />
            </Array>
            <mxPoint as="offset" />
          </mxGeometry>
        </mxCell>
        <mxCell id="BDm3REAGpp8tmRv-bOrY-381" value="2.2. displayGoals()" style="edgeLabel;html=1;align=center;verticalAlign=middle;resizable=0;points=[];fontSize=8;" parent="BDm3REAGpp8tmRv-bOrY-380" vertex="1" connectable="0">
          <mxGeometry x="-0.0543" relative="1" as="geometry">
            <mxPoint x="2" y="8" as="offset" />
          </mxGeometry>
        </mxCell>
        <mxCell id="BDm3REAGpp8tmRv-bOrY-382" style="edgeStyle=orthogonalEdgeStyle;rounded=0;orthogonalLoop=1;jettySize=auto;html=1;entryX=0.642;entryY=0.028;entryDx=0;entryDy=0;fontSize=8;startArrow=none;startFill=0;endArrow=block;endFill=1;entryPerimeter=0;" parent="1" edge="1">
          <mxGeometry x="0.3656" y="429" relative="1" as="geometry">
            <mxPoint x="1392.8999999999996" y="2476.959999999999" as="sourcePoint" />
            <mxPoint x="1413.92" y="2477.0519999999988" as="targetPoint" />
            <Array as="points">
              <mxPoint x="1392.8999999999999" y="2476.9599999999996" />
              <mxPoint x="1392.8999999999999" y="2451.9599999999996" />
              <mxPoint x="1413.8999999999999" y="2451.9599999999996" />
            </Array>
            <mxPoint as="offset" />
          </mxGeometry>
        </mxCell>
        <mxCell id="BDm3REAGpp8tmRv-bOrY-383" value="3.2. displayGoals()" style="edgeLabel;html=1;align=center;verticalAlign=middle;resizable=0;points=[];fontSize=8;" parent="BDm3REAGpp8tmRv-bOrY-382" vertex="1" connectable="0">
          <mxGeometry x="-0.0543" relative="1" as="geometry">
            <mxPoint x="28" y="6" as="offset" />
          </mxGeometry>
        </mxCell>
        <mxCell id="BDm3REAGpp8tmRv-bOrY-384" style="edgeStyle=orthogonalEdgeStyle;rounded=0;orthogonalLoop=1;jettySize=auto;html=1;startArrow=none;startFill=0;endArrow=block;endFill=1;entryX=-0.005;entryY=0.818;entryDx=0;entryDy=0;entryPerimeter=0;" parent="1" edge="1">
          <mxGeometry relative="1" as="geometry">
            <mxPoint x="1108.6595345711166" y="2485.3200000000006" as="sourcePoint" />
            <mxPoint x="1297.8722792573299" y="2486.04" as="targetPoint" />
            <Array as="points">
              <mxPoint x="1203.25" y="2485.05" />
              <mxPoint x="1297.896139628665" y="2486.05" />
            </Array>
          </mxGeometry>
        </mxCell>
        <mxCell id="BDm3REAGpp8tmRv-bOrY-385" value="&lt;span style=&quot;font-size: 8px;&quot;&gt;1.&amp;nbsp;&lt;/span&gt;&lt;span style=&quot;font-size: 8px;&quot;&gt;clickViewGoals()&lt;/span&gt;" style="edgeLabel;html=1;align=center;verticalAlign=middle;resizable=0;points=[];" parent="BDm3REAGpp8tmRv-bOrY-384" vertex="1" connectable="0">
          <mxGeometry x="-0.3263" y="-1" relative="1" as="geometry">
            <mxPoint x="30" y="-2" as="offset" />
          </mxGeometry>
        </mxCell>
        <mxCell id="BDm3REAGpp8tmRv-bOrY-386" style="edgeStyle=orthogonalEdgeStyle;rounded=0;orthogonalLoop=1;jettySize=auto;html=1;startArrow=none;startFill=0;endArrow=block;endFill=1;entryX=-0.005;entryY=0.818;entryDx=0;entryDy=0;entryPerimeter=0;" parent="1" edge="1">
          <mxGeometry relative="1" as="geometry">
            <mxPoint x="1108.6833949424508" y="2496.3199999999997" as="sourcePoint" />
            <mxPoint x="1297.896139628665" y="2497.039999999999" as="targetPoint" />
            <Array as="points">
              <mxPoint x="1203.273860371335" y="2496.0499999999997" />
              <mxPoint x="1297.92" y="2497.0499999999997" />
            </Array>
          </mxGeometry>
        </mxCell>
        <mxCell id="BDm3REAGpp8tmRv-bOrY-387" value="&lt;span style=&quot;font-size: 8px;&quot;&gt;2.&amp;nbsp;&lt;/span&gt;&lt;span style=&quot;font-size: 8px;&quot;&gt;clickNewGoal()[User sets goal]&lt;/span&gt;" style="edgeLabel;html=1;align=center;verticalAlign=middle;resizable=0;points=[];" parent="BDm3REAGpp8tmRv-bOrY-386" vertex="1" connectable="0">
          <mxGeometry x="-0.3263" y="-1" relative="1" as="geometry">
            <mxPoint x="30" y="-2" as="offset" />
          </mxGeometry>
        </mxCell>
        <mxCell id="BDm3REAGpp8tmRv-bOrY-388" style="edgeStyle=orthogonalEdgeStyle;rounded=0;orthogonalLoop=1;jettySize=auto;html=1;startArrow=none;startFill=0;endArrow=block;endFill=1;entryX=-0.005;entryY=0.818;entryDx=0;entryDy=0;entryPerimeter=0;" parent="1" edge="1">
          <mxGeometry relative="1" as="geometry">
            <mxPoint x="1108.6833949424508" y="2507.0499999999993" as="sourcePoint" />
            <mxPoint x="1297.896139628665" y="2507.7700000000004" as="targetPoint" />
            <Array as="points">
              <mxPoint x="1203.273860371335" y="2506.78" />
              <mxPoint x="1297.92" y="2507.78" />
            </Array>
          </mxGeometry>
        </mxCell>
        <mxCell id="BDm3REAGpp8tmRv-bOrY-389" value="&lt;span style=&quot;font-size: 8px;&quot;&gt;3.&amp;nbsp;&lt;/span&gt;&lt;span style=&quot;font-size: 8px;&quot;&gt;clickRemoveGoal(goal)[User removes goal]&lt;/span&gt;" style="edgeLabel;html=1;align=center;verticalAlign=middle;resizable=0;points=[];" parent="BDm3REAGpp8tmRv-bOrY-388" vertex="1" connectable="0">
          <mxGeometry x="-0.3263" y="-1" relative="1" as="geometry">
            <mxPoint x="30" as="offset" />
          </mxGeometry>
        </mxCell>
        <mxCell id="BDm3REAGpp8tmRv-bOrY-397" style="edgeStyle=orthogonalEdgeStyle;rounded=0;orthogonalLoop=1;jettySize=auto;html=1;entryX=0;entryY=0.382;entryDx=0;entryDy=0;fontSize=11;startArrow=block;startFill=1;endArrow=none;endFill=0;startSize=6;endSize=6;entryPerimeter=0;" parent="1" target="BDm3REAGpp8tmRv-bOrY-378" edge="1">
          <mxGeometry relative="1" as="geometry">
            <mxPoint x="1101.53" y="2706.1800000000003" as="sourcePoint" />
            <mxPoint x="1264.4200000000003" y="2706" as="targetPoint" />
            <Array as="points">
              <mxPoint x="1147.53" y="2706" />
            </Array>
          </mxGeometry>
        </mxCell>
        <mxCell id="BDm3REAGpp8tmRv-bOrY-398" value="&lt;span style=&quot;font-size: 8px;&quot;&gt;2.1.1.2. addGoals(goal):&amp;nbsp;&lt;/span&gt;&lt;span style=&quot;font-size: 8px;&quot;&gt;isGoalAdded&lt;/span&gt;" style="edgeLabel;html=1;align=center;verticalAlign=middle;resizable=0;points=[];fontSize=11;" parent="BDm3REAGpp8tmRv-bOrY-397" vertex="1" connectable="0">
          <mxGeometry x="-0.3859" relative="1" as="geometry">
            <mxPoint x="33" y="-1" as="offset" />
          </mxGeometry>
        </mxCell>
        <mxCell id="BDm3REAGpp8tmRv-bOrY-407" value="&lt;span style=&quot;border-color: var(--border-color); font-size: 8px;&quot;&gt;3.1.1.1.1.&amp;nbsp;&lt;/span&gt;&lt;span style=&quot;font-size: 8px;&quot;&gt;deleteGoal(goal):&amp;nbsp;&lt;/span&gt;&lt;span style=&quot;font-size: 8px;&quot;&gt;goal&lt;/span&gt;" style="edgeLabel;html=1;align=center;verticalAlign=middle;resizable=0;points=[];" parent="1" vertex="1" connectable="0">
          <mxGeometry x="1044.88" y="2672.3144444444442" as="geometry" />
        </mxCell>
        <mxCell id="BDm3REAGpp8tmRv-bOrY-411" value="&lt;span style=&quot;border-color: var(--border-color); font-size: 8px;&quot;&gt;2.1.1.1.&amp;nbsp;&lt;/span&gt;&lt;span style=&quot;border-color: var(--border-color); font-size: 8px;&quot;&gt;getTracker(): newGoal&lt;/span&gt;" style="edgeLabel;html=1;align=center;verticalAlign=middle;resizable=0;points=[];fontSize=11;" parent="1" vertex="1" connectable="0">
          <mxGeometry x="1354.951441470167" y="2738.9990717686333" as="geometry" />
        </mxCell>
        <mxCell id="BDm3REAGpp8tmRv-bOrY-412" value="&amp;lt;&amp;lt;entity&amp;gt;&amp;gt;&lt;br style=&quot;border-color: var(--border-color);&quot;&gt;&lt;u style=&quot;border-color: var(--border-color);&quot;&gt;r1: Recommendation&lt;/u&gt;" style="rounded=0;whiteSpace=wrap;html=1;" parent="1" vertex="1">
          <mxGeometry x="1348.83" y="3153.05" width="134" height="40" as="geometry" />
        </mxCell>
        <mxCell id="BDm3REAGpp8tmRv-bOrY-413" style="edgeStyle=orthogonalEdgeStyle;rounded=0;orthogonalLoop=1;jettySize=auto;html=1;exitX=0.75;exitY=0;exitDx=0;exitDy=0;entryX=0.67;entryY=0.975;entryDx=0;entryDy=0;entryPerimeter=0;startArrow=none;startFill=0;endArrow=block;endFill=1;" parent="1" source="BDm3REAGpp8tmRv-bOrY-417" target="BDm3REAGpp8tmRv-bOrY-466" edge="1">
          <mxGeometry relative="1" as="geometry" />
        </mxCell>
        <mxCell id="BDm3REAGpp8tmRv-bOrY-414" value="&lt;span style=&quot;font-size: 8px;&quot;&gt;2.1.1.1.1. generateRecommendation(tracker):&amp;nbsp;&lt;/span&gt;&lt;span style=&quot;font-size: 8px;&quot;&gt;recommendation&lt;/span&gt;" style="edgeLabel;html=1;align=center;verticalAlign=middle;resizable=0;points=[];" parent="BDm3REAGpp8tmRv-bOrY-413" vertex="1" connectable="0">
          <mxGeometry x="-0.2406" y="1" relative="1" as="geometry">
            <mxPoint x="4" y="7" as="offset" />
          </mxGeometry>
        </mxCell>
        <mxCell id="BDm3REAGpp8tmRv-bOrY-417" value="&amp;lt;&amp;lt;entity&amp;gt;&amp;gt;&lt;br style=&quot;border-color: var(--border-color);&quot;&gt;&lt;u style=&quot;border-color: var(--border-color);&quot;&gt;t1: Tracker&lt;/u&gt;" style="rounded=0;whiteSpace=wrap;html=1;" parent="1" vertex="1">
          <mxGeometry x="1354.1100000000006" y="3343.01" width="120" height="40" as="geometry" />
        </mxCell>
        <mxCell id="BDm3REAGpp8tmRv-bOrY-418" value="User" style="shape=umlActor;verticalLabelPosition=bottom;verticalAlign=top;html=1;outlineConnect=0;" parent="1" vertex="1">
          <mxGeometry x="866" y="3062.01" width="30" height="60" as="geometry" />
        </mxCell>
        <mxCell id="BDm3REAGpp8tmRv-bOrY-419" value="&amp;lt;&amp;lt;boundary&amp;gt;&amp;gt;&lt;br&gt;&lt;u&gt;ui1: AppGUI&lt;/u&gt;" style="rounded=0;whiteSpace=wrap;html=1;" parent="1" vertex="1">
          <mxGeometry x="1101" y="3062.01" width="120" height="72.99" as="geometry" />
        </mxCell>
        <mxCell id="BDm3REAGpp8tmRv-bOrY-420" style="edgeStyle=orthogonalEdgeStyle;rounded=0;orthogonalLoop=1;jettySize=auto;html=1;fontSize=8;startArrow=none;startFill=0;endArrow=block;endFill=1;exitX=1.006;exitY=0.434;exitDx=0;exitDy=0;exitPerimeter=0;entryX=1;entryY=0.682;entryDx=0;entryDy=0;entryPerimeter=0;" parent="1" edge="1">
          <mxGeometry x="0.0331" y="16" relative="1" as="geometry">
            <mxPoint x="1221.7199999999996" y="3078.6876599999996" as="sourcePoint" />
            <mxPoint x="1221.0000000000002" y="3096.7891800000007" as="targetPoint" />
            <Array as="points">
              <mxPoint x="1246.3600000000001" y="3079" />
              <mxPoint x="1246.3600000000001" y="3097" />
            </Array>
            <mxPoint as="offset" />
          </mxGeometry>
        </mxCell>
        <mxCell id="BDm3REAGpp8tmRv-bOrY-421" value="4.2. displayRecommendation()" style="edgeLabel;html=1;align=center;verticalAlign=middle;resizable=0;points=[];fontSize=8;" parent="BDm3REAGpp8tmRv-bOrY-420" vertex="1" connectable="0">
          <mxGeometry x="-0.0543" relative="1" as="geometry">
            <mxPoint x="41" y="1" as="offset" />
          </mxGeometry>
        </mxCell>
        <mxCell id="BDm3REAGpp8tmRv-bOrY-422" style="edgeStyle=orthogonalEdgeStyle;rounded=0;orthogonalLoop=1;jettySize=auto;html=1;entryX=0.642;entryY=0.028;entryDx=0;entryDy=0;fontSize=8;startArrow=none;startFill=0;endArrow=block;endFill=1;entryPerimeter=0;" parent="1" edge="1">
          <mxGeometry x="0.3656" y="429" relative="1" as="geometry">
            <mxPoint x="1167.0000000000002" y="3062.01" as="sourcePoint" />
            <mxPoint x="1188.0199999999998" y="3062.101999999999" as="targetPoint" />
            <Array as="points">
              <mxPoint x="1167" y="3062.01" />
              <mxPoint x="1167" y="3037.01" />
              <mxPoint x="1188" y="3037.01" />
            </Array>
            <mxPoint as="offset" />
          </mxGeometry>
        </mxCell>
        <mxCell id="BDm3REAGpp8tmRv-bOrY-423" value="2.2. displayRecommendation()" style="edgeLabel;html=1;align=center;verticalAlign=middle;resizable=0;points=[];fontSize=8;" parent="BDm3REAGpp8tmRv-bOrY-422" vertex="1" connectable="0">
          <mxGeometry x="-0.0543" relative="1" as="geometry">
            <mxPoint x="51" y="7" as="offset" />
          </mxGeometry>
        </mxCell>
        <mxCell id="BDm3REAGpp8tmRv-bOrY-424" style="edgeStyle=orthogonalEdgeStyle;rounded=0;orthogonalLoop=1;jettySize=auto;html=1;entryX=0.642;entryY=0.028;entryDx=0;entryDy=0;fontSize=8;startArrow=none;startFill=0;endArrow=block;endFill=1;entryPerimeter=0;" parent="1" edge="1">
          <mxGeometry x="0.3656" y="429" relative="1" as="geometry">
            <mxPoint x="1115.0099999999995" y="3062.01" as="sourcePoint" />
            <mxPoint x="1136.03" y="3062.101999999999" as="targetPoint" />
            <Array as="points">
              <mxPoint x="1115.0099999999998" y="3062.01" />
              <mxPoint x="1115.0099999999998" y="3037.01" />
              <mxPoint x="1136.0099999999998" y="3037.01" />
            </Array>
            <mxPoint as="offset" />
          </mxGeometry>
        </mxCell>
        <mxCell id="BDm3REAGpp8tmRv-bOrY-425" value="1.1. displayTracker()" style="edgeLabel;html=1;align=center;verticalAlign=middle;resizable=0;points=[];fontSize=8;" parent="BDm3REAGpp8tmRv-bOrY-424" vertex="1" connectable="0">
          <mxGeometry x="-0.0543" relative="1" as="geometry">
            <mxPoint x="-1" y="7" as="offset" />
          </mxGeometry>
        </mxCell>
        <mxCell id="BDm3REAGpp8tmRv-bOrY-426" style="edgeStyle=orthogonalEdgeStyle;rounded=0;orthogonalLoop=1;jettySize=auto;html=1;exitX=0.25;exitY=1;exitDx=0;exitDy=0;entryX=0.25;entryY=0;entryDx=0;entryDy=0;startArrow=none;startFill=0;endArrow=block;endFill=1;" parent="1" edge="1">
          <mxGeometry relative="1" as="geometry">
            <mxPoint x="1150.0000000000002" y="3135.999999999999" as="sourcePoint" />
            <mxPoint x="1150.0000000000002" y="3187" as="targetPoint" />
          </mxGeometry>
        </mxCell>
        <mxCell id="BDm3REAGpp8tmRv-bOrY-427" style="edgeStyle=orthogonalEdgeStyle;rounded=0;orthogonalLoop=1;jettySize=auto;html=1;exitX=0.75;exitY=1;exitDx=0;exitDy=0;entryX=0.75;entryY=0;entryDx=0;entryDy=0;startArrow=none;startFill=0;endArrow=block;endFill=1;" parent="1" edge="1">
          <mxGeometry relative="1" as="geometry">
            <mxPoint x="1170.0000000000002" y="3135.999999999999" as="sourcePoint" />
            <mxPoint x="1170.0000000000002" y="3187" as="targetPoint" />
          </mxGeometry>
        </mxCell>
        <mxCell id="BDm3REAGpp8tmRv-bOrY-428" value="&lt;span style=&quot;font-size: 8px;&quot;&gt;4.1. generateRecommendation(wellbeing):&amp;nbsp;&lt;/span&gt;&lt;span style=&quot;font-size: 8px;&quot;&gt;recommendation&lt;/span&gt;" style="edgeLabel;html=1;align=center;verticalAlign=middle;resizable=0;points=[];" parent="BDm3REAGpp8tmRv-bOrY-427" vertex="1" connectable="0">
          <mxGeometry x="0.2947" relative="1" as="geometry">
            <mxPoint y="-8" as="offset" />
          </mxGeometry>
        </mxCell>
        <mxCell id="BDm3REAGpp8tmRv-bOrY-432" value="&amp;lt;&amp;lt;control&amp;gt;&amp;gt;&lt;br&gt;&lt;u&gt;um1: UserManager&lt;/u&gt;" style="rounded=0;whiteSpace=wrap;html=1;" parent="1" vertex="1">
          <mxGeometry x="1101" y="3187" width="120" height="40" as="geometry" />
        </mxCell>
        <mxCell id="BDm3REAGpp8tmRv-bOrY-433" value="" style="group" parent="1" vertex="1" connectable="0">
          <mxGeometry x="1002.3600000000001" y="3064.01" width="99.02" height="62.74" as="geometry" />
        </mxCell>
        <mxCell id="BDm3REAGpp8tmRv-bOrY-434" style="edgeStyle=orthogonalEdgeStyle;rounded=0;orthogonalLoop=1;jettySize=auto;html=1;startArrow=none;startFill=0;endArrow=block;endFill=1;entryX=-0.005;entryY=0.818;entryDx=0;entryDy=0;entryPerimeter=0;" parent="BDm3REAGpp8tmRv-bOrY-433" edge="1">
          <mxGeometry relative="1" as="geometry">
            <mxPoint x="-98.38748049561423" y="19.26999999999991" as="sourcePoint" />
            <mxPoint x="98.47022858686317" y="19.989999999999252" as="targetPoint" />
            <Array as="points">
              <mxPoint x="0.02482442737506069" y="18.999999999999474" />
              <mxPoint x="98.49505301423822" y="19.99999999999947" />
            </Array>
          </mxGeometry>
        </mxCell>
        <mxCell id="BDm3REAGpp8tmRv-bOrY-435" value="&lt;span style=&quot;font-size: 8px;&quot;&gt;2.&amp;nbsp;&lt;/span&gt;&lt;span style=&quot;font-size: 8px;&quot;&gt;clickSeeRecommendation()&lt;/span&gt;&lt;span style=&quot;font-size: 8px;&quot;&gt;[User wants&lt;/span&gt;&lt;br style=&quot;border-color: var(--border-color); font-size: 8px;&quot;&gt;&lt;span style=&quot;font-size: 8px;&quot;&gt;food and exercise recommendations]&lt;/span&gt;" style="edgeLabel;html=1;align=center;verticalAlign=middle;resizable=0;points=[];fontSize=8;" parent="BDm3REAGpp8tmRv-bOrY-434" vertex="1" connectable="0">
          <mxGeometry x="-0.3263" y="-1" relative="1" as="geometry">
            <mxPoint x="28" y="-1" as="offset" />
          </mxGeometry>
        </mxCell>
        <mxCell id="BDm3REAGpp8tmRv-bOrY-436" style="edgeStyle=orthogonalEdgeStyle;rounded=0;orthogonalLoop=1;jettySize=auto;html=1;startArrow=none;startFill=0;endArrow=block;endFill=1;entryX=-0.005;entryY=0.818;entryDx=0;entryDy=0;entryPerimeter=0;" parent="BDm3REAGpp8tmRv-bOrY-433" edge="1">
          <mxGeometry relative="1" as="geometry">
            <mxPoint x="-98.38748049561423" y="40.99999999999939" as="sourcePoint" />
            <mxPoint x="98.47022858686317" y="41.719999999999644" as="targetPoint" />
            <Array as="points">
              <mxPoint x="0.02482442737506069" y="40.72999999999986" />
              <mxPoint x="98.49505301423822" y="41.72999999999986" />
            </Array>
          </mxGeometry>
        </mxCell>
        <mxCell id="BDm3REAGpp8tmRv-bOrY-437" value="&lt;span style=&quot;font-size: 8px;&quot;&gt;3.&amp;nbsp;&lt;/span&gt;&lt;span style=&quot;font-size: 8px;&quot;&gt;clickViewQuizzes()&lt;/span&gt;&lt;span style=&quot;font-size: 8px;&quot;&gt;[User wants&amp;nbsp;&lt;br style=&quot;font-size: 8px;&quot;&gt;wellbeing&lt;/span&gt;&lt;span style=&quot;font-size: 8px;&quot;&gt;&amp;nbsp;recommendations]&lt;/span&gt;" style="edgeLabel;html=1;align=center;verticalAlign=middle;resizable=0;points=[];fontSize=8;" parent="BDm3REAGpp8tmRv-bOrY-436" vertex="1" connectable="0">
          <mxGeometry x="-0.3263" y="-1" relative="1" as="geometry">
            <mxPoint x="28" y="-1" as="offset" />
          </mxGeometry>
        </mxCell>
        <mxCell id="BDm3REAGpp8tmRv-bOrY-438" style="edgeStyle=orthogonalEdgeStyle;rounded=0;orthogonalLoop=1;jettySize=auto;html=1;startArrow=none;startFill=0;endArrow=block;endFill=1;entryX=-0.005;entryY=0.818;entryDx=0;entryDy=0;entryPerimeter=0;" parent="BDm3REAGpp8tmRv-bOrY-433" edge="1">
          <mxGeometry relative="1" as="geometry">
            <mxPoint x="-97.86253350985211" y="62.009999999999984" as="sourcePoint" />
            <mxPoint x="98.99517557262423" y="62.72999999999933" as="targetPoint" />
            <Array as="points">
              <mxPoint x="0.5497714131368148" y="61.74" />
              <mxPoint x="99.01999999999998" y="62.74" />
            </Array>
          </mxGeometry>
        </mxCell>
        <mxCell id="BDm3REAGpp8tmRv-bOrY-439" value="&lt;span style=&quot;border-color: var(--border-color); font-size: 8px;&quot;&gt;4.&amp;nbsp;&lt;/span&gt;&lt;span style=&quot;border-color: var(--border-color); font-size: 8px;&quot;&gt;clickSeeRecommendation()&lt;/span&gt;&lt;span style=&quot;border-color: var(--border-color); font-size: 8px;&quot;&gt;[User wants&amp;nbsp;&lt;br style=&quot;font-size: 8px;&quot;&gt;wellbeing&lt;/span&gt;&lt;span style=&quot;border-color: var(--border-color); font-size: 8px;&quot;&gt;&amp;nbsp;recommendations]&lt;/span&gt;" style="edgeLabel;html=1;align=center;verticalAlign=middle;resizable=0;points=[];fontSize=8;" parent="BDm3REAGpp8tmRv-bOrY-438" vertex="1" connectable="0">
          <mxGeometry x="-0.3263" y="-1" relative="1" as="geometry">
            <mxPoint x="27" as="offset" />
          </mxGeometry>
        </mxCell>
        <mxCell id="BDm3REAGpp8tmRv-bOrY-440" style="edgeStyle=orthogonalEdgeStyle;rounded=0;orthogonalLoop=1;jettySize=auto;html=1;startArrow=none;startFill=0;endArrow=block;endFill=1;entryX=-0.005;entryY=0.818;entryDx=0;entryDy=0;entryPerimeter=0;" parent="BDm3REAGpp8tmRv-bOrY-433" edge="1">
          <mxGeometry relative="1" as="geometry">
            <mxPoint x="-98.4659826187753" y="4.355404925604489e-13" as="sourcePoint" />
            <mxPoint x="98.39172646370173" y="0.7199999999997779" as="targetPoint" />
            <Array as="points">
              <mxPoint x="-0.05367769578671755" y="-0.27" />
              <mxPoint x="98.41655089107645" y="0.7299999999999962" />
            </Array>
          </mxGeometry>
        </mxCell>
        <mxCell id="BDm3REAGpp8tmRv-bOrY-441" value="&lt;span style=&quot;font-size: 8px;&quot;&gt;1.&amp;nbsp;&lt;/span&gt;&lt;span style=&quot;font-size: 8px;&quot;&gt;clickViewTracker()[User wants food and &lt;br style=&quot;font-size: 8px;&quot;&gt;exercise recommendations]&lt;/span&gt;" style="edgeLabel;html=1;align=center;verticalAlign=middle;resizable=0;points=[];spacing=0;fontSize=8;" parent="BDm3REAGpp8tmRv-bOrY-440" vertex="1" connectable="0">
          <mxGeometry x="-0.3263" y="-1" relative="1" as="geometry">
            <mxPoint x="29" y="-3" as="offset" />
          </mxGeometry>
        </mxCell>
        <mxCell id="BDm3REAGpp8tmRv-bOrY-442" style="edgeStyle=orthogonalEdgeStyle;rounded=0;orthogonalLoop=1;jettySize=auto;html=1;fontSize=8;startArrow=none;startFill=0;endArrow=block;endFill=1;exitX=0.92;exitY=-0.021;exitDx=0;exitDy=0;exitPerimeter=0;entryX=1.004;entryY=0.08;entryDx=0;entryDy=0;entryPerimeter=0;" parent="1" source="BDm3REAGpp8tmRv-bOrY-419" target="BDm3REAGpp8tmRv-bOrY-419" edge="1">
          <mxGeometry x="0.0331" y="16" relative="1" as="geometry">
            <mxPoint x="1221.7200000000003" y="3067.00766" as="sourcePoint" />
            <mxPoint x="1221.1100000000001" y="3068" as="targetPoint" />
            <Array as="points">
              <mxPoint x="1211.1100000000001" y="3056" />
              <mxPoint x="1246.1100000000001" y="3056" />
              <mxPoint x="1246.1100000000001" y="3068" />
              <mxPoint x="1229.1100000000001" y="3068" />
            </Array>
            <mxPoint as="offset" />
          </mxGeometry>
        </mxCell>
        <mxCell id="BDm3REAGpp8tmRv-bOrY-443" value="3.1. displayTracker()" style="edgeLabel;html=1;align=center;verticalAlign=middle;resizable=0;points=[];fontSize=8;" parent="BDm3REAGpp8tmRv-bOrY-442" vertex="1" connectable="0">
          <mxGeometry x="-0.0543" relative="1" as="geometry">
            <mxPoint x="24" y="6" as="offset" />
          </mxGeometry>
        </mxCell>
        <mxCell id="BDm3REAGpp8tmRv-bOrY-444" style="edgeStyle=orthogonalEdgeStyle;rounded=0;orthogonalLoop=1;jettySize=auto;html=1;entryX=0;entryY=0.25;entryDx=0;entryDy=0;fontSize=8;startArrow=none;startFill=0;endArrow=block;endFill=1;startSize=6;endSize=6;exitX=0.5;exitY=1;exitDx=0;exitDy=0;" parent="1" source="BDm3REAGpp8tmRv-bOrY-451" target="BDm3REAGpp8tmRv-bOrY-417" edge="1">
          <mxGeometry relative="1" as="geometry">
            <Array as="points">
              <mxPoint x="1161.1100000000001" y="3353" />
            </Array>
          </mxGeometry>
        </mxCell>
        <mxCell id="BDm3REAGpp8tmRv-bOrY-445" value="&lt;span style=&quot;border-color: var(--border-color);&quot;&gt;2.1.1.1.&amp;nbsp;&lt;/span&gt;&lt;span style=&quot;border-color: var(--border-color);&quot;&gt;getTracker():&amp;nbsp;&lt;/span&gt;recommendation" style="edgeLabel;html=1;align=center;verticalAlign=middle;resizable=0;points=[];fontSize=8;" parent="BDm3REAGpp8tmRv-bOrY-444" vertex="1" connectable="0">
          <mxGeometry x="0.2146" y="-1" relative="1" as="geometry">
            <mxPoint x="-13" y="-2" as="offset" />
          </mxGeometry>
        </mxCell>
        <mxCell id="pK_a_7zJMjS60tyyFLj3-106" style="edgeStyle=orthogonalEdgeStyle;rounded=0;orthogonalLoop=1;jettySize=auto;html=1;exitX=1;exitY=0.5;exitDx=0;exitDy=0;entryX=0.25;entryY=1;entryDx=0;entryDy=0;endArrow=block;endFill=1;" parent="1" source="BDm3REAGpp8tmRv-bOrY-451" target="BDm3REAGpp8tmRv-bOrY-466" edge="1">
          <mxGeometry relative="1" as="geometry" />
        </mxCell>
        <mxCell id="pK_a_7zJMjS60tyyFLj3-107" value="&lt;span style=&quot;font-size: 8px;&quot;&gt;4.1.1.1. generateRecommendation(wellbeing): recommendation&lt;/span&gt;" style="edgeLabel;html=1;align=center;verticalAlign=middle;resizable=0;points=[];" parent="pK_a_7zJMjS60tyyFLj3-106" vertex="1" connectable="0">
          <mxGeometry x="0.7315" y="2" relative="1" as="geometry">
            <mxPoint y="-1" as="offset" />
          </mxGeometry>
        </mxCell>
        <mxCell id="BDm3REAGpp8tmRv-bOrY-451" value="&amp;lt;&amp;lt;entity&amp;gt;&amp;gt;&lt;br&gt;&lt;u&gt;u1: User&lt;/u&gt;" style="rounded=0;whiteSpace=wrap;html=1;" parent="1" vertex="1">
          <mxGeometry x="1101" y="3297" width="120" height="40" as="geometry" />
        </mxCell>
        <mxCell id="BDm3REAGpp8tmRv-bOrY-452" style="edgeStyle=orthogonalEdgeStyle;rounded=0;orthogonalLoop=1;jettySize=auto;html=1;startArrow=none;startFill=0;endArrow=block;endFill=1;" parent="1" edge="1">
          <mxGeometry relative="1" as="geometry">
            <mxPoint x="1160.36" y="3226.999999999999" as="sourcePoint" />
            <mxPoint x="1160.36" y="3296" as="targetPoint" />
          </mxGeometry>
        </mxCell>
        <mxCell id="BDm3REAGpp8tmRv-bOrY-453" style="edgeStyle=orthogonalEdgeStyle;rounded=0;orthogonalLoop=1;jettySize=auto;html=1;exitX=0.25;exitY=1;exitDx=0;exitDy=0;entryX=0.25;entryY=0;entryDx=0;entryDy=0;startArrow=none;startFill=0;endArrow=block;endFill=1;" parent="1" edge="1">
          <mxGeometry relative="1" as="geometry">
            <mxPoint x="1130.359999999999" y="3226.999999999999" as="sourcePoint" />
            <mxPoint x="1130.36" y="3296" as="targetPoint" />
            <Array as="points">
              <mxPoint x="1130.1100000000001" y="3247" />
              <mxPoint x="1130.1100000000001" y="3247" />
            </Array>
          </mxGeometry>
        </mxCell>
        <mxCell id="BDm3REAGpp8tmRv-bOrY-454" value="&lt;span style=&quot;font-size: 8px;&quot;&gt;2.1.1. getTracker():&amp;nbsp;&lt;/span&gt;&lt;span style=&quot;font-size: 8px;&quot;&gt;recommendation&lt;/span&gt;" style="edgeLabel;html=1;align=center;verticalAlign=middle;resizable=0;points=[];" parent="BDm3REAGpp8tmRv-bOrY-453" vertex="1" connectable="0">
          <mxGeometry x="-0.7101" y="-1" relative="1" as="geometry">
            <mxPoint x="1" y="2" as="offset" />
          </mxGeometry>
        </mxCell>
        <mxCell id="BDm3REAGpp8tmRv-bOrY-455" style="edgeStyle=orthogonalEdgeStyle;rounded=0;orthogonalLoop=1;jettySize=auto;html=1;exitX=0.75;exitY=1;exitDx=0;exitDy=0;entryX=0.75;entryY=0;entryDx=0;entryDy=0;startArrow=none;startFill=0;endArrow=block;endFill=1;" parent="1" edge="1">
          <mxGeometry relative="1" as="geometry">
            <mxPoint x="1190.36" y="3226.999999999999" as="sourcePoint" />
            <mxPoint x="1190.36" y="3296" as="targetPoint" />
          </mxGeometry>
        </mxCell>
        <mxCell id="BDm3REAGpp8tmRv-bOrY-456" value="&lt;span style=&quot;font-size: 8px;&quot;&gt;4.1.1. generateRecommendation(wellbeing):&amp;nbsp;&lt;/span&gt;&lt;span style=&quot;font-size: 8px;&quot;&gt;recommendation&lt;/span&gt;" style="edgeLabel;html=1;align=center;verticalAlign=middle;resizable=0;points=[];" parent="BDm3REAGpp8tmRv-bOrY-455" vertex="1" connectable="0">
          <mxGeometry x="0.2947" relative="1" as="geometry">
            <mxPoint x="1" y="2" as="offset" />
          </mxGeometry>
        </mxCell>
        <mxCell id="BDm3REAGpp8tmRv-bOrY-457" value="&lt;span style=&quot;font-size: 8px;&quot;&gt;2.1.2. generateRecommendation(tracker):&amp;nbsp;&lt;/span&gt;&lt;span style=&quot;font-size: 8px;&quot;&gt;recommendation&lt;/span&gt;" style="edgeLabel;html=1;align=center;verticalAlign=middle;resizable=0;points=[];" parent="1" vertex="1" connectable="0">
          <mxGeometry x="1161.3599999999992" y="3256.499999999999" as="geometry" />
        </mxCell>
        <mxCell id="BDm3REAGpp8tmRv-bOrY-458" style="edgeStyle=orthogonalEdgeStyle;rounded=0;orthogonalLoop=1;jettySize=auto;html=1;exitX=0.25;exitY=1;exitDx=0;exitDy=0;entryX=0.25;entryY=0;entryDx=0;entryDy=0;startArrow=block;startFill=1;endArrow=none;endFill=0;" parent="1" edge="1">
          <mxGeometry relative="1" as="geometry">
            <mxPoint x="1401.8300000000002" y="3192.039999999999" as="sourcePoint" />
            <mxPoint x="1401.8300000000002" y="3243.039999999999" as="targetPoint" />
          </mxGeometry>
        </mxCell>
        <mxCell id="BDm3REAGpp8tmRv-bOrY-459" style="edgeStyle=orthogonalEdgeStyle;rounded=0;orthogonalLoop=1;jettySize=auto;html=1;exitX=0.75;exitY=1;exitDx=0;exitDy=0;entryX=0.75;entryY=0;entryDx=0;entryDy=0;startArrow=block;startFill=1;endArrow=none;endFill=0;" parent="1" edge="1">
          <mxGeometry relative="1" as="geometry">
            <mxPoint x="1416.8300000000002" y="3192.039999999999" as="sourcePoint" />
            <mxPoint x="1416.8300000000002" y="3243.039999999999" as="targetPoint" />
          </mxGeometry>
        </mxCell>
        <mxCell id="BDm3REAGpp8tmRv-bOrY-460" value="&lt;span style=&quot;font-size: 8px;&quot;&gt;4.1.1.1.1. create recommendation(wellbeing):&amp;nbsp;&lt;/span&gt;&lt;span style=&quot;font-size: 8px;&quot;&gt;recommendation&lt;/span&gt;" style="edgeLabel;html=1;align=center;verticalAlign=middle;resizable=0;points=[];" parent="1" vertex="1" connectable="0">
          <mxGeometry x="1415.83" y="3229.870188679245" as="geometry">
            <mxPoint x="1" y="-4" as="offset" />
          </mxGeometry>
        </mxCell>
        <mxCell id="BDm3REAGpp8tmRv-bOrY-461" value="&lt;span style=&quot;font-size: 8px;&quot;&gt;2.1.1.1.1.1. create recommendation(tracker):&amp;nbsp;&lt;/span&gt;&lt;span style=&quot;font-size: 8px;&quot;&gt;recommendation&lt;/span&gt;" style="edgeLabel;html=1;align=center;verticalAlign=middle;resizable=0;points=[];" parent="1" vertex="1" connectable="0">
          <mxGeometry x="1401.83" y="3210.5871698113206" as="geometry" />
        </mxCell>
        <mxCell id="BDm3REAGpp8tmRv-bOrY-466" value="&amp;lt;&amp;lt;control&amp;gt;&amp;gt;&lt;br style=&quot;border-color: var(--border-color);&quot;&gt;&lt;u style=&quot;border-color: var(--border-color);&quot;&gt;rm1: RecommendationManager&lt;/u&gt;" style="rounded=0;whiteSpace=wrap;html=1;" parent="1" vertex="1">
          <mxGeometry x="1310.5" y="3243" width="200" height="40" as="geometry" />
        </mxCell>
        <mxCell id="BDm3REAGpp8tmRv-bOrY-471" value="&lt;span style=&quot;font-size: 8px;&quot;&gt;2.1. generateRecommendation(tracker):&amp;nbsp;&lt;/span&gt;&lt;span style=&quot;font-size: 8px;&quot;&gt;recommendation&lt;/span&gt;" style="edgeLabel;html=1;align=center;verticalAlign=middle;resizable=0;points=[];" parent="1" vertex="1" connectable="0">
          <mxGeometry x="1150" y="3144.4285714285706" as="geometry" />
        </mxCell>
        <mxCell id="BDm3REAGpp8tmRv-bOrY-83" style="edgeStyle=orthogonalEdgeStyle;rounded=0;orthogonalLoop=1;jettySize=auto;html=1;entryX=0.5;entryY=0;entryDx=0;entryDy=0;startArrow=none;startFill=0;endArrow=blockThin;endFill=1;" parent="1" edge="1">
          <mxGeometry relative="1" as="geometry">
            <mxPoint x="1405.42" y="396" as="sourcePoint" />
            <mxPoint x="1405.42" y="480" as="targetPoint" />
          </mxGeometry>
        </mxCell>
        <mxCell id="BDm3REAGpp8tmRv-bOrY-84" style="edgeStyle=orthogonalEdgeStyle;rounded=0;orthogonalLoop=1;jettySize=auto;html=1;entryX=0.137;entryY=-0.021;entryDx=0;entryDy=0;entryPerimeter=0;startArrow=none;startFill=0;endArrow=block;endFill=1;" parent="1" edge="1">
          <mxGeometry relative="1" as="geometry">
            <Array as="points">
              <mxPoint x="1376.42" y="416.79207920792084" />
              <mxPoint x="1376.42" y="416.79207920792084" />
            </Array>
            <mxPoint x="1376.42" y="396" as="sourcePoint" />
            <mxPoint x="1376.1549999999997" y="479.3013861386139" as="targetPoint" />
          </mxGeometry>
        </mxCell>
        <mxCell id="BDm3REAGpp8tmRv-bOrY-85" style="edgeStyle=orthogonalEdgeStyle;rounded=0;orthogonalLoop=1;jettySize=auto;html=1;entryX=0.306;entryY=-0.007;entryDx=0;entryDy=0;entryPerimeter=0;startArrow=none;startFill=0;endArrow=block;endFill=1;" parent="1" edge="1">
          <mxGeometry relative="1" as="geometry">
            <Array as="points">
              <mxPoint x="1390.4199999999998" y="420.74567755283" />
              <mxPoint x="1390.4199999999998" y="420.74567755283" />
            </Array>
            <mxPoint x="1390.4200000000003" y="396.6268656716418" as="sourcePoint" />
            <mxPoint x="1390.3499999999997" y="480.3939943845131" as="targetPoint" />
          </mxGeometry>
        </mxCell>
        <mxCell id="pK_a_7zJMjS60tyyFLj3-7" style="edgeStyle=orthogonalEdgeStyle;rounded=0;orthogonalLoop=1;jettySize=auto;html=1;startArrow=none;startFill=0;endArrow=block;endFill=1;entryX=1.01;entryY=0.577;entryDx=0;entryDy=0;entryPerimeter=0;exitX=1;exitY=0.25;exitDx=0;exitDy=0;" parent="1" edge="1">
          <mxGeometry relative="1" as="geometry">
            <mxPoint x="1329.2079365079362" y="308" as="targetPoint" />
            <mxPoint x="1330.4079365079351" y="328.60099999999966" as="sourcePoint" />
            <Array as="points">
              <mxPoint x="1310.4079365079365" y="328.3509999999999" />
              <mxPoint x="1310.4079365079365" y="308.3509999999999" />
              <mxPoint x="1329.4079365079365" y="308.3509999999999" />
            </Array>
          </mxGeometry>
        </mxCell>
        <mxCell id="pK_a_7zJMjS60tyyFLj3-8" value="&lt;span style=&quot;font-size: 8px;&quot;&gt;1.1.1. displayRegistration()&lt;/span&gt;" style="edgeLabel;html=1;align=center;verticalAlign=middle;resizable=0;points=[];" parent="pK_a_7zJMjS60tyyFLj3-7" vertex="1" connectable="0">
          <mxGeometry x="-0.1447" y="-1" relative="1" as="geometry">
            <mxPoint x="-34" y="-4" as="offset" />
          </mxGeometry>
        </mxCell>
        <mxCell id="pK_a_7zJMjS60tyyFLj3-9" style="edgeStyle=orthogonalEdgeStyle;rounded=0;orthogonalLoop=1;jettySize=auto;html=1;exitX=0.125;exitY=0;exitDx=0;exitDy=0;startArrow=none;startFill=0;endArrow=block;endFill=1;entryX=0.291;entryY=-0.01;entryDx=0;entryDy=0;exitPerimeter=0;entryPerimeter=0;" parent="1" edge="1">
          <mxGeometry relative="1" as="geometry">
            <mxPoint x="1366.0499999999995" y="299.3699999999999" as="targetPoint" />
            <mxPoint x="1346.1299999999994" y="299.9999999999999" as="sourcePoint" />
            <Array as="points">
              <mxPoint x="1346.13" y="270" />
              <mxPoint x="1366.13" y="270" />
            </Array>
          </mxGeometry>
        </mxCell>
        <mxCell id="pK_a_7zJMjS60tyyFLj3-10" value="&lt;span style=&quot;font-size: 8px;&quot;&gt;1.2.2. displayPayment()&lt;/span&gt;" style="edgeLabel;html=1;align=center;verticalAlign=middle;resizable=0;points=[];" parent="pK_a_7zJMjS60tyyFLj3-9" vertex="1" connectable="0">
          <mxGeometry x="-0.1447" y="-1" relative="1" as="geometry">
            <mxPoint x="-33" y="9" as="offset" />
          </mxGeometry>
        </mxCell>
        <mxCell id="pK_a_7zJMjS60tyyFLj3-11" style="edgeStyle=orthogonalEdgeStyle;rounded=0;orthogonalLoop=1;jettySize=auto;html=1;exitX=0.125;exitY=0;exitDx=0;exitDy=0;startArrow=none;startFill=0;endArrow=block;endFill=1;entryX=0.291;entryY=-0.01;entryDx=0;entryDy=0;exitPerimeter=0;entryPerimeter=0;" parent="1" edge="1">
          <mxGeometry relative="1" as="geometry">
            <mxPoint x="1415.1299999999983" y="299.3699999999999" as="targetPoint" />
            <mxPoint x="1395.2100000000003" y="299.9999999999999" as="sourcePoint" />
            <Array as="points">
              <mxPoint x="1395.21" y="270" />
              <mxPoint x="1415.21" y="270" />
            </Array>
          </mxGeometry>
        </mxCell>
        <mxCell id="pK_a_7zJMjS60tyyFLj3-12" value="&lt;span style=&quot;font-size: 8px;&quot;&gt;1.3.2. displayHome()&lt;/span&gt;" style="edgeLabel;html=1;align=center;verticalAlign=middle;resizable=0;points=[];" parent="pK_a_7zJMjS60tyyFLj3-11" vertex="1" connectable="0">
          <mxGeometry x="-0.1447" y="-1" relative="1" as="geometry">
            <mxPoint x="16" y="8" as="offset" />
          </mxGeometry>
        </mxCell>
        <mxCell id="pK_a_7zJMjS60tyyFLj3-13" style="edgeStyle=orthogonalEdgeStyle;rounded=0;orthogonalLoop=1;jettySize=auto;html=1;exitX=0.125;exitY=0;exitDx=0;exitDy=0;startArrow=none;startFill=0;endArrow=block;endFill=1;entryX=0.993;entryY=0.19;entryDx=0;entryDy=0;exitPerimeter=0;entryPerimeter=0;" parent="1" edge="1">
          <mxGeometry relative="1" as="geometry">
            <mxPoint x="1450.2899999999993" y="311.97000000000025" as="targetPoint" />
            <mxPoint x="1443.1300000000006" y="299.9999999999999" as="sourcePoint" />
            <Array as="points">
              <mxPoint x="1443.13" y="286" />
              <mxPoint x="1463.13" y="286" />
              <mxPoint x="1463.13" y="312" />
            </Array>
          </mxGeometry>
        </mxCell>
        <mxCell id="pK_a_7zJMjS60tyyFLj3-14" value="&lt;span style=&quot;font-size: 8px;&quot;&gt;1.4.2.&amp;nbsp;&lt;/span&gt;&lt;span style=&quot;font-size: 8px;&quot;&gt;displayError(paymentError)&lt;/span&gt;" style="edgeLabel;html=1;align=center;verticalAlign=middle;resizable=0;points=[];" parent="pK_a_7zJMjS60tyyFLj3-13" vertex="1" connectable="0">
          <mxGeometry x="-0.1447" y="-1" relative="1" as="geometry">
            <mxPoint x="52" y="9" as="offset" />
          </mxGeometry>
        </mxCell>
        <mxCell id="pK_a_7zJMjS60tyyFLj3-15" style="edgeStyle=orthogonalEdgeStyle;rounded=0;orthogonalLoop=1;jettySize=auto;html=1;startArrow=none;startFill=0;endArrow=block;endFill=1;entryX=1.01;entryY=0.577;entryDx=0;entryDy=0;entryPerimeter=0;exitX=1;exitY=0.25;exitDx=0;exitDy=0;" parent="1" edge="1">
          <mxGeometry relative="1" as="geometry">
            <mxPoint x="1451.6100000000001" y="346.60099999999966" as="targetPoint" />
            <mxPoint x="1450.41" y="326" as="sourcePoint" />
            <Array as="points">
              <mxPoint x="1470.41" y="326.25" />
              <mxPoint x="1470.41" y="346.25" />
              <mxPoint x="1451.41" y="346.25" />
            </Array>
          </mxGeometry>
        </mxCell>
        <mxCell id="pK_a_7zJMjS60tyyFLj3-16" value="&lt;span style=&quot;font-size: 8px;&quot;&gt;1.4.3.&amp;nbsp;&lt;/span&gt;&lt;span style=&quot;font-size: 8px;&quot;&gt;displayPayment()&lt;/span&gt;" style="edgeLabel;html=1;align=center;verticalAlign=middle;resizable=0;points=[];" parent="pK_a_7zJMjS60tyyFLj3-15" vertex="1" connectable="0">
          <mxGeometry x="-0.1447" y="-1" relative="1" as="geometry">
            <mxPoint x="33" y="4" as="offset" />
          </mxGeometry>
        </mxCell>
        <mxCell id="pK_a_7zJMjS60tyyFLj3-17" style="edgeStyle=orthogonalEdgeStyle;rounded=0;orthogonalLoop=1;jettySize=auto;html=1;startArrow=none;startFill=0;endArrow=block;endFill=1;entryX=1.01;entryY=0.577;entryDx=0;entryDy=0;entryPerimeter=0;exitX=1;exitY=0.25;exitDx=0;exitDy=0;" parent="1" edge="1">
          <mxGeometry relative="1" as="geometry">
            <mxPoint x="1451.6100000000001" y="375.3010000000004" as="targetPoint" />
            <mxPoint x="1450.41" y="354.69999999999936" as="sourcePoint" />
            <Array as="points">
              <mxPoint x="1470.41" y="354.94999999999993" />
              <mxPoint x="1470.41" y="374.94999999999993" />
              <mxPoint x="1451.41" y="374.94999999999993" />
            </Array>
          </mxGeometry>
        </mxCell>
        <mxCell id="pK_a_7zJMjS60tyyFLj3-18" value="&lt;span style=&quot;font-size: 8px;&quot;&gt;1.5.1. displayHome()&lt;/span&gt;" style="edgeLabel;html=1;align=center;verticalAlign=middle;resizable=0;points=[];" parent="pK_a_7zJMjS60tyyFLj3-17" vertex="1" connectable="0">
          <mxGeometry x="-0.1447" y="-1" relative="1" as="geometry">
            <mxPoint x="33" y="4" as="offset" />
          </mxGeometry>
        </mxCell>
        <mxCell id="pK_a_7zJMjS60tyyFLj3-19" style="edgeStyle=orthogonalEdgeStyle;rounded=0;orthogonalLoop=1;jettySize=auto;html=1;entryX=0.5;entryY=0;entryDx=0;entryDy=0;startArrow=none;startFill=0;endArrow=block;endFill=1;" parent="1" edge="1">
          <mxGeometry relative="1" as="geometry">
            <mxPoint x="1405.4199999999998" y="396" as="sourcePoint" />
            <mxPoint x="1405.4199999999998" y="480.0000000000001" as="targetPoint" />
          </mxGeometry>
        </mxCell>
        <mxCell id="pK_a_7zJMjS60tyyFLj3-21" value="&lt;span style=&quot;font-size: 8px;&quot;&gt;1.2.1. submitRegistration(details): cost&lt;/span&gt;" style="edgeLabel;html=1;align=center;verticalAlign=middle;resizable=0;points=[];" parent="1" vertex="1" connectable="0">
          <mxGeometry x="1376.4109020731394" y="408.9729697827913" as="geometry" />
        </mxCell>
        <mxCell id="pK_a_7zJMjS60tyyFLj3-22" value="&lt;span style=&quot;font-size: 8px;&quot;&gt;1.3.1. processPayment():&amp;nbsp;&lt;/span&gt;&lt;span style=&quot;font-size: 8px;&quot;&gt;isRegistered&lt;/span&gt;" style="edgeLabel;html=1;align=center;verticalAlign=middle;resizable=0;points=[];" parent="1" vertex="1" connectable="0">
          <mxGeometry x="1391.4017099181706" y="428.73403860922554" as="geometry" />
        </mxCell>
        <mxCell id="pK_a_7zJMjS60tyyFLj3-23" value="&lt;span style=&quot;border-color: var(--border-color); font-size: 8px;&quot;&gt;1.4.1. processPayment():&amp;nbsp;&lt;/span&gt;&lt;span style=&quot;border-color: var(--border-color); font-size: 8px;&quot;&gt;paymentError&lt;/span&gt;" style="edgeLabel;html=1;align=center;verticalAlign=middle;resizable=0;points=[];" parent="1" vertex="1" connectable="0">
          <mxGeometry x="1405.4199999999998" y="450.5945945945946" as="geometry" />
        </mxCell>
        <mxCell id="pK_a_7zJMjS60tyyFLj3-28" style="edgeStyle=orthogonalEdgeStyle;rounded=0;orthogonalLoop=1;jettySize=auto;html=1;fontSize=8;startArrow=none;startFill=0;endArrow=block;endFill=1;entryX=1.013;entryY=0.176;entryDx=0;entryDy=0;entryPerimeter=0;" parent="1" edge="1">
          <mxGeometry relative="1" as="geometry">
            <mxPoint x="1432.51" y="1430" as="sourcePoint" />
            <mxPoint x="1433.4" y="1446.5099999999998" as="targetPoint" />
            <Array as="points">
              <mxPoint x="1432.51" y="1430" />
              <mxPoint x="1449.51" y="1430" />
              <mxPoint x="1449.51" y="1447" />
            </Array>
          </mxGeometry>
        </mxCell>
        <mxCell id="pK_a_7zJMjS60tyyFLj3-29" value="3.2. displayTracker()" style="edgeLabel;html=1;align=center;verticalAlign=middle;resizable=0;points=[];fontSize=8;" parent="pK_a_7zJMjS60tyyFLj3-28" vertex="1" connectable="0">
          <mxGeometry x="-0.0543" relative="1" as="geometry">
            <mxPoint x="26" y="1" as="offset" />
          </mxGeometry>
        </mxCell>
        <mxCell id="pK_a_7zJMjS60tyyFLj3-30" value="User" style="shape=umlActor;verticalLabelPosition=bottom;verticalAlign=top;html=1;outlineConnect=0;" parent="1" vertex="1">
          <mxGeometry x="1041.45" y="1900.75" width="30" height="60" as="geometry" />
        </mxCell>
        <mxCell id="pK_a_7zJMjS60tyyFLj3-31" value="&amp;lt;&amp;lt;boundary&amp;gt;&amp;gt;&lt;br&gt;&lt;u&gt;ui1: AppGUI&lt;/u&gt;" style="rounded=0;whiteSpace=wrap;html=1;" parent="1" vertex="1">
          <mxGeometry x="1319.45" y="1898.75" width="120" height="80" as="geometry" />
        </mxCell>
        <mxCell id="pK_a_7zJMjS60tyyFLj3-32" value="&amp;lt;&amp;lt;control&amp;gt;&amp;gt;&lt;br&gt;&lt;u&gt;um1: UserManager&lt;/u&gt;" style="rounded=0;whiteSpace=wrap;html=1;" parent="1" vertex="1">
          <mxGeometry x="1319.45" y="2051.5" width="120" height="69.46" as="geometry" />
        </mxCell>
        <mxCell id="pK_a_7zJMjS60tyyFLj3-33" value="&amp;lt;&amp;lt;entity&amp;gt;&amp;gt;&lt;br&gt;&lt;u&gt;u1: User&lt;/u&gt;" style="rounded=0;whiteSpace=wrap;html=1;" parent="1" vertex="1">
          <mxGeometry x="988.41" y="2053.96" width="120" height="58" as="geometry" />
        </mxCell>
        <mxCell id="pK_a_7zJMjS60tyyFLj3-34" style="edgeStyle=orthogonalEdgeStyle;rounded=0;orthogonalLoop=1;jettySize=auto;html=1;entryX=0;entryY=0.5;entryDx=0;entryDy=0;endArrow=block;endFill=1;" parent="1" source="pK_a_7zJMjS60tyyFLj3-40" target="pK_a_7zJMjS60tyyFLj3-41" edge="1">
          <mxGeometry relative="1" as="geometry" />
        </mxCell>
        <mxCell id="pK_a_7zJMjS60tyyFLj3-35" value="&lt;span style=&quot;font-size: 8px;&quot;&gt;3.1.1.1.1. edit&lt;/span&gt;&lt;span style=&quot;font-size: 8px;&quot;&gt;Food&lt;/span&gt;&lt;span style=&quot;font-size: 8px;&quot;&gt;Item(details): updatedItem&lt;/span&gt;" style="edgeLabel;html=1;align=center;verticalAlign=middle;resizable=0;points=[];" parent="pK_a_7zJMjS60tyyFLj3-34" vertex="1" connectable="0">
          <mxGeometry x="-0.0495" y="-1" relative="1" as="geometry">
            <mxPoint x="4" y="-1" as="offset" />
          </mxGeometry>
        </mxCell>
        <mxCell id="pK_a_7zJMjS60tyyFLj3-36" style="edgeStyle=orthogonalEdgeStyle;rounded=0;orthogonalLoop=1;jettySize=auto;html=1;entryX=0;entryY=0.75;entryDx=0;entryDy=0;exitX=1;exitY=0.75;exitDx=0;exitDy=0;endArrow=block;endFill=1;" parent="1" source="pK_a_7zJMjS60tyyFLj3-40" target="pK_a_7zJMjS60tyyFLj3-41" edge="1">
          <mxGeometry relative="1" as="geometry" />
        </mxCell>
        <mxCell id="pK_a_7zJMjS60tyyFLj3-37" value="&lt;span style=&quot;font-size: 8px;&quot;&gt;4.1.1.1.1. remove&lt;/span&gt;&lt;span style=&quot;font-size: 8px;&quot;&gt;Food&lt;/span&gt;&lt;span style=&quot;font-size: 8px;&quot;&gt;Item(details): isRemoved&lt;/span&gt;" style="edgeLabel;html=1;align=center;verticalAlign=middle;resizable=0;points=[];" parent="pK_a_7zJMjS60tyyFLj3-36" vertex="1" connectable="0">
          <mxGeometry x="-0.137" relative="1" as="geometry">
            <mxPoint x="9" y="1" as="offset" />
          </mxGeometry>
        </mxCell>
        <mxCell id="pK_a_7zJMjS60tyyFLj3-38" style="edgeStyle=orthogonalEdgeStyle;rounded=0;orthogonalLoop=1;jettySize=auto;html=1;entryX=0;entryY=0.25;entryDx=0;entryDy=0;exitX=1;exitY=0.25;exitDx=0;exitDy=0;endArrow=block;endFill=1;" parent="1" source="pK_a_7zJMjS60tyyFLj3-40" target="pK_a_7zJMjS60tyyFLj3-41" edge="1">
          <mxGeometry relative="1" as="geometry" />
        </mxCell>
        <mxCell id="pK_a_7zJMjS60tyyFLj3-39" value="&lt;span style=&quot;font-size: 8px;&quot;&gt;2.1.1.1.1.&amp;nbsp;&lt;/span&gt;&lt;span style=&quot;font-size: 8px;&quot;&gt;create newItem: newItem&lt;/span&gt;" style="edgeLabel;html=1;align=center;verticalAlign=middle;resizable=0;points=[];" parent="pK_a_7zJMjS60tyyFLj3-38" vertex="1" connectable="0">
          <mxGeometry x="-0.099" relative="1" as="geometry">
            <mxPoint x="9" y="-1" as="offset" />
          </mxGeometry>
        </mxCell>
        <mxCell id="pK_a_7zJMjS60tyyFLj3-40" value="&amp;lt;&amp;lt;entity&amp;gt;&amp;gt;&lt;br&gt;&lt;u&gt;t1: Tracker&lt;/u&gt;" style="rounded=0;whiteSpace=wrap;html=1;" parent="1" vertex="1">
          <mxGeometry x="991.07" y="2181.13" width="120" height="40" as="geometry" />
        </mxCell>
        <mxCell id="pK_a_7zJMjS60tyyFLj3-41" value="&amp;lt;&amp;lt;entity&amp;gt;&amp;gt;&lt;br&gt;&lt;u&gt;f1: Food&lt;/u&gt;" style="rounded=0;whiteSpace=wrap;html=1;" parent="1" vertex="1">
          <mxGeometry x="1319.5700000000002" y="2180.96" width="120" height="40" as="geometry" />
        </mxCell>
        <mxCell id="pK_a_7zJMjS60tyyFLj3-42" style="edgeStyle=orthogonalEdgeStyle;rounded=0;orthogonalLoop=1;jettySize=auto;html=1;startArrow=none;startFill=0;endArrow=block;endFill=1;entryX=-0.005;entryY=0.818;entryDx=0;entryDy=0;entryPerimeter=0;" parent="1" edge="1">
          <mxGeometry relative="1" as="geometry">
            <mxPoint x="1081.5199999999998" y="1927.0200000000004" as="sourcePoint" />
            <mxPoint x="1319.4200000000003" y="1927.7400000000002" as="targetPoint" />
            <Array as="points">
              <mxPoint x="1200.45" y="1926.75" />
              <mxPoint x="1319.45" y="1927.75" />
            </Array>
          </mxGeometry>
        </mxCell>
        <mxCell id="pK_a_7zJMjS60tyyFLj3-43" value="&lt;span style=&quot;font-size: 8px;&quot;&gt;2.&amp;nbsp;&lt;/span&gt;&lt;span style=&quot;font-size: 8px;&quot;&gt;addFoodItem(details)[User adds food&amp;nbsp;&lt;/span&gt;&lt;span style=&quot;font-size: 8px;&quot;&gt;item]&lt;/span&gt;" style="edgeLabel;html=1;align=center;verticalAlign=middle;resizable=0;points=[];" parent="pK_a_7zJMjS60tyyFLj3-42" vertex="1" connectable="0">
          <mxGeometry x="-0.3263" y="-1" relative="1" as="geometry">
            <mxPoint x="34" y="-3" as="offset" />
          </mxGeometry>
        </mxCell>
        <mxCell id="pK_a_7zJMjS60tyyFLj3-44" style="edgeStyle=orthogonalEdgeStyle;rounded=0;orthogonalLoop=1;jettySize=auto;html=1;startArrow=none;startFill=0;endArrow=block;endFill=1;entryX=-0.005;entryY=0.818;entryDx=0;entryDy=0;entryPerimeter=0;" parent="1" edge="1">
          <mxGeometry relative="1" as="geometry">
            <mxPoint x="1081.5499999999995" y="1944.7500000000005" as="sourcePoint" />
            <mxPoint x="1319.45" y="1945.4699999999984" as="targetPoint" />
            <Array as="points">
              <mxPoint x="1200.4799999999998" y="1944.48" />
              <mxPoint x="1319.4799999999998" y="1945.48" />
            </Array>
          </mxGeometry>
        </mxCell>
        <mxCell id="pK_a_7zJMjS60tyyFLj3-45" value="&lt;span style=&quot;font-size: 8px;&quot;&gt;3.&amp;nbsp;&lt;/span&gt;&lt;span style=&quot;font-size: 8px;&quot;&gt;edit&lt;/span&gt;&lt;span style=&quot;font-size: 8px;&quot;&gt;Food&lt;/span&gt;&lt;span style=&quot;font-size: 8px;&quot;&gt;Item(details)[User edits food&amp;nbsp;&lt;/span&gt;&lt;span style=&quot;font-size: 8px;&quot;&gt;item]&lt;/span&gt;" style="edgeLabel;html=1;align=center;verticalAlign=middle;resizable=0;points=[];" parent="pK_a_7zJMjS60tyyFLj3-44" vertex="1" connectable="0">
          <mxGeometry x="-0.3263" y="-1" relative="1" as="geometry">
            <mxPoint x="34" y="-3" as="offset" />
          </mxGeometry>
        </mxCell>
        <mxCell id="pK_a_7zJMjS60tyyFLj3-46" style="edgeStyle=orthogonalEdgeStyle;rounded=0;orthogonalLoop=1;jettySize=auto;html=1;entryX=0.868;entryY=0;entryDx=0;entryDy=0;fontSize=8;startArrow=none;startFill=0;endArrow=block;endFill=1;exitX=0.913;exitY=0;exitDx=0;exitDy=0;exitPerimeter=0;entryPerimeter=0;" parent="1" edge="1">
          <mxGeometry x="0.3656" y="429" relative="1" as="geometry">
            <mxPoint x="1394.4199999999998" y="1898.6400000000003" as="sourcePoint" />
            <mxPoint x="1417.21" y="1898.75" as="targetPoint" />
            <Array as="points">
              <mxPoint x="1394.6299999999999" y="1875.96" />
              <mxPoint x="1417.6299999999999" y="1875.96" />
              <mxPoint x="1417.6299999999999" y="1890.96" />
              <mxPoint x="1417.6299999999999" y="1890.96" />
            </Array>
            <mxPoint as="offset" />
          </mxGeometry>
        </mxCell>
        <mxCell id="pK_a_7zJMjS60tyyFLj3-47" value="2.2. displayTracker()" style="edgeLabel;html=1;align=center;verticalAlign=middle;resizable=0;points=[];fontSize=8;" parent="pK_a_7zJMjS60tyyFLj3-46" vertex="1" connectable="0">
          <mxGeometry x="-0.0543" relative="1" as="geometry">
            <mxPoint x="29" y="8" as="offset" />
          </mxGeometry>
        </mxCell>
        <mxCell id="pK_a_7zJMjS60tyyFLj3-48" style="edgeStyle=orthogonalEdgeStyle;rounded=0;orthogonalLoop=1;jettySize=auto;html=1;startArrow=none;startFill=0;endArrow=block;endFill=1;entryX=-0.005;entryY=0.818;entryDx=0;entryDy=0;entryPerimeter=0;" parent="1" edge="1">
          <mxGeometry relative="1" as="geometry">
            <mxPoint x="1081.5499999999995" y="1964.7500000000005" as="sourcePoint" />
            <mxPoint x="1319.45" y="1965.4699999999984" as="targetPoint" />
            <Array as="points">
              <mxPoint x="1200.4799999999998" y="1964.48" />
              <mxPoint x="1319.4799999999998" y="1965.48" />
            </Array>
          </mxGeometry>
        </mxCell>
        <mxCell id="pK_a_7zJMjS60tyyFLj3-49" value="&lt;span style=&quot;font-size: 8px;&quot;&gt;4.&amp;nbsp;&lt;/span&gt;&lt;span style=&quot;font-size: 8px;&quot;&gt;remove&lt;/span&gt;&lt;span style=&quot;font-size: 8px;&quot;&gt;Food&lt;/span&gt;&lt;span style=&quot;font-size: 8px;&quot;&gt;Item(details)[User removes food&amp;nbsp;&lt;/span&gt;&lt;span style=&quot;font-size: 8px;&quot;&gt;item]&lt;/span&gt;" style="edgeLabel;html=1;align=center;verticalAlign=middle;resizable=0;points=[];" parent="pK_a_7zJMjS60tyyFLj3-48" vertex="1" connectable="0">
          <mxGeometry x="-0.3263" y="-1" relative="1" as="geometry">
            <mxPoint x="34" y="-2" as="offset" />
          </mxGeometry>
        </mxCell>
        <mxCell id="pK_a_7zJMjS60tyyFLj3-50" style="edgeStyle=orthogonalEdgeStyle;rounded=0;orthogonalLoop=1;jettySize=auto;html=1;startArrow=none;startFill=0;endArrow=block;endFill=1;entryX=-0.005;entryY=0.818;entryDx=0;entryDy=0;entryPerimeter=0;" parent="1" edge="1">
          <mxGeometry relative="1" as="geometry">
            <mxPoint x="1081.5499999999995" y="1911.75" as="sourcePoint" />
            <mxPoint x="1319.45" y="1912.469999999999" as="targetPoint" />
            <Array as="points">
              <mxPoint x="1200.4799999999998" y="1911.48" />
              <mxPoint x="1319.4799999999998" y="1912.48" />
            </Array>
          </mxGeometry>
        </mxCell>
        <mxCell id="pK_a_7zJMjS60tyyFLj3-51" value="&lt;span style=&quot;font-size: 8px;&quot;&gt;1.&amp;nbsp;&lt;/span&gt;&lt;span style=&quot;font-size: 8px;&quot;&gt;clickViewTracker()&lt;/span&gt;" style="edgeLabel;html=1;align=center;verticalAlign=middle;resizable=0;points=[];" parent="pK_a_7zJMjS60tyyFLj3-50" vertex="1" connectable="0">
          <mxGeometry x="-0.3263" y="-1" relative="1" as="geometry">
            <mxPoint x="34" y="-2" as="offset" />
          </mxGeometry>
        </mxCell>
        <mxCell id="pK_a_7zJMjS60tyyFLj3-52" style="edgeStyle=orthogonalEdgeStyle;rounded=0;orthogonalLoop=1;jettySize=auto;html=1;fontSize=8;startArrow=none;startFill=0;endArrow=block;endFill=1;entryX=1.013;entryY=0.176;entryDx=0;entryDy=0;entryPerimeter=0;" parent="1" edge="1">
          <mxGeometry relative="1" as="geometry">
            <mxPoint x="1440.42" y="1932.96" as="sourcePoint" />
            <mxPoint x="1441.3100000000002" y="1949.4699999999998" as="targetPoint" />
            <Array as="points">
              <mxPoint x="1440.42" y="1932.96" />
              <mxPoint x="1457.42" y="1932.96" />
              <mxPoint x="1457.42" y="1949.96" />
            </Array>
          </mxGeometry>
        </mxCell>
        <mxCell id="pK_a_7zJMjS60tyyFLj3-53" value="4.2. displayTracker()" style="edgeLabel;html=1;align=center;verticalAlign=middle;resizable=0;points=[];fontSize=8;" parent="pK_a_7zJMjS60tyyFLj3-52" vertex="1" connectable="0">
          <mxGeometry x="-0.0543" relative="1" as="geometry">
            <mxPoint x="26" y="1" as="offset" />
          </mxGeometry>
        </mxCell>
        <mxCell id="pK_a_7zJMjS60tyyFLj3-54" style="edgeStyle=orthogonalEdgeStyle;rounded=0;orthogonalLoop=1;jettySize=auto;html=1;entryX=0.642;entryY=0.028;entryDx=0;entryDy=0;fontSize=8;startArrow=none;startFill=0;endArrow=block;endFill=1;entryPerimeter=0;" parent="1" edge="1">
          <mxGeometry x="0.3656" y="429" relative="1" as="geometry">
            <mxPoint x="1350.9299999999996" y="1898.6599999999999" as="sourcePoint" />
            <mxPoint x="1371.9500000000005" y="1898.7520000000009" as="targetPoint" />
            <Array as="points">
              <mxPoint x="1351" y="1874.96" />
              <mxPoint x="1372" y="1874.96" />
            </Array>
            <mxPoint as="offset" />
          </mxGeometry>
        </mxCell>
        <mxCell id="pK_a_7zJMjS60tyyFLj3-55" value="1.2. displayTracker()" style="edgeLabel;html=1;align=center;verticalAlign=middle;resizable=0;points=[];fontSize=8;" parent="pK_a_7zJMjS60tyyFLj3-54" vertex="1" connectable="0">
          <mxGeometry x="-0.0543" relative="1" as="geometry">
            <mxPoint x="-31" y="8" as="offset" />
          </mxGeometry>
        </mxCell>
        <mxCell id="pK_a_7zJMjS60tyyFLj3-56" value="" style="group" parent="1" vertex="1" connectable="0">
          <mxGeometry x="1214.03" y="2044.96" width="105.45" height="69" as="geometry" />
        </mxCell>
        <mxCell id="pK_a_7zJMjS60tyyFLj3-57" style="edgeStyle=orthogonalEdgeStyle;rounded=0;orthogonalLoop=1;jettySize=auto;html=1;startArrow=block;startFill=1;endArrow=none;endFill=0;entryX=-0.005;entryY=0.818;entryDx=0;entryDy=0;entryPerimeter=0;endSize=6;fontSize=11;startSize=6;" parent="pK_a_7zJMjS60tyyFLj3-56" edge="1">
          <mxGeometry relative="1" as="geometry">
            <mxPoint x="-105.36140888851578" y="32.539999999999964" as="sourcePoint" />
            <mxPoint x="105.39684533311004" y="33.26000000000022" as="targetPoint" />
            <Array as="points">
              <mxPoint y="32.26999999999998" />
              <mxPoint x="105.42342266655487" y="33.26999999999998" />
            </Array>
          </mxGeometry>
        </mxCell>
        <mxCell id="pK_a_7zJMjS60tyyFLj3-58" value="&lt;span style=&quot;font-size: 8px;&quot;&gt;2.1.1. add&lt;/span&gt;&lt;span style=&quot;font-size: 8px;&quot;&gt;Food&lt;/span&gt;&lt;span style=&quot;font-size: 8px;&quot;&gt;Item(details):&amp;nbsp;&lt;/span&gt;&lt;span style=&quot;font-size: 8px;&quot;&gt;newItem&lt;/span&gt;" style="edgeLabel;html=1;align=center;verticalAlign=middle;resizable=0;points=[];" parent="pK_a_7zJMjS60tyyFLj3-57" vertex="1" connectable="0">
          <mxGeometry x="-0.3263" y="-1" relative="1" as="geometry">
            <mxPoint x="25" y="-2" as="offset" />
          </mxGeometry>
        </mxCell>
        <mxCell id="pK_a_7zJMjS60tyyFLj3-59" style="edgeStyle=orthogonalEdgeStyle;rounded=0;orthogonalLoop=1;jettySize=auto;html=1;startArrow=block;startFill=1;endArrow=none;endFill=0;entryX=-0.005;entryY=0.818;entryDx=0;entryDy=0;entryPerimeter=0;endSize=6;fontSize=11;startSize=6;" parent="pK_a_7zJMjS60tyyFLj3-56" edge="1">
          <mxGeometry relative="1" as="geometry">
            <mxPoint x="-105.33483155507062" y="49.26999999999998" as="sourcePoint" />
            <mxPoint x="105.42342266655487" y="49.98999999999978" as="targetPoint" />
            <Array as="points">
              <mxPoint x="0.026577333445452836" y="49" />
              <mxPoint x="105.45000000000002" y="50" />
            </Array>
          </mxGeometry>
        </mxCell>
        <mxCell id="pK_a_7zJMjS60tyyFLj3-60" value="&lt;span style=&quot;font-size: 8px;&quot;&gt;3.1.1. edit&lt;/span&gt;&lt;span style=&quot;font-size: 8px;&quot;&gt;Food&lt;/span&gt;&lt;span style=&quot;font-size: 8px;&quot;&gt;Item(details):&amp;nbsp;&lt;/span&gt;&lt;span style=&quot;font-size: 8px;&quot;&gt;updatedItem&lt;/span&gt;" style="edgeLabel;html=1;align=center;verticalAlign=middle;resizable=0;points=[];" parent="pK_a_7zJMjS60tyyFLj3-59" vertex="1" connectable="0">
          <mxGeometry x="-0.3263" y="-1" relative="1" as="geometry">
            <mxPoint x="25" y="-3" as="offset" />
          </mxGeometry>
        </mxCell>
        <mxCell id="pK_a_7zJMjS60tyyFLj3-61" style="edgeStyle=orthogonalEdgeStyle;rounded=0;orthogonalLoop=1;jettySize=auto;html=1;startArrow=block;startFill=1;endArrow=none;endFill=0;entryX=-0.005;entryY=0.818;entryDx=0;entryDy=0;entryPerimeter=0;endSize=6;fontSize=11;startSize=6;" parent="pK_a_7zJMjS60tyyFLj3-56" edge="1">
          <mxGeometry relative="1" as="geometry">
            <mxPoint x="-105.33483155507062" y="63.26999999999998" as="sourcePoint" />
            <mxPoint x="105.42342266655487" y="63.98999999999978" as="targetPoint" />
            <Array as="points">
              <mxPoint x="0.026577333445452836" y="63" />
              <mxPoint x="105.45000000000002" y="64" />
            </Array>
          </mxGeometry>
        </mxCell>
        <mxCell id="pK_a_7zJMjS60tyyFLj3-62" value="&lt;span style=&quot;font-size: 8px;&quot;&gt;4.1.1. remove&lt;/span&gt;&lt;span style=&quot;font-size: 8px;&quot;&gt;Food&lt;/span&gt;&lt;span style=&quot;font-size: 8px;&quot;&gt;Item(details):&amp;nbsp;&lt;/span&gt;&lt;span style=&quot;font-size: 8px;&quot;&gt;isRemoved&lt;/span&gt;" style="edgeLabel;html=1;align=center;verticalAlign=middle;resizable=0;points=[];" parent="pK_a_7zJMjS60tyyFLj3-61" vertex="1" connectable="0">
          <mxGeometry x="-0.3263" y="-1" relative="1" as="geometry">
            <mxPoint x="25" y="-2" as="offset" />
          </mxGeometry>
        </mxCell>
        <mxCell id="pK_a_7zJMjS60tyyFLj3-63" style="edgeStyle=orthogonalEdgeStyle;rounded=0;orthogonalLoop=1;jettySize=auto;html=1;startArrow=block;startFill=1;endArrow=none;endFill=0;entryX=-0.005;entryY=0.818;entryDx=0;entryDy=0;entryPerimeter=0;endSize=6;fontSize=11;startSize=6;" parent="pK_a_7zJMjS60tyyFLj3-56" edge="1">
          <mxGeometry relative="1" as="geometry">
            <mxPoint x="-105.33483155507062" y="16.269999999999982" as="sourcePoint" />
            <mxPoint x="105.42342266655487" y="16.98999999999978" as="targetPoint" />
            <Array as="points">
              <mxPoint x="0.026577333445452836" y="16" />
              <mxPoint x="105.45000000000002" y="17" />
            </Array>
          </mxGeometry>
        </mxCell>
        <mxCell id="pK_a_7zJMjS60tyyFLj3-64" value="&lt;span style=&quot;font-size: 8px;&quot;&gt;1.1.1. getTracker():&amp;nbsp;&lt;/span&gt;&lt;span style=&quot;font-size: 8px;&quot;&gt;tracker&lt;/span&gt;" style="edgeLabel;html=1;align=center;verticalAlign=middle;resizable=0;points=[];" parent="pK_a_7zJMjS60tyyFLj3-63" vertex="1" connectable="0">
          <mxGeometry x="-0.3263" y="-1" relative="1" as="geometry">
            <mxPoint x="25" y="-2" as="offset" />
          </mxGeometry>
        </mxCell>
        <mxCell id="pK_a_7zJMjS60tyyFLj3-65" value="" style="group" parent="1" vertex="1" connectable="0">
          <mxGeometry x="1014.01" y="2112.44" width="75.79" height="68.69" as="geometry" />
        </mxCell>
        <mxCell id="pK_a_7zJMjS60tyyFLj3-66" style="edgeStyle=orthogonalEdgeStyle;rounded=0;orthogonalLoop=1;jettySize=auto;html=1;entryX=0.5;entryY=0;entryDx=0;entryDy=0;startArrow=none;startFill=0;endArrow=block;endFill=1;" parent="pK_a_7zJMjS60tyyFLj3-65" edge="1">
          <mxGeometry relative="1" as="geometry">
            <mxPoint x="50.84000000000018" as="sourcePoint" />
            <mxPoint x="50.84000000000018" y="68.69" as="targetPoint" />
          </mxGeometry>
        </mxCell>
        <mxCell id="pK_a_7zJMjS60tyyFLj3-67" style="edgeStyle=orthogonalEdgeStyle;rounded=0;orthogonalLoop=1;jettySize=auto;html=1;entryX=0.772;entryY=0.002;entryDx=0;entryDy=0;entryPerimeter=0;startArrow=none;startFill=0;endArrow=block;endFill=1;exitX=0.77;exitY=0.99;exitDx=0;exitDy=0;exitPerimeter=0;" parent="pK_a_7zJMjS60tyyFLj3-65" edge="1">
          <mxGeometry relative="1" as="geometry">
            <mxPoint x="76.0299999999998" y="-0.4778434782604349" as="sourcePoint" />
            <mxPoint x="76.2700000000005" y="68.78317947826137" as="targetPoint" />
            <Array as="points">
              <mxPoint x="75.79000000000002" y="16.53935739130465" />
              <mxPoint x="75.79000000000002" y="16.53935739130465" />
            </Array>
          </mxGeometry>
        </mxCell>
        <mxCell id="pK_a_7zJMjS60tyyFLj3-68" style="edgeStyle=orthogonalEdgeStyle;rounded=0;orthogonalLoop=1;jettySize=auto;html=1;startArrow=none;startFill=0;endArrow=block;endFill=1;exitX=0.213;exitY=1.006;exitDx=0;exitDy=0;exitPerimeter=0;entryX=0.217;entryY=0;entryDx=0;entryDy=0;entryPerimeter=0;" parent="pK_a_7zJMjS60tyyFLj3-65" edge="1">
          <mxGeometry relative="1" as="geometry">
            <mxPoint x="25.999999999999563" y="0.4121399999997609" as="sourcePoint" />
            <mxPoint x="26.480000000000036" y="68.81543391304349" as="targetPoint" />
            <Array as="points">
              <mxPoint x="25.599999999999927" y="34.58392173913076" />
            </Array>
          </mxGeometry>
        </mxCell>
        <mxCell id="pK_a_7zJMjS60tyyFLj3-69" style="edgeStyle=orthogonalEdgeStyle;rounded=0;orthogonalLoop=1;jettySize=auto;html=1;entryX=0.076;entryY=0.004;entryDx=0;entryDy=0;entryPerimeter=0;startArrow=none;startFill=0;endArrow=block;endFill=1;exitX=0.068;exitY=1.006;exitDx=0;exitDy=0;exitPerimeter=0;" parent="pK_a_7zJMjS60tyyFLj3-65" edge="1">
          <mxGeometry relative="1" as="geometry">
            <mxPoint x="-1.0000000000000007" y="0.286706086956261" as="sourcePoint" />
            <mxPoint x="-0.03999999999996365" y="68.87635895652167" as="targetPoint" />
            <Array as="points">
              <mxPoint y="0.41214000000030415" />
            </Array>
          </mxGeometry>
        </mxCell>
        <mxCell id="pK_a_7zJMjS60tyyFLj3-70" value="&lt;span style=&quot;font-size: 8px;&quot;&gt;4.1.1.1. remove&lt;/span&gt;&lt;span style=&quot;font-size: 8px;&quot;&gt;Food&lt;/span&gt;&lt;span style=&quot;font-size: 8px;&quot;&gt;Item(details): isRemoved&lt;/span&gt;" style="edgeLabel;html=1;align=center;verticalAlign=middle;resizable=0;points=[];" parent="1" vertex="1" connectable="0">
          <mxGeometry x="1089.804167809387" y="2160.6758314821445" as="geometry" />
        </mxCell>
        <mxCell id="pK_a_7zJMjS60tyyFLj3-71" value="&lt;span style=&quot;font-size: 8px;&quot;&gt;3.1.1.1. edit&lt;/span&gt;&lt;span style=&quot;font-size: 8px;&quot;&gt;Food&lt;/span&gt;&lt;span style=&quot;font-size: 8px;&quot;&gt;Item(details): updatedItem&lt;/span&gt;" style="edgeLabel;html=1;align=center;verticalAlign=middle;resizable=0;points=[];" parent="1" vertex="1" connectable="0">
          <mxGeometry x="1065.01" y="2149.1311111111113" as="geometry">
            <mxPoint x="3" y="-2" as="offset" />
          </mxGeometry>
        </mxCell>
        <mxCell id="pK_a_7zJMjS60tyyFLj3-72" value="&lt;span style=&quot;font-size: 8px;&quot;&gt;2.1.1.1. add&lt;/span&gt;&lt;span style=&quot;font-size: 8px;&quot;&gt;Food&lt;/span&gt;&lt;span style=&quot;font-size: 8px;&quot;&gt;Item(details): newItem&lt;/span&gt;" style="edgeLabel;html=1;align=center;verticalAlign=middle;resizable=0;points=[];" parent="1" vertex="1" connectable="0">
          <mxGeometry x="1040.0113681831401" y="2133.125791644401" as="geometry" />
        </mxCell>
        <mxCell id="pK_a_7zJMjS60tyyFLj3-73" value="&lt;span style=&quot;font-size: 8px;&quot;&gt;1.1.1.1. getTracker():&amp;nbsp;&lt;/span&gt;&lt;span style=&quot;font-size: 8px;&quot;&gt;tracker&lt;/span&gt;" style="edgeLabel;html=1;align=center;verticalAlign=middle;resizable=0;points=[];" parent="1" vertex="1" connectable="0">
          <mxGeometry x="1013.0139429551998" y="2120.1266789355395" as="geometry" />
        </mxCell>
        <mxCell id="pK_a_7zJMjS60tyyFLj3-83" style="edgeStyle=orthogonalEdgeStyle;rounded=0;orthogonalLoop=1;jettySize=auto;html=1;fontSize=8;startArrow=none;startFill=0;endArrow=block;endFill=1;entryX=1.013;entryY=0.176;entryDx=0;entryDy=0;entryPerimeter=0;" parent="1" edge="1">
          <mxGeometry relative="1" as="geometry">
            <mxPoint x="1439.54" y="1903.96" as="sourcePoint" />
            <mxPoint x="1440.43" y="1920.4699999999998" as="targetPoint" />
            <Array as="points">
              <mxPoint x="1439.54" y="1903.96" />
              <mxPoint x="1456.54" y="1903.96" />
              <mxPoint x="1456.54" y="1920.96" />
            </Array>
          </mxGeometry>
        </mxCell>
        <mxCell id="pK_a_7zJMjS60tyyFLj3-84" value="3.2. displayTracker()" style="edgeLabel;html=1;align=center;verticalAlign=middle;resizable=0;points=[];fontSize=8;" parent="pK_a_7zJMjS60tyyFLj3-83" vertex="1" connectable="0">
          <mxGeometry x="-0.0543" relative="1" as="geometry">
            <mxPoint x="26" y="1" as="offset" />
          </mxGeometry>
        </mxCell>
        <mxCell id="pK_a_7zJMjS60tyyFLj3-75" style="edgeStyle=orthogonalEdgeStyle;rounded=0;orthogonalLoop=1;jettySize=auto;html=1;entryX=0.5;entryY=0;entryDx=0;entryDy=0;startArrow=none;startFill=0;endArrow=block;endFill=1;" parent="1" edge="1">
          <mxGeometry relative="1" as="geometry">
            <mxPoint x="1389.45" y="1978.75" as="sourcePoint" />
            <mxPoint x="1389.45" y="2051.75" as="targetPoint" />
          </mxGeometry>
        </mxCell>
        <mxCell id="pK_a_7zJMjS60tyyFLj3-76" style="edgeStyle=orthogonalEdgeStyle;rounded=0;orthogonalLoop=1;jettySize=auto;html=1;entryX=0.5;entryY=0;entryDx=0;entryDy=0;endArrow=block;endFill=1;" parent="1" edge="1">
          <mxGeometry relative="1" as="geometry">
            <mxPoint x="1365.45" y="1978.75" as="sourcePoint" />
            <mxPoint x="1365.45" y="2051.75" as="targetPoint" />
          </mxGeometry>
        </mxCell>
        <mxCell id="pK_a_7zJMjS60tyyFLj3-77" style="edgeStyle=orthogonalEdgeStyle;rounded=0;orthogonalLoop=1;jettySize=auto;html=1;entryX=0.5;entryY=0;entryDx=0;entryDy=0;endArrow=block;endFill=1;" parent="1" edge="1">
          <mxGeometry relative="1" as="geometry">
            <mxPoint x="1414.45" y="1978.75" as="sourcePoint" />
            <mxPoint x="1414.45" y="2051.75" as="targetPoint" />
          </mxGeometry>
        </mxCell>
        <mxCell id="pK_a_7zJMjS60tyyFLj3-78" style="edgeStyle=orthogonalEdgeStyle;rounded=0;orthogonalLoop=1;jettySize=auto;html=1;entryX=0.5;entryY=0;entryDx=0;entryDy=0;endArrow=block;endFill=1;" parent="1" edge="1">
          <mxGeometry relative="1" as="geometry">
            <mxPoint x="1343.45" y="1978.75" as="sourcePoint" />
            <mxPoint x="1343.45" y="2051.75" as="targetPoint" />
          </mxGeometry>
        </mxCell>
        <mxCell id="pK_a_7zJMjS60tyyFLj3-87" value="&lt;span style=&quot;font-size: 8px;&quot;&gt;4.1. remove&lt;/span&gt;&lt;span style=&quot;font-size: 8px;&quot;&gt;Food&lt;/span&gt;&lt;span style=&quot;font-size: 8px;&quot;&gt;Item(details):&amp;nbsp;&lt;/span&gt;&lt;span style=&quot;font-size: 8px;&quot;&gt;isRemoved&lt;/span&gt;" style="edgeLabel;html=1;align=center;verticalAlign=middle;resizable=0;points=[];" parent="1" vertex="1" connectable="0">
          <mxGeometry x="1412.4541678093872" y="2028.7458314821442" as="geometry" />
        </mxCell>
        <mxCell id="pK_a_7zJMjS60tyyFLj3-88" value="&lt;span style=&quot;font-size: 8px;&quot;&gt;2.1. add&lt;/span&gt;&lt;span style=&quot;font-size: 8px;&quot;&gt;Food&lt;/span&gt;&lt;span style=&quot;font-size: 8px;&quot;&gt;Item(details):&amp;nbsp;&lt;/span&gt;&lt;span style=&quot;font-size: 8px;&quot;&gt;isCreated&lt;/span&gt;" style="edgeLabel;html=1;align=center;verticalAlign=middle;resizable=0;points=[];" parent="1" vertex="1" connectable="0">
          <mxGeometry x="1365.4513681831406" y="2000.745791644401" as="geometry" />
        </mxCell>
        <mxCell id="pK_a_7zJMjS60tyyFLj3-89" value="&lt;span style=&quot;font-size: 8px;&quot;&gt;1.1. getTracker():&amp;nbsp;&lt;/span&gt;&lt;span style=&quot;font-size: 8px;&quot;&gt;tracker&lt;/span&gt;" style="edgeLabel;html=1;align=center;verticalAlign=middle;resizable=0;points=[];" parent="1" vertex="1" connectable="0">
          <mxGeometry x="1343.45" y="1986.25" as="geometry" />
        </mxCell>
        <mxCell id="pK_a_7zJMjS60tyyFLj3-90" value="&lt;span style=&quot;font-size: 8px;&quot;&gt;3.1. edit&lt;/span&gt;&lt;span style=&quot;font-size: 8px;&quot;&gt;Food&lt;/span&gt;&lt;span style=&quot;font-size: 8px;&quot;&gt;Item(details):&amp;nbsp;&lt;/span&gt;&lt;span style=&quot;font-size: 8px;&quot;&gt;isUpdated&lt;/span&gt;" style="edgeLabel;html=1;align=center;verticalAlign=middle;resizable=0;points=[];" parent="1" vertex="1" connectable="0">
          <mxGeometry x="1389.45" y="2014.8376618357486" as="geometry" />
        </mxCell>
        <mxCell id="BDm3REAGpp8tmRv-bOrY-220" style="edgeStyle=orthogonalEdgeStyle;rounded=0;orthogonalLoop=1;jettySize=auto;html=1;entryX=0.5;entryY=0;entryDx=0;entryDy=0;startArrow=none;startFill=0;endArrow=block;endFill=1;" parent="1" edge="1">
          <mxGeometry relative="1" as="geometry">
            <mxPoint x="1382.42" y="1504.79" as="sourcePoint" />
            <mxPoint x="1382.42" y="1577.79" as="targetPoint" />
          </mxGeometry>
        </mxCell>
        <mxCell id="BDm3REAGpp8tmRv-bOrY-221" style="edgeStyle=orthogonalEdgeStyle;rounded=0;orthogonalLoop=1;jettySize=auto;html=1;entryX=0.5;entryY=0;entryDx=0;entryDy=0;endArrow=block;endFill=1;" parent="1" edge="1">
          <mxGeometry relative="1" as="geometry">
            <mxPoint x="1358.42" y="1504.79" as="sourcePoint" />
            <mxPoint x="1358.42" y="1577.79" as="targetPoint" />
          </mxGeometry>
        </mxCell>
        <mxCell id="BDm3REAGpp8tmRv-bOrY-222" style="edgeStyle=orthogonalEdgeStyle;rounded=0;orthogonalLoop=1;jettySize=auto;html=1;entryX=0.5;entryY=0;entryDx=0;entryDy=0;endArrow=block;endFill=1;" parent="1" edge="1">
          <mxGeometry relative="1" as="geometry">
            <mxPoint x="1407.42" y="1504.79" as="sourcePoint" />
            <mxPoint x="1407.42" y="1577.79" as="targetPoint" />
          </mxGeometry>
        </mxCell>
        <mxCell id="BDm3REAGpp8tmRv-bOrY-223" style="edgeStyle=orthogonalEdgeStyle;rounded=0;orthogonalLoop=1;jettySize=auto;html=1;entryX=0.5;entryY=0;entryDx=0;entryDy=0;endArrow=block;endFill=1;" parent="1" edge="1">
          <mxGeometry relative="1" as="geometry">
            <mxPoint x="1336.42" y="1504.79" as="sourcePoint" />
            <mxPoint x="1336.42" y="1577.79" as="targetPoint" />
          </mxGeometry>
        </mxCell>
        <mxCell id="pK_a_7zJMjS60tyyFLj3-91" value="&lt;span style=&quot;font-size: 8px;&quot;&gt;4.1. remove&lt;/span&gt;&lt;span style=&quot;font-size: 8px;&quot;&gt;Exercise&lt;/span&gt;&lt;span style=&quot;font-size: 8px;&quot;&gt;Item(details):&amp;nbsp;&lt;/span&gt;&lt;span style=&quot;font-size: 8px;&quot;&gt;isRemoved&lt;/span&gt;" style="edgeLabel;html=1;align=center;verticalAlign=middle;resizable=0;points=[];" parent="1" vertex="1" connectable="0">
          <mxGeometry x="1405.4241678093872" y="1554.7858314821442" as="geometry" />
        </mxCell>
        <mxCell id="pK_a_7zJMjS60tyyFLj3-92" value="&lt;span style=&quot;font-size: 8px;&quot;&gt;2.1. addExerciseItem(details):&amp;nbsp;&lt;/span&gt;&lt;span style=&quot;font-size: 8px;&quot;&gt;isCreated&lt;/span&gt;" style="edgeLabel;html=1;align=center;verticalAlign=middle;resizable=0;points=[];" parent="1" vertex="1" connectable="0">
          <mxGeometry x="1358.4213681831407" y="1526.785791644401" as="geometry" />
        </mxCell>
        <mxCell id="pK_a_7zJMjS60tyyFLj3-93" value="&lt;span style=&quot;font-size: 8px;&quot;&gt;1.1. getTracker():&amp;nbsp;&lt;/span&gt;&lt;span style=&quot;font-size: 8px;&quot;&gt;tracker&lt;/span&gt;" style="edgeLabel;html=1;align=center;verticalAlign=middle;resizable=0;points=[];" parent="1" vertex="1" connectable="0">
          <mxGeometry x="1336.42" y="1512.29" as="geometry" />
        </mxCell>
        <mxCell id="pK_a_7zJMjS60tyyFLj3-94" value="&lt;span style=&quot;font-size: 8px;&quot;&gt;3.1. edit&lt;/span&gt;&lt;span style=&quot;font-size: 8px;&quot;&gt;Exercise&lt;/span&gt;&lt;span style=&quot;font-size: 8px;&quot;&gt;Item(details):&amp;nbsp;&lt;/span&gt;&lt;span style=&quot;font-size: 8px;&quot;&gt;isUpdated&lt;/span&gt;" style="edgeLabel;html=1;align=center;verticalAlign=middle;resizable=0;points=[];" parent="1" vertex="1" connectable="0">
          <mxGeometry x="1382.42" y="1540.8776618357485" as="geometry" />
        </mxCell>
        <mxCell id="pK_a_7zJMjS60tyyFLj3-95" style="edgeStyle=orthogonalEdgeStyle;rounded=0;orthogonalLoop=1;jettySize=auto;html=1;exitX=0.75;exitY=1;exitDx=0;exitDy=0;entryX=0.75;entryY=0;entryDx=0;entryDy=0;startArrow=none;startFill=0;endArrow=block;endFill=1;" parent="1" edge="1">
          <mxGeometry relative="1" as="geometry">
            <mxPoint x="1382.4200000000003" y="2516.0499999999993" as="sourcePoint" />
            <mxPoint x="1382.4200000000003" y="2585.0499999999993" as="targetPoint" />
          </mxGeometry>
        </mxCell>
        <mxCell id="pK_a_7zJMjS60tyyFLj3-97" style="edgeStyle=orthogonalEdgeStyle;rounded=0;orthogonalLoop=1;jettySize=auto;html=1;startArrow=none;startFill=0;endArrow=block;endFill=1;" parent="1" edge="1">
          <mxGeometry relative="1" as="geometry">
            <mxPoint x="1353.9300000000003" y="2516.0499999999993" as="sourcePoint" />
            <mxPoint x="1353.9300000000003" y="2585.0499999999993" as="targetPoint" />
          </mxGeometry>
        </mxCell>
        <mxCell id="pK_a_7zJMjS60tyyFLj3-98" value="&lt;span style=&quot;font-size: 8px;&quot;&gt;2.1.&amp;nbsp;&lt;/span&gt;&lt;span style=&quot;font-size: 8px;&quot;&gt;generateNewGoal():&amp;nbsp;&lt;/span&gt;&lt;span style=&quot;font-size: 8px;&quot;&gt;isGoalAdded&lt;/span&gt;" style="edgeLabel;html=1;align=center;verticalAlign=middle;resizable=0;points=[];" parent="1" vertex="1" connectable="0">
          <mxGeometry x="1354.4299999999996" y="2546.997692307692" as="geometry" />
        </mxCell>
        <mxCell id="pK_a_7zJMjS60tyyFLj3-99" value="&lt;span style=&quot;font-size: 8px;&quot;&gt;1.1.&amp;nbsp;&lt;/span&gt;&lt;span style=&quot;font-size: 8px;&quot;&gt;getGoals():&amp;nbsp;&lt;/span&gt;&lt;span style=&quot;font-size: 8px;&quot;&gt;goals&lt;/span&gt;" style="edgeLabel;html=1;align=center;verticalAlign=middle;resizable=0;points=[];" parent="1" vertex="1" connectable="0">
          <mxGeometry x="1320.9400000000003" y="2528.272222222222" as="geometry" />
        </mxCell>
        <mxCell id="pK_a_7zJMjS60tyyFLj3-100" value="&lt;span style=&quot;font-size: 8px;&quot;&gt;3.1.&amp;nbsp;&lt;/span&gt;&lt;span style=&quot;font-size: 8px;&quot;&gt;removeGoal(goal):&amp;nbsp;&lt;/span&gt;&lt;span style=&quot;font-size: 8px;&quot;&gt;isDeleted&lt;/span&gt;" style="edgeLabel;html=1;align=center;verticalAlign=middle;resizable=0;points=[];" parent="1" vertex="1" connectable="0">
          <mxGeometry x="1382.4200000000003" y="2563.5499999999993" as="geometry" />
        </mxCell>
        <mxCell id="BDm3REAGpp8tmRv-bOrY-354" style="edgeStyle=orthogonalEdgeStyle;rounded=0;orthogonalLoop=1;jettySize=auto;html=1;entryX=0.5;entryY=0;entryDx=0;entryDy=0;startArrow=none;startFill=0;endArrow=block;endFill=1;" parent="1" edge="1">
          <mxGeometry relative="1" as="geometry">
            <mxPoint x="1318.89" y="2625.98" as="sourcePoint" />
            <mxPoint x="1318.89" y="2692.98" as="targetPoint" />
          </mxGeometry>
        </mxCell>
        <mxCell id="BDm3REAGpp8tmRv-bOrY-355" style="edgeStyle=orthogonalEdgeStyle;rounded=0;orthogonalLoop=1;jettySize=auto;html=1;entryX=0.5;entryY=0;entryDx=0;entryDy=0;startArrow=none;startFill=0;endArrow=block;endFill=1;" parent="1" edge="1">
          <mxGeometry relative="1" as="geometry">
            <mxPoint x="1354.43" y="2626" as="sourcePoint" />
            <mxPoint x="1354.43" y="2693" as="targetPoint" />
          </mxGeometry>
        </mxCell>
        <mxCell id="BDm3REAGpp8tmRv-bOrY-357" style="edgeStyle=orthogonalEdgeStyle;rounded=0;orthogonalLoop=1;jettySize=auto;html=1;entryX=0.5;entryY=0;entryDx=0;entryDy=0;startArrow=none;startFill=0;endArrow=block;endFill=1;" parent="1" edge="1">
          <mxGeometry relative="1" as="geometry">
            <mxPoint x="1392.89" y="2625.98" as="sourcePoint" />
            <mxPoint x="1392.89" y="2692.98" as="targetPoint" />
          </mxGeometry>
        </mxCell>
        <mxCell id="pK_a_7zJMjS60tyyFLj3-103" value="&lt;span style=&quot;border-color: var(--border-color); font-size: 8px;&quot;&gt;1.1.1.&amp;nbsp;&lt;/span&gt;&lt;span style=&quot;border-color: var(--border-color); font-size: 8px;&quot;&gt;getGoals():&amp;nbsp;&lt;/span&gt;&lt;span style=&quot;font-size: 8px;&quot;&gt;goals&lt;/span&gt;" style="edgeLabel;html=1;align=center;verticalAlign=middle;resizable=0;points=[];" parent="1" vertex="1" connectable="0">
          <mxGeometry x="1318.8900000000003" y="2634.3133333333335" as="geometry" />
        </mxCell>
        <mxCell id="pK_a_7zJMjS60tyyFLj3-104" value="&lt;span style=&quot;font-size: 8px;&quot;&gt;2.1.1.&amp;nbsp;&lt;/span&gt;&lt;span style=&quot;font-size: 8px;&quot;&gt;getTracker():&amp;nbsp;&lt;/span&gt;&lt;span style=&quot;font-size: 8px;&quot;&gt;isGoalAdded&lt;/span&gt;" style="edgeLabel;html=1;align=center;verticalAlign=middle;resizable=0;points=[];" parent="1" vertex="1" connectable="0">
          <mxGeometry x="1354.1100000000001" y="2654.0033333333336" as="geometry" />
        </mxCell>
        <mxCell id="pK_a_7zJMjS60tyyFLj3-105" value="&lt;span style=&quot;font-size: 8px;&quot;&gt;3.1.1.&amp;nbsp;&lt;/span&gt;&lt;span style=&quot;font-size: 8px;&quot;&gt;removeGoal(goal):&amp;nbsp;&lt;/span&gt;&lt;span style=&quot;font-size: 8px;&quot;&gt;isDeleted&lt;/span&gt;" style="edgeLabel;html=1;align=center;verticalAlign=middle;resizable=0;points=[];" parent="1" vertex="1" connectable="0">
          <mxGeometry x="1391.8900000000003" y="2672.3133333333335" as="geometry" />
        </mxCell>
      </root>
    </mxGraphModel>
  </diagram>
</mxfile>
